G04 #@! TF.FileFunction,Legend,Top*
%FSLAX46Y46*%
G04 Gerber Fmt 4.6, Leading zero omitted, Abs format (unit mm)*
G04 Created by KiCad (PCBNEW 4.0.6) date 07/12/17 23:45:09*
%MOMM*%
%LPD*%
G01*
G04 APERTURE LIST*
%ADD10C,0.100000*%
%ADD11C,0.200000*%
%ADD12C,0.120000*%
%ADD13C,0.150000*%
%ADD14C,0.125000*%
G04 APERTURE END LIST*
D10*
D11*
X155324525Y-83185000D02*
G75*
G03X155324525Y-83185000I-2289525J0D01*
G01*
X145799525Y-83185000D02*
G75*
G03X145799525Y-83185000I-2289525J0D01*
G01*
D12*
X143728018Y-47172432D02*
G75*
G02X143727000Y-41648000I1171982J2762432D01*
G01*
X146828295Y-42112247D02*
G75*
G02X146828000Y-46708000I-1928295J-2297753D01*
G01*
X151460000Y-49320000D02*
X147594000Y-49320000D01*
X143205000Y-49320000D02*
X139340000Y-49320000D01*
X151460000Y-39500000D02*
X147594000Y-39500000D01*
X143205000Y-39500000D02*
X139340000Y-39500000D01*
X151460000Y-49320000D02*
X151460000Y-47735000D01*
X151460000Y-46085000D02*
X151460000Y-45235000D01*
X151460000Y-43585000D02*
X151460000Y-42735000D01*
X151460000Y-41085000D02*
X151460000Y-39500000D01*
X139340000Y-49320000D02*
X139340000Y-39500000D01*
X141730000Y-118420000D02*
X141730000Y-117490000D01*
X141730000Y-115260000D02*
X141730000Y-116190000D01*
X141730000Y-115260000D02*
X139570000Y-115260000D01*
X141730000Y-118420000D02*
X140270000Y-118420000D01*
X138975000Y-110710000D02*
X144475000Y-110710000D01*
X138975000Y-112810000D02*
X144475000Y-112810000D01*
X138975000Y-110710000D02*
X138975000Y-112810000D01*
X138975000Y-100550000D02*
X144475000Y-100550000D01*
X138975000Y-102650000D02*
X144475000Y-102650000D01*
X138975000Y-100550000D02*
X138975000Y-102650000D01*
X152615000Y-90035000D02*
X152615000Y-89035000D01*
X150915000Y-89035000D02*
X150915000Y-90035000D01*
X158022000Y-95795000D02*
X158022000Y-101295000D01*
X155922000Y-95795000D02*
X155922000Y-101295000D01*
X158022000Y-95795000D02*
X155922000Y-95795000D01*
X155995000Y-90305000D02*
X155995000Y-91305000D01*
X157695000Y-91305000D02*
X157695000Y-90305000D01*
X157695000Y-123690000D02*
X157695000Y-122690000D01*
X155995000Y-122690000D02*
X155995000Y-123690000D01*
X155995000Y-115070000D02*
X155995000Y-116070000D01*
X157695000Y-116070000D02*
X157695000Y-115070000D01*
X149090000Y-112180000D02*
X148090000Y-112180000D01*
X148090000Y-113880000D02*
X149090000Y-113880000D01*
X157695000Y-119880000D02*
X157695000Y-118880000D01*
X155995000Y-118880000D02*
X155995000Y-119880000D01*
X151900000Y-78320000D02*
X152900000Y-78320000D01*
X152900000Y-76620000D02*
X151900000Y-76620000D01*
X150788000Y-92464000D02*
X150788000Y-93464000D01*
X152488000Y-93464000D02*
X152488000Y-92464000D01*
X140750000Y-127545000D02*
X140750000Y-133045000D01*
X138650000Y-127545000D02*
X138650000Y-133045000D01*
X140750000Y-127545000D02*
X138650000Y-127545000D01*
X141190000Y-135345000D02*
X141190000Y-129845000D01*
X143290000Y-135345000D02*
X143290000Y-129845000D01*
X141190000Y-135345000D02*
X143290000Y-135345000D01*
X152535000Y-118325000D02*
X153535000Y-118325000D01*
X153535000Y-116625000D02*
X152535000Y-116625000D01*
X140555000Y-95340000D02*
X140555000Y-89840000D01*
X142655000Y-95340000D02*
X142655000Y-89840000D01*
X140555000Y-95340000D02*
X142655000Y-95340000D01*
X141515000Y-98010000D02*
X147015000Y-98010000D01*
X141515000Y-100110000D02*
X147015000Y-100110000D01*
X141515000Y-98010000D02*
X141515000Y-100110000D01*
X157695000Y-135120000D02*
X157695000Y-134120000D01*
X155995000Y-134120000D02*
X155995000Y-135120000D01*
X155995000Y-126500000D02*
X155995000Y-127500000D01*
X157695000Y-127500000D02*
X157695000Y-126500000D01*
X138900000Y-99390000D02*
X140500000Y-99390000D01*
X140500000Y-99390000D02*
X140500000Y-96790000D01*
X138900000Y-99390000D02*
X138900000Y-96790000D01*
X138900000Y-96215000D02*
X140500000Y-96215000D01*
X140500000Y-96215000D02*
X140500000Y-93615000D01*
X138900000Y-96215000D02*
X138900000Y-93615000D01*
X154880000Y-73660000D02*
X154880000Y-78800000D01*
X154880000Y-78800000D02*
X157540000Y-78800000D01*
X157540000Y-78800000D02*
X157540000Y-73660000D01*
X157540000Y-73660000D02*
X154880000Y-73660000D01*
X154880000Y-72390000D02*
X154880000Y-71060000D01*
X154880000Y-71060000D02*
X156210000Y-71060000D01*
X154880000Y-64770000D02*
X154880000Y-69910000D01*
X154880000Y-69910000D02*
X157540000Y-69910000D01*
X157540000Y-69910000D02*
X157540000Y-64770000D01*
X157540000Y-64770000D02*
X154880000Y-64770000D01*
X154880000Y-63500000D02*
X154880000Y-62170000D01*
X154880000Y-62170000D02*
X156210000Y-62170000D01*
X142300000Y-151130000D02*
X142300000Y-145990000D01*
X142300000Y-145990000D02*
X139640000Y-145990000D01*
X139640000Y-145990000D02*
X139640000Y-151130000D01*
X139640000Y-151130000D02*
X142300000Y-151130000D01*
X142300000Y-152400000D02*
X142300000Y-153730000D01*
X142300000Y-153730000D02*
X140970000Y-153730000D01*
X143450000Y-139065000D02*
X143450000Y-144205000D01*
X143450000Y-144205000D02*
X146110000Y-144205000D01*
X146110000Y-144205000D02*
X146110000Y-139065000D01*
X146110000Y-139065000D02*
X143450000Y-139065000D01*
X143450000Y-137795000D02*
X143450000Y-136465000D01*
X143450000Y-136465000D02*
X144780000Y-136465000D01*
X139640000Y-139065000D02*
X139640000Y-144205000D01*
X139640000Y-144205000D02*
X142300000Y-144205000D01*
X142300000Y-144205000D02*
X142300000Y-139065000D01*
X142300000Y-139065000D02*
X139640000Y-139065000D01*
X139640000Y-137795000D02*
X139640000Y-136465000D01*
X139640000Y-136465000D02*
X140970000Y-136465000D01*
X155250000Y-141480000D02*
X154320000Y-141480000D01*
X152090000Y-141480000D02*
X153020000Y-141480000D01*
X152090000Y-141480000D02*
X152090000Y-143640000D01*
X155250000Y-141480000D02*
X155250000Y-142940000D01*
X148080000Y-118420000D02*
X148080000Y-117490000D01*
X148080000Y-115260000D02*
X148080000Y-116190000D01*
X148080000Y-115260000D02*
X145920000Y-115260000D01*
X148080000Y-118420000D02*
X146620000Y-118420000D01*
X153980000Y-119255000D02*
X153050000Y-119255000D01*
X150820000Y-119255000D02*
X151750000Y-119255000D01*
X150820000Y-119255000D02*
X150820000Y-121415000D01*
X153980000Y-119255000D02*
X153980000Y-120715000D01*
X145105000Y-130935000D02*
X146035000Y-130935000D01*
X148265000Y-130935000D02*
X147335000Y-130935000D01*
X148265000Y-130935000D02*
X148265000Y-128775000D01*
X145105000Y-130935000D02*
X145105000Y-129475000D01*
X154260000Y-48760000D02*
X154260000Y-47760000D01*
X155620000Y-47760000D02*
X155620000Y-48760000D01*
X154260000Y-41140000D02*
X154260000Y-40140000D01*
X155620000Y-40140000D02*
X155620000Y-41140000D01*
X146185000Y-102825000D02*
X147185000Y-102825000D01*
X147185000Y-104185000D02*
X146185000Y-104185000D01*
X154440000Y-43770000D02*
X155440000Y-43770000D01*
X155440000Y-45130000D02*
X154440000Y-45130000D01*
X142740000Y-56560000D02*
X141740000Y-56560000D01*
X141740000Y-55200000D02*
X142740000Y-55200000D01*
X146820000Y-75520000D02*
X147820000Y-75520000D01*
X147820000Y-76880000D02*
X146820000Y-76880000D01*
X154170000Y-75610000D02*
X153170000Y-75610000D01*
X153170000Y-74250000D02*
X154170000Y-74250000D01*
X150540000Y-74430000D02*
X150540000Y-75430000D01*
X149180000Y-75430000D02*
X149180000Y-74430000D01*
X155530000Y-145280000D02*
X155530000Y-144280000D01*
X156890000Y-144280000D02*
X156890000Y-145280000D01*
X157345000Y-142920000D02*
X156345000Y-142920000D01*
X156345000Y-141560000D02*
X157345000Y-141560000D01*
X147275000Y-102100000D02*
X147275000Y-101100000D01*
X148635000Y-101100000D02*
X148635000Y-102100000D01*
X152445000Y-95385000D02*
X152445000Y-96385000D01*
X151085000Y-96385000D02*
X151085000Y-95385000D01*
X142105000Y-97200000D02*
X141105000Y-97200000D01*
X141105000Y-95840000D02*
X142105000Y-95840000D01*
X156165000Y-94480000D02*
X156165000Y-93480000D01*
X157525000Y-93480000D02*
X157525000Y-94480000D01*
X154350000Y-89035000D02*
X154350000Y-90035000D01*
X152990000Y-90035000D02*
X152990000Y-89035000D01*
X143645000Y-116160000D02*
X144645000Y-116160000D01*
X144645000Y-117520000D02*
X143645000Y-117520000D01*
X142830000Y-115435000D02*
X142830000Y-114435000D01*
X144190000Y-114435000D02*
X144190000Y-115435000D01*
X150540000Y-116975000D02*
X150540000Y-117975000D01*
X149180000Y-117975000D02*
X149180000Y-116975000D01*
X156075000Y-88945000D02*
X155075000Y-88945000D01*
X155075000Y-87585000D02*
X156075000Y-87585000D01*
X150540000Y-120150000D02*
X150540000Y-121150000D01*
X149180000Y-121150000D02*
X149180000Y-120150000D01*
X148000000Y-108085000D02*
X148000000Y-109085000D01*
X146640000Y-109085000D02*
X146640000Y-108085000D01*
X146640000Y-106545000D02*
X146640000Y-105545000D01*
X148000000Y-105545000D02*
X148000000Y-106545000D01*
X154985000Y-101735000D02*
X154985000Y-102735000D01*
X153625000Y-102735000D02*
X153625000Y-101735000D01*
X157525000Y-130945000D02*
X157525000Y-131945000D01*
X156165000Y-131945000D02*
X156165000Y-130945000D01*
X151175000Y-136660000D02*
X151175000Y-137660000D01*
X149815000Y-137660000D02*
X149815000Y-136660000D01*
X146820000Y-126955000D02*
X147820000Y-126955000D01*
X147820000Y-128315000D02*
X146820000Y-128315000D01*
X151085000Y-113530000D02*
X151085000Y-112530000D01*
X152445000Y-112530000D02*
X152445000Y-113530000D01*
X152355000Y-113530000D02*
X152355000Y-112530000D01*
X153715000Y-112530000D02*
X153715000Y-113530000D01*
X153625000Y-113530000D02*
X153625000Y-112530000D01*
X154985000Y-112530000D02*
X154985000Y-113530000D01*
X156837000Y-113075000D02*
X155837000Y-113075000D01*
X155837000Y-111715000D02*
X156837000Y-111715000D01*
X153451982Y-53157568D02*
G75*
G02X153453000Y-58682000I-1171982J-2762432D01*
G01*
X150351705Y-58217753D02*
G75*
G02X150352000Y-53622000I1928295J2297753D01*
G01*
X145720000Y-51010000D02*
X149586000Y-51010000D01*
X153975000Y-51010000D02*
X157840000Y-51010000D01*
X145720000Y-60830000D02*
X149586000Y-60830000D01*
X153975000Y-60830000D02*
X157840000Y-60830000D01*
X145720000Y-51010000D02*
X145720000Y-52595000D01*
X145720000Y-54245000D02*
X145720000Y-55095000D01*
X145720000Y-56745000D02*
X145720000Y-57595000D01*
X145720000Y-59245000D02*
X145720000Y-60830000D01*
X157840000Y-51010000D02*
X157840000Y-60830000D01*
X143728018Y-70032432D02*
G75*
G02X143727000Y-64508000I1171982J2762432D01*
G01*
X146828295Y-64972247D02*
G75*
G02X146828000Y-69568000I-1928295J-2297753D01*
G01*
X151460000Y-72180000D02*
X147594000Y-72180000D01*
X143205000Y-72180000D02*
X139340000Y-72180000D01*
X151460000Y-62360000D02*
X147594000Y-62360000D01*
X143205000Y-62360000D02*
X139340000Y-62360000D01*
X151460000Y-72180000D02*
X151460000Y-70595000D01*
X151460000Y-68945000D02*
X151460000Y-68095000D01*
X151460000Y-66445000D02*
X151460000Y-65595000D01*
X151460000Y-63945000D02*
X151460000Y-62360000D01*
X139340000Y-72180000D02*
X139340000Y-62360000D01*
X147538018Y-152582432D02*
G75*
G02X147537000Y-147058000I1171982J2762432D01*
G01*
X150638295Y-147522247D02*
G75*
G02X150638000Y-152118000I-1928295J-2297753D01*
G01*
X155270000Y-154730000D02*
X151404000Y-154730000D01*
X147015000Y-154730000D02*
X143150000Y-154730000D01*
X155270000Y-144910000D02*
X151404000Y-144910000D01*
X147015000Y-144910000D02*
X143150000Y-144910000D01*
X155270000Y-154730000D02*
X155270000Y-153145000D01*
X155270000Y-151495000D02*
X155270000Y-150645000D01*
X155270000Y-148995000D02*
X155270000Y-148145000D01*
X155270000Y-146495000D02*
X155270000Y-144910000D01*
X143150000Y-154730000D02*
X143150000Y-144910000D01*
X139640000Y-77470000D02*
X139640000Y-77530000D01*
X139640000Y-77530000D02*
X144840000Y-77530000D01*
X144840000Y-77530000D02*
X144840000Y-74870000D01*
X144840000Y-74870000D02*
X142240000Y-74870000D01*
X142240000Y-74870000D02*
X142240000Y-77470000D01*
X142240000Y-77470000D02*
X139640000Y-77470000D01*
X139640000Y-76200000D02*
X139640000Y-74870000D01*
X139640000Y-74870000D02*
X140970000Y-74870000D01*
D13*
X140300000Y-108755000D02*
X140350000Y-108755000D01*
X140300000Y-104605000D02*
X140445000Y-104605000D01*
X145450000Y-104605000D02*
X145305000Y-104605000D01*
X145450000Y-108755000D02*
X145305000Y-108755000D01*
X140300000Y-108755000D02*
X140300000Y-104605000D01*
X145450000Y-108755000D02*
X145450000Y-104605000D01*
X140350000Y-108755000D02*
X140350000Y-110155000D01*
X144610000Y-88260000D02*
X144610000Y-88285000D01*
X148760000Y-88260000D02*
X148760000Y-88375000D01*
X148760000Y-97160000D02*
X148760000Y-97045000D01*
X144610000Y-97160000D02*
X144610000Y-97045000D01*
X144610000Y-88260000D02*
X148760000Y-88260000D01*
X144610000Y-97160000D02*
X148760000Y-97160000D01*
X144610000Y-88285000D02*
X143235000Y-88285000D01*
X148595000Y-121115000D02*
X148570000Y-121115000D01*
X148595000Y-125265000D02*
X148480000Y-125265000D01*
X139695000Y-125265000D02*
X139810000Y-125265000D01*
X139695000Y-121115000D02*
X139810000Y-121115000D01*
X148595000Y-121115000D02*
X148595000Y-125265000D01*
X139695000Y-121115000D02*
X139695000Y-125265000D01*
X148570000Y-121115000D02*
X148570000Y-119740000D01*
D12*
X233269524Y-92825000D02*
X233269524Y-91895000D01*
X233269524Y-89665000D02*
X233269524Y-90595000D01*
X233269524Y-89665000D02*
X231109524Y-89665000D01*
X233269524Y-92825000D02*
X231809524Y-92825000D01*
D13*
X150325000Y-125725000D02*
X150325000Y-125750000D01*
X154475000Y-125725000D02*
X154475000Y-125840000D01*
X154475000Y-134625000D02*
X154475000Y-134510000D01*
X150325000Y-134625000D02*
X150325000Y-134510000D01*
X150325000Y-125725000D02*
X154475000Y-125725000D01*
X150325000Y-134625000D02*
X154475000Y-134625000D01*
X150325000Y-125750000D02*
X148950000Y-125750000D01*
X157485000Y-105875000D02*
X157460000Y-105875000D01*
X157485000Y-110025000D02*
X157370000Y-110025000D01*
X148585000Y-110025000D02*
X148700000Y-110025000D01*
X148585000Y-105875000D02*
X148700000Y-105875000D01*
X157485000Y-105875000D02*
X157485000Y-110025000D01*
X148585000Y-105875000D02*
X148585000Y-110025000D01*
X157460000Y-105875000D02*
X157460000Y-104500000D01*
X154170000Y-137795000D02*
X153170000Y-137795000D01*
X154170000Y-137795000D02*
G75*
G03X154170000Y-137795000I-500000J0D01*
G01*
X155260990Y-138325330D02*
G75*
G03X155170000Y-137045000I-1590990J530330D01*
G01*
X152079010Y-137264670D02*
G75*
G03X152170000Y-138545000I1590990J-530330D01*
G01*
X154670000Y-139795000D02*
X155170000Y-139795000D01*
X155170000Y-139795000D02*
X155170000Y-136795000D01*
X152170000Y-136795000D02*
X152170000Y-139795000D01*
X152170000Y-139795000D02*
X152670000Y-139795000D01*
X153420000Y-135795000D02*
X153920000Y-135795000D01*
X152400000Y-123325000D02*
X152400000Y-124325000D01*
X152900000Y-123825000D02*
G75*
G03X152900000Y-123825000I-500000J0D01*
G01*
X152930330Y-122234010D02*
G75*
G03X151650000Y-122325000I-530330J-1590990D01*
G01*
X151869670Y-125415990D02*
G75*
G03X153150000Y-125325000I530330J1590990D01*
G01*
X154400000Y-122825000D02*
X154400000Y-122325000D01*
X154400000Y-122325000D02*
X151400000Y-122325000D01*
X151400000Y-125325000D02*
X154400000Y-125325000D01*
X154400000Y-125325000D02*
X154400000Y-124825000D01*
X150400000Y-124075000D02*
X150400000Y-123575000D01*
X151265000Y-100965000D02*
X152265000Y-100965000D01*
X152265000Y-100965000D02*
G75*
G03X152265000Y-100965000I-500000J0D01*
G01*
X150174010Y-100434670D02*
G75*
G03X150265000Y-101715000I1590990J-530330D01*
G01*
X153355990Y-101495330D02*
G75*
G03X153265000Y-100215000I-1590990J530330D01*
G01*
X150765000Y-98965000D02*
X150265000Y-98965000D01*
X150265000Y-98965000D02*
X150265000Y-101965000D01*
X153265000Y-101965000D02*
X153265000Y-98965000D01*
X153265000Y-98965000D02*
X152765000Y-98965000D01*
X152015000Y-102965000D02*
X151515000Y-102965000D01*
X146050000Y-134485000D02*
X146050000Y-133485000D01*
X146550000Y-133985000D02*
G75*
G03X146550000Y-133985000I-500000J0D01*
G01*
X145519670Y-135575990D02*
G75*
G03X146800000Y-135485000I530330J1590990D01*
G01*
X146580330Y-132394010D02*
G75*
G03X145300000Y-132485000I-530330J-1590990D01*
G01*
X144050000Y-134985000D02*
X144050000Y-135485000D01*
X144050000Y-135485000D02*
X147050000Y-135485000D01*
X147050000Y-132485000D02*
X144050000Y-132485000D01*
X144050000Y-132485000D02*
X144050000Y-132985000D01*
X148050000Y-133735000D02*
X148050000Y-134235000D01*
X153805000Y-95250000D02*
X154805000Y-95250000D01*
X154805000Y-95250000D02*
G75*
G03X154805000Y-95250000I-500000J0D01*
G01*
X152714010Y-94719670D02*
G75*
G03X152805000Y-96000000I1590990J-530330D01*
G01*
X155895990Y-95780330D02*
G75*
G03X155805000Y-94500000I-1590990J530330D01*
G01*
X153305000Y-93250000D02*
X152805000Y-93250000D01*
X152805000Y-93250000D02*
X152805000Y-96250000D01*
X155805000Y-96250000D02*
X155805000Y-93250000D01*
X155805000Y-93250000D02*
X155305000Y-93250000D01*
X154555000Y-97250000D02*
X154055000Y-97250000D01*
D14*
X156017572Y-50645190D02*
X155767572Y-50407095D01*
X155589000Y-50645190D02*
X155589000Y-50145190D01*
X155874715Y-50145190D01*
X155946143Y-50169000D01*
X155981858Y-50192810D01*
X156017572Y-50240429D01*
X156017572Y-50311857D01*
X155981858Y-50359476D01*
X155946143Y-50383286D01*
X155874715Y-50407095D01*
X155589000Y-50407095D01*
X156231858Y-50145190D02*
X156481858Y-50645190D01*
X156731858Y-50145190D01*
X157374715Y-50645190D02*
X156946143Y-50645190D01*
X157160429Y-50645190D02*
X157160429Y-50145190D01*
X157089000Y-50216619D01*
X157017572Y-50264238D01*
X156946143Y-50288048D01*
X140708071Y-114954810D02*
X140636643Y-114931000D01*
X140565214Y-114883381D01*
X140458071Y-114811952D01*
X140386643Y-114788143D01*
X140315214Y-114788143D01*
X140350929Y-114907190D02*
X140279500Y-114883381D01*
X140208071Y-114835762D01*
X140172357Y-114740524D01*
X140172357Y-114573857D01*
X140208071Y-114478619D01*
X140279500Y-114431000D01*
X140350929Y-114407190D01*
X140493786Y-114407190D01*
X140565214Y-114431000D01*
X140636643Y-114478619D01*
X140672357Y-114573857D01*
X140672357Y-114740524D01*
X140636643Y-114835762D01*
X140565214Y-114883381D01*
X140493786Y-114907190D01*
X140350929Y-114907190D01*
X140958071Y-114454810D02*
X140993785Y-114431000D01*
X141065214Y-114407190D01*
X141243785Y-114407190D01*
X141315214Y-114431000D01*
X141350928Y-114454810D01*
X141386643Y-114502429D01*
X141386643Y-114550048D01*
X141350928Y-114621476D01*
X140922357Y-114907190D01*
X141386643Y-114907190D01*
X147371571Y-111313500D02*
X147395381Y-111349214D01*
X147419190Y-111456357D01*
X147419190Y-111527786D01*
X147395381Y-111634929D01*
X147347762Y-111706357D01*
X147300143Y-111742072D01*
X147204905Y-111777786D01*
X147133476Y-111777786D01*
X147038238Y-111742072D01*
X146990619Y-111706357D01*
X146943000Y-111634929D01*
X146919190Y-111527786D01*
X146919190Y-111456357D01*
X146943000Y-111349214D01*
X146966810Y-111313500D01*
X147419190Y-110599214D02*
X147419190Y-111027786D01*
X147419190Y-110813500D02*
X146919190Y-110813500D01*
X146990619Y-110884929D01*
X147038238Y-110956357D01*
X147062048Y-111027786D01*
X139321000Y-103366071D02*
X139285286Y-103389881D01*
X139178143Y-103413690D01*
X139106714Y-103413690D01*
X138999571Y-103389881D01*
X138928143Y-103342262D01*
X138892428Y-103294643D01*
X138856714Y-103199405D01*
X138856714Y-103127976D01*
X138892428Y-103032738D01*
X138928143Y-102985119D01*
X138999571Y-102937500D01*
X139106714Y-102913690D01*
X139178143Y-102913690D01*
X139285286Y-102937500D01*
X139321000Y-102961310D01*
X139606714Y-102961310D02*
X139642428Y-102937500D01*
X139713857Y-102913690D01*
X139892428Y-102913690D01*
X139963857Y-102937500D01*
X139999571Y-102961310D01*
X140035286Y-103008929D01*
X140035286Y-103056548D01*
X139999571Y-103127976D01*
X139571000Y-103413690D01*
X140035286Y-103413690D01*
X153481500Y-88062571D02*
X153445786Y-88086381D01*
X153338643Y-88110190D01*
X153267214Y-88110190D01*
X153160071Y-88086381D01*
X153088643Y-88038762D01*
X153052928Y-87991143D01*
X153017214Y-87895905D01*
X153017214Y-87824476D01*
X153052928Y-87729238D01*
X153088643Y-87681619D01*
X153160071Y-87634000D01*
X153267214Y-87610190D01*
X153338643Y-87610190D01*
X153445786Y-87634000D01*
X153481500Y-87657810D01*
X153731500Y-87610190D02*
X154195786Y-87610190D01*
X153945786Y-87800667D01*
X154052928Y-87800667D01*
X154124357Y-87824476D01*
X154160071Y-87848286D01*
X154195786Y-87895905D01*
X154195786Y-88014952D01*
X154160071Y-88062571D01*
X154124357Y-88086381D01*
X154052928Y-88110190D01*
X153838643Y-88110190D01*
X153767214Y-88086381D01*
X153731500Y-88062571D01*
X155563071Y-99439000D02*
X155586881Y-99474714D01*
X155610690Y-99581857D01*
X155610690Y-99653286D01*
X155586881Y-99760429D01*
X155539262Y-99831857D01*
X155491643Y-99867572D01*
X155396405Y-99903286D01*
X155324976Y-99903286D01*
X155229738Y-99867572D01*
X155182119Y-99831857D01*
X155134500Y-99760429D01*
X155110690Y-99653286D01*
X155110690Y-99581857D01*
X155134500Y-99474714D01*
X155158310Y-99439000D01*
X155277357Y-98796143D02*
X155610690Y-98796143D01*
X155086881Y-98974714D02*
X155444024Y-99153286D01*
X155444024Y-98689000D01*
X155753571Y-90930000D02*
X155777381Y-90965714D01*
X155801190Y-91072857D01*
X155801190Y-91144286D01*
X155777381Y-91251429D01*
X155729762Y-91322857D01*
X155682143Y-91358572D01*
X155586905Y-91394286D01*
X155515476Y-91394286D01*
X155420238Y-91358572D01*
X155372619Y-91322857D01*
X155325000Y-91251429D01*
X155301190Y-91144286D01*
X155301190Y-91072857D01*
X155325000Y-90965714D01*
X155348810Y-90930000D01*
X155301190Y-90251429D02*
X155301190Y-90608572D01*
X155539286Y-90644286D01*
X155515476Y-90608572D01*
X155491667Y-90537143D01*
X155491667Y-90358572D01*
X155515476Y-90287143D01*
X155539286Y-90251429D01*
X155586905Y-90215714D01*
X155705952Y-90215714D01*
X155753571Y-90251429D01*
X155777381Y-90287143D01*
X155801190Y-90358572D01*
X155801190Y-90537143D01*
X155777381Y-90608572D01*
X155753571Y-90644286D01*
X158230071Y-123378500D02*
X158253881Y-123414214D01*
X158277690Y-123521357D01*
X158277690Y-123592786D01*
X158253881Y-123699929D01*
X158206262Y-123771357D01*
X158158643Y-123807072D01*
X158063405Y-123842786D01*
X157991976Y-123842786D01*
X157896738Y-123807072D01*
X157849119Y-123771357D01*
X157801500Y-123699929D01*
X157777690Y-123592786D01*
X157777690Y-123521357D01*
X157801500Y-123414214D01*
X157825310Y-123378500D01*
X157777690Y-122735643D02*
X157777690Y-122878500D01*
X157801500Y-122949929D01*
X157825310Y-122985643D01*
X157896738Y-123057072D01*
X157991976Y-123092786D01*
X158182452Y-123092786D01*
X158230071Y-123057072D01*
X158253881Y-123021357D01*
X158277690Y-122949929D01*
X158277690Y-122807072D01*
X158253881Y-122735643D01*
X158230071Y-122699929D01*
X158182452Y-122664214D01*
X158063405Y-122664214D01*
X158015786Y-122699929D01*
X157991976Y-122735643D01*
X157968167Y-122807072D01*
X157968167Y-122949929D01*
X157991976Y-123021357D01*
X158015786Y-123057072D01*
X158063405Y-123092786D01*
X155690071Y-115695000D02*
X155713881Y-115730714D01*
X155737690Y-115837857D01*
X155737690Y-115909286D01*
X155713881Y-116016429D01*
X155666262Y-116087857D01*
X155618643Y-116123572D01*
X155523405Y-116159286D01*
X155451976Y-116159286D01*
X155356738Y-116123572D01*
X155309119Y-116087857D01*
X155261500Y-116016429D01*
X155237690Y-115909286D01*
X155237690Y-115837857D01*
X155261500Y-115730714D01*
X155285310Y-115695000D01*
X155237690Y-115445000D02*
X155237690Y-114945000D01*
X155737690Y-115266429D01*
X148465000Y-111708571D02*
X148429286Y-111732381D01*
X148322143Y-111756190D01*
X148250714Y-111756190D01*
X148143571Y-111732381D01*
X148072143Y-111684762D01*
X148036428Y-111637143D01*
X148000714Y-111541905D01*
X148000714Y-111470476D01*
X148036428Y-111375238D01*
X148072143Y-111327619D01*
X148143571Y-111280000D01*
X148250714Y-111256190D01*
X148322143Y-111256190D01*
X148429286Y-111280000D01*
X148465000Y-111303810D01*
X148893571Y-111470476D02*
X148822143Y-111446667D01*
X148786428Y-111422857D01*
X148750714Y-111375238D01*
X148750714Y-111351429D01*
X148786428Y-111303810D01*
X148822143Y-111280000D01*
X148893571Y-111256190D01*
X149036428Y-111256190D01*
X149107857Y-111280000D01*
X149143571Y-111303810D01*
X149179286Y-111351429D01*
X149179286Y-111375238D01*
X149143571Y-111422857D01*
X149107857Y-111446667D01*
X149036428Y-111470476D01*
X148893571Y-111470476D01*
X148822143Y-111494286D01*
X148786428Y-111518095D01*
X148750714Y-111565714D01*
X148750714Y-111660952D01*
X148786428Y-111708571D01*
X148822143Y-111732381D01*
X148893571Y-111756190D01*
X149036428Y-111756190D01*
X149107857Y-111732381D01*
X149143571Y-111708571D01*
X149179286Y-111660952D01*
X149179286Y-111565714D01*
X149143571Y-111518095D01*
X149107857Y-111494286D01*
X149036428Y-111470476D01*
X158230071Y-119505000D02*
X158253881Y-119540714D01*
X158277690Y-119647857D01*
X158277690Y-119719286D01*
X158253881Y-119826429D01*
X158206262Y-119897857D01*
X158158643Y-119933572D01*
X158063405Y-119969286D01*
X157991976Y-119969286D01*
X157896738Y-119933572D01*
X157849119Y-119897857D01*
X157801500Y-119826429D01*
X157777690Y-119719286D01*
X157777690Y-119647857D01*
X157801500Y-119540714D01*
X157825310Y-119505000D01*
X158277690Y-119147857D02*
X158277690Y-119005000D01*
X158253881Y-118933572D01*
X158230071Y-118897857D01*
X158158643Y-118826429D01*
X158063405Y-118790714D01*
X157872929Y-118790714D01*
X157825310Y-118826429D01*
X157801500Y-118862143D01*
X157777690Y-118933572D01*
X157777690Y-119076429D01*
X157801500Y-119147857D01*
X157825310Y-119183572D01*
X157872929Y-119219286D01*
X157991976Y-119219286D01*
X158039595Y-119183572D01*
X158063405Y-119147857D01*
X158087214Y-119076429D01*
X158087214Y-118933572D01*
X158063405Y-118862143D01*
X158039595Y-118826429D01*
X157991976Y-118790714D01*
X151917857Y-78982071D02*
X151882143Y-79005881D01*
X151775000Y-79029690D01*
X151703571Y-79029690D01*
X151596428Y-79005881D01*
X151525000Y-78958262D01*
X151489285Y-78910643D01*
X151453571Y-78815405D01*
X151453571Y-78743976D01*
X151489285Y-78648738D01*
X151525000Y-78601119D01*
X151596428Y-78553500D01*
X151703571Y-78529690D01*
X151775000Y-78529690D01*
X151882143Y-78553500D01*
X151917857Y-78577310D01*
X152632143Y-79029690D02*
X152203571Y-79029690D01*
X152417857Y-79029690D02*
X152417857Y-78529690D01*
X152346428Y-78601119D01*
X152275000Y-78648738D01*
X152203571Y-78672548D01*
X153096429Y-78529690D02*
X153167857Y-78529690D01*
X153239286Y-78553500D01*
X153275000Y-78577310D01*
X153310714Y-78624929D01*
X153346429Y-78720167D01*
X153346429Y-78839214D01*
X153310714Y-78934452D01*
X153275000Y-78982071D01*
X153239286Y-79005881D01*
X153167857Y-79029690D01*
X153096429Y-79029690D01*
X153025000Y-79005881D01*
X152989286Y-78982071D01*
X152953571Y-78934452D01*
X152917857Y-78839214D01*
X152917857Y-78720167D01*
X152953571Y-78624929D01*
X152989286Y-78577310D01*
X153025000Y-78553500D01*
X153096429Y-78529690D01*
X153150071Y-92620643D02*
X153173881Y-92656357D01*
X153197690Y-92763500D01*
X153197690Y-92834929D01*
X153173881Y-92942072D01*
X153126262Y-93013500D01*
X153078643Y-93049215D01*
X152983405Y-93084929D01*
X152911976Y-93084929D01*
X152816738Y-93049215D01*
X152769119Y-93013500D01*
X152721500Y-92942072D01*
X152697690Y-92834929D01*
X152697690Y-92763500D01*
X152721500Y-92656357D01*
X152745310Y-92620643D01*
X153197690Y-91906357D02*
X153197690Y-92334929D01*
X153197690Y-92120643D02*
X152697690Y-92120643D01*
X152769119Y-92192072D01*
X152816738Y-92263500D01*
X152840548Y-92334929D01*
X153197690Y-91192071D02*
X153197690Y-91620643D01*
X153197690Y-91406357D02*
X152697690Y-91406357D01*
X152769119Y-91477786D01*
X152816738Y-91549214D01*
X152840548Y-91620643D01*
X141821357Y-136068571D02*
X141785643Y-136092381D01*
X141678500Y-136116190D01*
X141607071Y-136116190D01*
X141499928Y-136092381D01*
X141428500Y-136044762D01*
X141392785Y-135997143D01*
X141357071Y-135901905D01*
X141357071Y-135830476D01*
X141392785Y-135735238D01*
X141428500Y-135687619D01*
X141499928Y-135640000D01*
X141607071Y-135616190D01*
X141678500Y-135616190D01*
X141785643Y-135640000D01*
X141821357Y-135663810D01*
X142535643Y-136116190D02*
X142107071Y-136116190D01*
X142321357Y-136116190D02*
X142321357Y-135616190D01*
X142249928Y-135687619D01*
X142178500Y-135735238D01*
X142107071Y-135759048D01*
X142821357Y-135663810D02*
X142857071Y-135640000D01*
X142928500Y-135616190D01*
X143107071Y-135616190D01*
X143178500Y-135640000D01*
X143214214Y-135663810D01*
X143249929Y-135711429D01*
X143249929Y-135759048D01*
X143214214Y-135830476D01*
X142785643Y-136116190D01*
X143249929Y-136116190D01*
X139281357Y-136005071D02*
X139245643Y-136028881D01*
X139138500Y-136052690D01*
X139067071Y-136052690D01*
X138959928Y-136028881D01*
X138888500Y-135981262D01*
X138852785Y-135933643D01*
X138817071Y-135838405D01*
X138817071Y-135766976D01*
X138852785Y-135671738D01*
X138888500Y-135624119D01*
X138959928Y-135576500D01*
X139067071Y-135552690D01*
X139138500Y-135552690D01*
X139245643Y-135576500D01*
X139281357Y-135600310D01*
X139995643Y-136052690D02*
X139567071Y-136052690D01*
X139781357Y-136052690D02*
X139781357Y-135552690D01*
X139709928Y-135624119D01*
X139638500Y-135671738D01*
X139567071Y-135695548D01*
X140245643Y-135552690D02*
X140709929Y-135552690D01*
X140459929Y-135743167D01*
X140567071Y-135743167D01*
X140638500Y-135766976D01*
X140674214Y-135790786D01*
X140709929Y-135838405D01*
X140709929Y-135957452D01*
X140674214Y-136005071D01*
X140638500Y-136028881D01*
X140567071Y-136052690D01*
X140352786Y-136052690D01*
X140281357Y-136028881D01*
X140245643Y-136005071D01*
X155372571Y-118020643D02*
X155396381Y-118056357D01*
X155420190Y-118163500D01*
X155420190Y-118234929D01*
X155396381Y-118342072D01*
X155348762Y-118413500D01*
X155301143Y-118449215D01*
X155205905Y-118484929D01*
X155134476Y-118484929D01*
X155039238Y-118449215D01*
X154991619Y-118413500D01*
X154944000Y-118342072D01*
X154920190Y-118234929D01*
X154920190Y-118163500D01*
X154944000Y-118056357D01*
X154967810Y-118020643D01*
X155420190Y-117306357D02*
X155420190Y-117734929D01*
X155420190Y-117520643D02*
X154920190Y-117520643D01*
X154991619Y-117592072D01*
X155039238Y-117663500D01*
X155063048Y-117734929D01*
X155086857Y-116663500D02*
X155420190Y-116663500D01*
X154896381Y-116842071D02*
X155253524Y-117020643D01*
X155253524Y-116556357D01*
X140196071Y-89699643D02*
X140219881Y-89735357D01*
X140243690Y-89842500D01*
X140243690Y-89913929D01*
X140219881Y-90021072D01*
X140172262Y-90092500D01*
X140124643Y-90128215D01*
X140029405Y-90163929D01*
X139957976Y-90163929D01*
X139862738Y-90128215D01*
X139815119Y-90092500D01*
X139767500Y-90021072D01*
X139743690Y-89913929D01*
X139743690Y-89842500D01*
X139767500Y-89735357D01*
X139791310Y-89699643D01*
X140243690Y-88985357D02*
X140243690Y-89413929D01*
X140243690Y-89199643D02*
X139743690Y-89199643D01*
X139815119Y-89271072D01*
X139862738Y-89342500D01*
X139886548Y-89413929D01*
X139743690Y-88306786D02*
X139743690Y-88663929D01*
X139981786Y-88699643D01*
X139957976Y-88663929D01*
X139934167Y-88592500D01*
X139934167Y-88413929D01*
X139957976Y-88342500D01*
X139981786Y-88306786D01*
X140029405Y-88271071D01*
X140148452Y-88271071D01*
X140196071Y-88306786D01*
X140219881Y-88342500D01*
X140243690Y-88413929D01*
X140243690Y-88592500D01*
X140219881Y-88663929D01*
X140196071Y-88699643D01*
X148171357Y-97841571D02*
X148135643Y-97865381D01*
X148028500Y-97889190D01*
X147957071Y-97889190D01*
X147849928Y-97865381D01*
X147778500Y-97817762D01*
X147742785Y-97770143D01*
X147707071Y-97674905D01*
X147707071Y-97603476D01*
X147742785Y-97508238D01*
X147778500Y-97460619D01*
X147849928Y-97413000D01*
X147957071Y-97389190D01*
X148028500Y-97389190D01*
X148135643Y-97413000D01*
X148171357Y-97436810D01*
X148885643Y-97889190D02*
X148457071Y-97889190D01*
X148671357Y-97889190D02*
X148671357Y-97389190D01*
X148599928Y-97460619D01*
X148528500Y-97508238D01*
X148457071Y-97532048D01*
X149528500Y-97389190D02*
X149385643Y-97389190D01*
X149314214Y-97413000D01*
X149278500Y-97436810D01*
X149207071Y-97508238D01*
X149171357Y-97603476D01*
X149171357Y-97793952D01*
X149207071Y-97841571D01*
X149242786Y-97865381D01*
X149314214Y-97889190D01*
X149457071Y-97889190D01*
X149528500Y-97865381D01*
X149564214Y-97841571D01*
X149599929Y-97793952D01*
X149599929Y-97674905D01*
X149564214Y-97627286D01*
X149528500Y-97603476D01*
X149457071Y-97579667D01*
X149314214Y-97579667D01*
X149242786Y-97603476D01*
X149207071Y-97627286D01*
X149171357Y-97674905D01*
X156870857Y-137021071D02*
X156835143Y-137044881D01*
X156728000Y-137068690D01*
X156656571Y-137068690D01*
X156549428Y-137044881D01*
X156478000Y-136997262D01*
X156442285Y-136949643D01*
X156406571Y-136854405D01*
X156406571Y-136782976D01*
X156442285Y-136687738D01*
X156478000Y-136640119D01*
X156549428Y-136592500D01*
X156656571Y-136568690D01*
X156728000Y-136568690D01*
X156835143Y-136592500D01*
X156870857Y-136616310D01*
X157585143Y-137068690D02*
X157156571Y-137068690D01*
X157370857Y-137068690D02*
X157370857Y-136568690D01*
X157299428Y-136640119D01*
X157228000Y-136687738D01*
X157156571Y-136711548D01*
X157835143Y-136568690D02*
X158335143Y-136568690D01*
X158013714Y-137068690D01*
X158230071Y-127545643D02*
X158253881Y-127581357D01*
X158277690Y-127688500D01*
X158277690Y-127759929D01*
X158253881Y-127867072D01*
X158206262Y-127938500D01*
X158158643Y-127974215D01*
X158063405Y-128009929D01*
X157991976Y-128009929D01*
X157896738Y-127974215D01*
X157849119Y-127938500D01*
X157801500Y-127867072D01*
X157777690Y-127759929D01*
X157777690Y-127688500D01*
X157801500Y-127581357D01*
X157825310Y-127545643D01*
X158277690Y-126831357D02*
X158277690Y-127259929D01*
X158277690Y-127045643D02*
X157777690Y-127045643D01*
X157849119Y-127117072D01*
X157896738Y-127188500D01*
X157920548Y-127259929D01*
X157991976Y-126402786D02*
X157968167Y-126474214D01*
X157944357Y-126509929D01*
X157896738Y-126545643D01*
X157872929Y-126545643D01*
X157825310Y-126509929D01*
X157801500Y-126474214D01*
X157777690Y-126402786D01*
X157777690Y-126259929D01*
X157801500Y-126188500D01*
X157825310Y-126152786D01*
X157872929Y-126117071D01*
X157896738Y-126117071D01*
X157944357Y-126152786D01*
X157968167Y-126188500D01*
X157991976Y-126259929D01*
X157991976Y-126402786D01*
X158015786Y-126474214D01*
X158039595Y-126509929D01*
X158087214Y-126545643D01*
X158182452Y-126545643D01*
X158230071Y-126509929D01*
X158253881Y-126474214D01*
X158277690Y-126402786D01*
X158277690Y-126259929D01*
X158253881Y-126188500D01*
X158230071Y-126152786D01*
X158182452Y-126117071D01*
X158087214Y-126117071D01*
X158039595Y-126152786D01*
X158015786Y-126188500D01*
X157991976Y-126259929D01*
X139146428Y-100238690D02*
X139146428Y-99738690D01*
X139325000Y-99738690D01*
X139432143Y-99762500D01*
X139503571Y-99810119D01*
X139539286Y-99857738D01*
X139575000Y-99952976D01*
X139575000Y-100024405D01*
X139539286Y-100119643D01*
X139503571Y-100167262D01*
X139432143Y-100214881D01*
X139325000Y-100238690D01*
X139146428Y-100238690D01*
X140289286Y-100238690D02*
X139860714Y-100238690D01*
X140075000Y-100238690D02*
X140075000Y-99738690D01*
X140003571Y-99810119D01*
X139932143Y-99857738D01*
X139860714Y-99881548D01*
X139209928Y-92809190D02*
X139209928Y-92309190D01*
X139388500Y-92309190D01*
X139495643Y-92333000D01*
X139567071Y-92380619D01*
X139602786Y-92428238D01*
X139638500Y-92523476D01*
X139638500Y-92594905D01*
X139602786Y-92690143D01*
X139567071Y-92737762D01*
X139495643Y-92785381D01*
X139388500Y-92809190D01*
X139209928Y-92809190D01*
X139924214Y-92356810D02*
X139959928Y-92333000D01*
X140031357Y-92309190D01*
X140209928Y-92309190D01*
X140281357Y-92333000D01*
X140317071Y-92356810D01*
X140352786Y-92404429D01*
X140352786Y-92452048D01*
X140317071Y-92523476D01*
X139888500Y-92809190D01*
X140352786Y-92809190D01*
X153904190Y-72068500D02*
X154261333Y-72068500D01*
X154332762Y-72104214D01*
X154380381Y-72175643D01*
X154404190Y-72282786D01*
X154404190Y-72354214D01*
X154404190Y-71318499D02*
X154404190Y-71747071D01*
X154404190Y-71532785D02*
X153904190Y-71532785D01*
X153975619Y-71604214D01*
X154023238Y-71675642D01*
X154047048Y-71747071D01*
X154031190Y-66861500D02*
X154388333Y-66861500D01*
X154459762Y-66897214D01*
X154507381Y-66968643D01*
X154531190Y-67075786D01*
X154531190Y-67147214D01*
X154078810Y-66540071D02*
X154055000Y-66504357D01*
X154031190Y-66432928D01*
X154031190Y-66254357D01*
X154055000Y-66182928D01*
X154078810Y-66147214D01*
X154126429Y-66111499D01*
X154174048Y-66111499D01*
X154245476Y-66147214D01*
X154531190Y-66575785D01*
X154531190Y-66111499D01*
X140720000Y-154031190D02*
X140720000Y-154388333D01*
X140684286Y-154459762D01*
X140612857Y-154507381D01*
X140505714Y-154531190D01*
X140434286Y-154531190D01*
X141005715Y-154031190D02*
X141470001Y-154031190D01*
X141220001Y-154221667D01*
X141327143Y-154221667D01*
X141398572Y-154245476D01*
X141434286Y-154269286D01*
X141470001Y-154316905D01*
X141470001Y-154435952D01*
X141434286Y-154483571D01*
X141398572Y-154507381D01*
X141327143Y-154531190D01*
X141112858Y-154531190D01*
X141041429Y-154507381D01*
X141005715Y-154483571D01*
X146474690Y-141029500D02*
X146831833Y-141029500D01*
X146903262Y-141065214D01*
X146950881Y-141136643D01*
X146974690Y-141243786D01*
X146974690Y-141315214D01*
X146641357Y-140350928D02*
X146974690Y-140350928D01*
X146450881Y-140529499D02*
X146808024Y-140708071D01*
X146808024Y-140243785D01*
X138854690Y-141220000D02*
X139211833Y-141220000D01*
X139283262Y-141255714D01*
X139330881Y-141327143D01*
X139354690Y-141434286D01*
X139354690Y-141505714D01*
X138854690Y-140505714D02*
X138854690Y-140862857D01*
X139092786Y-140898571D01*
X139068976Y-140862857D01*
X139045167Y-140791428D01*
X139045167Y-140612857D01*
X139068976Y-140541428D01*
X139092786Y-140505714D01*
X139140405Y-140469999D01*
X139259452Y-140469999D01*
X139307071Y-140505714D01*
X139330881Y-140541428D01*
X139354690Y-140612857D01*
X139354690Y-140791428D01*
X139330881Y-140862857D01*
X139307071Y-140898571D01*
X151721310Y-142565429D02*
X151697500Y-142636857D01*
X151649881Y-142708286D01*
X151578452Y-142815429D01*
X151554643Y-142886857D01*
X151554643Y-142958286D01*
X151673690Y-142922571D02*
X151649881Y-142994000D01*
X151602262Y-143065429D01*
X151507024Y-143101143D01*
X151340357Y-143101143D01*
X151245119Y-143065429D01*
X151197500Y-142994000D01*
X151173690Y-142922571D01*
X151173690Y-142779714D01*
X151197500Y-142708286D01*
X151245119Y-142636857D01*
X151340357Y-142601143D01*
X151507024Y-142601143D01*
X151602262Y-142636857D01*
X151649881Y-142708286D01*
X151673690Y-142779714D01*
X151673690Y-142922571D01*
X151673690Y-141886857D02*
X151673690Y-142315429D01*
X151673690Y-142101143D02*
X151173690Y-142101143D01*
X151245119Y-142172572D01*
X151292738Y-142244000D01*
X151316548Y-142315429D01*
X147058071Y-114954810D02*
X146986643Y-114931000D01*
X146915214Y-114883381D01*
X146808071Y-114811952D01*
X146736643Y-114788143D01*
X146665214Y-114788143D01*
X146700929Y-114907190D02*
X146629500Y-114883381D01*
X146558071Y-114835762D01*
X146522357Y-114740524D01*
X146522357Y-114573857D01*
X146558071Y-114478619D01*
X146629500Y-114431000D01*
X146700929Y-114407190D01*
X146843786Y-114407190D01*
X146915214Y-114431000D01*
X146986643Y-114478619D01*
X147022357Y-114573857D01*
X147022357Y-114740524D01*
X146986643Y-114835762D01*
X146915214Y-114883381D01*
X146843786Y-114907190D01*
X146700929Y-114907190D01*
X147272357Y-114407190D02*
X147736643Y-114407190D01*
X147486643Y-114597667D01*
X147593785Y-114597667D01*
X147665214Y-114621476D01*
X147700928Y-114645286D01*
X147736643Y-114692905D01*
X147736643Y-114811952D01*
X147700928Y-114859571D01*
X147665214Y-114883381D01*
X147593785Y-114907190D01*
X147379500Y-114907190D01*
X147308071Y-114883381D01*
X147272357Y-114859571D01*
X154832810Y-120403929D02*
X154809000Y-120475357D01*
X154761381Y-120546786D01*
X154689952Y-120653929D01*
X154666143Y-120725357D01*
X154666143Y-120796786D01*
X154785190Y-120761071D02*
X154761381Y-120832500D01*
X154713762Y-120903929D01*
X154618524Y-120939643D01*
X154451857Y-120939643D01*
X154356619Y-120903929D01*
X154309000Y-120832500D01*
X154285190Y-120761071D01*
X154285190Y-120618214D01*
X154309000Y-120546786D01*
X154356619Y-120475357D01*
X154451857Y-120439643D01*
X154618524Y-120439643D01*
X154713762Y-120475357D01*
X154761381Y-120546786D01*
X154785190Y-120618214D01*
X154785190Y-120761071D01*
X154451857Y-119796786D02*
X154785190Y-119796786D01*
X154261381Y-119975357D02*
X154618524Y-120153929D01*
X154618524Y-119689643D01*
X144899071Y-131718810D02*
X144827643Y-131695000D01*
X144756214Y-131647381D01*
X144649071Y-131575952D01*
X144577643Y-131552143D01*
X144506214Y-131552143D01*
X144541929Y-131671190D02*
X144470500Y-131647381D01*
X144399071Y-131599762D01*
X144363357Y-131504524D01*
X144363357Y-131337857D01*
X144399071Y-131242619D01*
X144470500Y-131195000D01*
X144541929Y-131171190D01*
X144684786Y-131171190D01*
X144756214Y-131195000D01*
X144827643Y-131242619D01*
X144863357Y-131337857D01*
X144863357Y-131504524D01*
X144827643Y-131599762D01*
X144756214Y-131647381D01*
X144684786Y-131671190D01*
X144541929Y-131671190D01*
X145541928Y-131171190D02*
X145184785Y-131171190D01*
X145149071Y-131409286D01*
X145184785Y-131385476D01*
X145256214Y-131361667D01*
X145434785Y-131361667D01*
X145506214Y-131385476D01*
X145541928Y-131409286D01*
X145577643Y-131456905D01*
X145577643Y-131575952D01*
X145541928Y-131623571D01*
X145506214Y-131647381D01*
X145434785Y-131671190D01*
X145256214Y-131671190D01*
X145184785Y-131647381D01*
X145149071Y-131623571D01*
X156436190Y-48321500D02*
X156198095Y-48571500D01*
X156436190Y-48750072D02*
X155936190Y-48750072D01*
X155936190Y-48464357D01*
X155960000Y-48392929D01*
X155983810Y-48357214D01*
X156031429Y-48321500D01*
X156102857Y-48321500D01*
X156150476Y-48357214D01*
X156174286Y-48392929D01*
X156198095Y-48464357D01*
X156198095Y-48750072D01*
X156436190Y-47607214D02*
X156436190Y-48035786D01*
X156436190Y-47821500D02*
X155936190Y-47821500D01*
X156007619Y-47892929D01*
X156055238Y-47964357D01*
X156079048Y-48035786D01*
X156436190Y-40701500D02*
X156198095Y-40951500D01*
X156436190Y-41130072D02*
X155936190Y-41130072D01*
X155936190Y-40844357D01*
X155960000Y-40772929D01*
X155983810Y-40737214D01*
X156031429Y-40701500D01*
X156102857Y-40701500D01*
X156150476Y-40737214D01*
X156174286Y-40772929D01*
X156198095Y-40844357D01*
X156198095Y-41130072D01*
X155983810Y-40415786D02*
X155960000Y-40380072D01*
X155936190Y-40308643D01*
X155936190Y-40130072D01*
X155960000Y-40058643D01*
X155983810Y-40022929D01*
X156031429Y-39987214D01*
X156079048Y-39987214D01*
X156150476Y-40022929D01*
X156436190Y-40451500D01*
X156436190Y-39987214D01*
X148465000Y-103858190D02*
X148215000Y-103620095D01*
X148036428Y-103858190D02*
X148036428Y-103358190D01*
X148322143Y-103358190D01*
X148393571Y-103382000D01*
X148429286Y-103405810D01*
X148465000Y-103453429D01*
X148465000Y-103524857D01*
X148429286Y-103572476D01*
X148393571Y-103596286D01*
X148322143Y-103620095D01*
X148036428Y-103620095D01*
X148715000Y-103358190D02*
X149179286Y-103358190D01*
X148929286Y-103548667D01*
X149036428Y-103548667D01*
X149107857Y-103572476D01*
X149143571Y-103596286D01*
X149179286Y-103643905D01*
X149179286Y-103762952D01*
X149143571Y-103810571D01*
X149107857Y-103834381D01*
X149036428Y-103858190D01*
X148822143Y-103858190D01*
X148750714Y-103834381D01*
X148715000Y-103810571D01*
X154878500Y-45882690D02*
X154628500Y-45644595D01*
X154449928Y-45882690D02*
X154449928Y-45382690D01*
X154735643Y-45382690D01*
X154807071Y-45406500D01*
X154842786Y-45430310D01*
X154878500Y-45477929D01*
X154878500Y-45549357D01*
X154842786Y-45596976D01*
X154807071Y-45620786D01*
X154735643Y-45644595D01*
X154449928Y-45644595D01*
X155521357Y-45549357D02*
X155521357Y-45882690D01*
X155342786Y-45358881D02*
X155164214Y-45716024D01*
X155628500Y-45716024D01*
X142051500Y-54836190D02*
X141801500Y-54598095D01*
X141622928Y-54836190D02*
X141622928Y-54336190D01*
X141908643Y-54336190D01*
X141980071Y-54360000D01*
X142015786Y-54383810D01*
X142051500Y-54431429D01*
X142051500Y-54502857D01*
X142015786Y-54550476D01*
X141980071Y-54574286D01*
X141908643Y-54598095D01*
X141622928Y-54598095D01*
X142730071Y-54336190D02*
X142372928Y-54336190D01*
X142337214Y-54574286D01*
X142372928Y-54550476D01*
X142444357Y-54526667D01*
X142622928Y-54526667D01*
X142694357Y-54550476D01*
X142730071Y-54574286D01*
X142765786Y-54621905D01*
X142765786Y-54740952D01*
X142730071Y-54788571D01*
X142694357Y-54812381D01*
X142622928Y-54836190D01*
X142444357Y-54836190D01*
X142372928Y-54812381D01*
X142337214Y-54788571D01*
X147258500Y-77696190D02*
X147008500Y-77458095D01*
X146829928Y-77696190D02*
X146829928Y-77196190D01*
X147115643Y-77196190D01*
X147187071Y-77220000D01*
X147222786Y-77243810D01*
X147258500Y-77291429D01*
X147258500Y-77362857D01*
X147222786Y-77410476D01*
X147187071Y-77434286D01*
X147115643Y-77458095D01*
X146829928Y-77458095D01*
X147901357Y-77196190D02*
X147758500Y-77196190D01*
X147687071Y-77220000D01*
X147651357Y-77243810D01*
X147579928Y-77315238D01*
X147544214Y-77410476D01*
X147544214Y-77600952D01*
X147579928Y-77648571D01*
X147615643Y-77672381D01*
X147687071Y-77696190D01*
X147829928Y-77696190D01*
X147901357Y-77672381D01*
X147937071Y-77648571D01*
X147972786Y-77600952D01*
X147972786Y-77481905D01*
X147937071Y-77434286D01*
X147901357Y-77410476D01*
X147829928Y-77386667D01*
X147687071Y-77386667D01*
X147615643Y-77410476D01*
X147579928Y-77434286D01*
X147544214Y-77481905D01*
X153418000Y-74013190D02*
X153168000Y-73775095D01*
X152989428Y-74013190D02*
X152989428Y-73513190D01*
X153275143Y-73513190D01*
X153346571Y-73537000D01*
X153382286Y-73560810D01*
X153418000Y-73608429D01*
X153418000Y-73679857D01*
X153382286Y-73727476D01*
X153346571Y-73751286D01*
X153275143Y-73775095D01*
X152989428Y-73775095D01*
X153668000Y-73513190D02*
X154168000Y-73513190D01*
X153846571Y-74013190D01*
X149006690Y-74801000D02*
X148768595Y-75051000D01*
X149006690Y-75229572D02*
X148506690Y-75229572D01*
X148506690Y-74943857D01*
X148530500Y-74872429D01*
X148554310Y-74836714D01*
X148601929Y-74801000D01*
X148673357Y-74801000D01*
X148720976Y-74836714D01*
X148744786Y-74872429D01*
X148768595Y-74943857D01*
X148768595Y-75229572D01*
X148720976Y-74372429D02*
X148697167Y-74443857D01*
X148673357Y-74479572D01*
X148625738Y-74515286D01*
X148601929Y-74515286D01*
X148554310Y-74479572D01*
X148530500Y-74443857D01*
X148506690Y-74372429D01*
X148506690Y-74229572D01*
X148530500Y-74158143D01*
X148554310Y-74122429D01*
X148601929Y-74086714D01*
X148625738Y-74086714D01*
X148673357Y-74122429D01*
X148697167Y-74158143D01*
X148720976Y-74229572D01*
X148720976Y-74372429D01*
X148744786Y-74443857D01*
X148768595Y-74479572D01*
X148816214Y-74515286D01*
X148911452Y-74515286D01*
X148959071Y-74479572D01*
X148982881Y-74443857D01*
X149006690Y-74372429D01*
X149006690Y-74229572D01*
X148982881Y-74158143D01*
X148959071Y-74122429D01*
X148911452Y-74086714D01*
X148816214Y-74086714D01*
X148768595Y-74122429D01*
X148744786Y-74158143D01*
X148720976Y-74229572D01*
X157642690Y-144905000D02*
X157404595Y-145155000D01*
X157642690Y-145333572D02*
X157142690Y-145333572D01*
X157142690Y-145047857D01*
X157166500Y-144976429D01*
X157190310Y-144940714D01*
X157237929Y-144905000D01*
X157309357Y-144905000D01*
X157356976Y-144940714D01*
X157380786Y-144976429D01*
X157404595Y-145047857D01*
X157404595Y-145333572D01*
X157642690Y-144547857D02*
X157642690Y-144405000D01*
X157618881Y-144333572D01*
X157595071Y-144297857D01*
X157523643Y-144226429D01*
X157428405Y-144190714D01*
X157237929Y-144190714D01*
X157190310Y-144226429D01*
X157166500Y-144262143D01*
X157142690Y-144333572D01*
X157142690Y-144476429D01*
X157166500Y-144547857D01*
X157190310Y-144583572D01*
X157237929Y-144619286D01*
X157356976Y-144619286D01*
X157404595Y-144583572D01*
X157428405Y-144547857D01*
X157452214Y-144476429D01*
X157452214Y-144333572D01*
X157428405Y-144262143D01*
X157404595Y-144226429D01*
X157356976Y-144190714D01*
X156426357Y-141323190D02*
X156176357Y-141085095D01*
X155997785Y-141323190D02*
X155997785Y-140823190D01*
X156283500Y-140823190D01*
X156354928Y-140847000D01*
X156390643Y-140870810D01*
X156426357Y-140918429D01*
X156426357Y-140989857D01*
X156390643Y-141037476D01*
X156354928Y-141061286D01*
X156283500Y-141085095D01*
X155997785Y-141085095D01*
X157140643Y-141323190D02*
X156712071Y-141323190D01*
X156926357Y-141323190D02*
X156926357Y-140823190D01*
X156854928Y-140894619D01*
X156783500Y-140942238D01*
X156712071Y-140966048D01*
X157604929Y-140823190D02*
X157676357Y-140823190D01*
X157747786Y-140847000D01*
X157783500Y-140870810D01*
X157819214Y-140918429D01*
X157854929Y-141013667D01*
X157854929Y-141132714D01*
X157819214Y-141227952D01*
X157783500Y-141275571D01*
X157747786Y-141299381D01*
X157676357Y-141323190D01*
X157604929Y-141323190D01*
X157533500Y-141299381D01*
X157497786Y-141275571D01*
X157462071Y-141227952D01*
X157426357Y-141132714D01*
X157426357Y-141013667D01*
X157462071Y-140918429D01*
X157497786Y-140870810D01*
X157533500Y-140847000D01*
X157604929Y-140823190D01*
X149260690Y-102082143D02*
X149022595Y-102332143D01*
X149260690Y-102510715D02*
X148760690Y-102510715D01*
X148760690Y-102225000D01*
X148784500Y-102153572D01*
X148808310Y-102117857D01*
X148855929Y-102082143D01*
X148927357Y-102082143D01*
X148974976Y-102117857D01*
X148998786Y-102153572D01*
X149022595Y-102225000D01*
X149022595Y-102510715D01*
X149260690Y-101367857D02*
X149260690Y-101796429D01*
X149260690Y-101582143D02*
X148760690Y-101582143D01*
X148832119Y-101653572D01*
X148879738Y-101725000D01*
X148903548Y-101796429D01*
X149260690Y-100653571D02*
X149260690Y-101082143D01*
X149260690Y-100867857D02*
X148760690Y-100867857D01*
X148832119Y-100939286D01*
X148879738Y-101010714D01*
X148903548Y-101082143D01*
X150838357Y-97635190D02*
X150588357Y-97397095D01*
X150409785Y-97635190D02*
X150409785Y-97135190D01*
X150695500Y-97135190D01*
X150766928Y-97159000D01*
X150802643Y-97182810D01*
X150838357Y-97230429D01*
X150838357Y-97301857D01*
X150802643Y-97349476D01*
X150766928Y-97373286D01*
X150695500Y-97397095D01*
X150409785Y-97397095D01*
X151552643Y-97635190D02*
X151124071Y-97635190D01*
X151338357Y-97635190D02*
X151338357Y-97135190D01*
X151266928Y-97206619D01*
X151195500Y-97254238D01*
X151124071Y-97278048D01*
X151838357Y-97182810D02*
X151874071Y-97159000D01*
X151945500Y-97135190D01*
X152124071Y-97135190D01*
X152195500Y-97159000D01*
X152231214Y-97182810D01*
X152266929Y-97230429D01*
X152266929Y-97278048D01*
X152231214Y-97349476D01*
X151802643Y-97635190D01*
X152266929Y-97635190D01*
X141249857Y-97825690D02*
X140999857Y-97587595D01*
X140821285Y-97825690D02*
X140821285Y-97325690D01*
X141107000Y-97325690D01*
X141178428Y-97349500D01*
X141214143Y-97373310D01*
X141249857Y-97420929D01*
X141249857Y-97492357D01*
X141214143Y-97539976D01*
X141178428Y-97563786D01*
X141107000Y-97587595D01*
X140821285Y-97587595D01*
X141964143Y-97825690D02*
X141535571Y-97825690D01*
X141749857Y-97825690D02*
X141749857Y-97325690D01*
X141678428Y-97397119D01*
X141607000Y-97444738D01*
X141535571Y-97468548D01*
X142214143Y-97325690D02*
X142678429Y-97325690D01*
X142428429Y-97516167D01*
X142535571Y-97516167D01*
X142607000Y-97539976D01*
X142642714Y-97563786D01*
X142678429Y-97611405D01*
X142678429Y-97730452D01*
X142642714Y-97778071D01*
X142607000Y-97801881D01*
X142535571Y-97825690D01*
X142321286Y-97825690D01*
X142249857Y-97801881D01*
X142214143Y-97778071D01*
X158150690Y-94462143D02*
X157912595Y-94712143D01*
X158150690Y-94890715D02*
X157650690Y-94890715D01*
X157650690Y-94605000D01*
X157674500Y-94533572D01*
X157698310Y-94497857D01*
X157745929Y-94462143D01*
X157817357Y-94462143D01*
X157864976Y-94497857D01*
X157888786Y-94533572D01*
X157912595Y-94605000D01*
X157912595Y-94890715D01*
X158150690Y-93747857D02*
X158150690Y-94176429D01*
X158150690Y-93962143D02*
X157650690Y-93962143D01*
X157722119Y-94033572D01*
X157769738Y-94105000D01*
X157793548Y-94176429D01*
X157817357Y-93105000D02*
X158150690Y-93105000D01*
X157626881Y-93283571D02*
X157984024Y-93462143D01*
X157984024Y-92997857D01*
X150838357Y-87665690D02*
X150588357Y-87427595D01*
X150409785Y-87665690D02*
X150409785Y-87165690D01*
X150695500Y-87165690D01*
X150766928Y-87189500D01*
X150802643Y-87213310D01*
X150838357Y-87260929D01*
X150838357Y-87332357D01*
X150802643Y-87379976D01*
X150766928Y-87403786D01*
X150695500Y-87427595D01*
X150409785Y-87427595D01*
X151552643Y-87665690D02*
X151124071Y-87665690D01*
X151338357Y-87665690D02*
X151338357Y-87165690D01*
X151266928Y-87237119D01*
X151195500Y-87284738D01*
X151124071Y-87308548D01*
X152231214Y-87165690D02*
X151874071Y-87165690D01*
X151838357Y-87403786D01*
X151874071Y-87379976D01*
X151945500Y-87356167D01*
X152124071Y-87356167D01*
X152195500Y-87379976D01*
X152231214Y-87403786D01*
X152266929Y-87451405D01*
X152266929Y-87570452D01*
X152231214Y-87618071D01*
X152195500Y-87641881D01*
X152124071Y-87665690D01*
X151945500Y-87665690D01*
X151874071Y-87641881D01*
X151838357Y-87618071D01*
X143662857Y-118209190D02*
X143412857Y-117971095D01*
X143234285Y-118209190D02*
X143234285Y-117709190D01*
X143520000Y-117709190D01*
X143591428Y-117733000D01*
X143627143Y-117756810D01*
X143662857Y-117804429D01*
X143662857Y-117875857D01*
X143627143Y-117923476D01*
X143591428Y-117947286D01*
X143520000Y-117971095D01*
X143234285Y-117971095D01*
X144377143Y-118209190D02*
X143948571Y-118209190D01*
X144162857Y-118209190D02*
X144162857Y-117709190D01*
X144091428Y-117780619D01*
X144020000Y-117828238D01*
X143948571Y-117852048D01*
X145020000Y-117709190D02*
X144877143Y-117709190D01*
X144805714Y-117733000D01*
X144770000Y-117756810D01*
X144698571Y-117828238D01*
X144662857Y-117923476D01*
X144662857Y-118113952D01*
X144698571Y-118161571D01*
X144734286Y-118185381D01*
X144805714Y-118209190D01*
X144948571Y-118209190D01*
X145020000Y-118185381D01*
X145055714Y-118161571D01*
X145091429Y-118113952D01*
X145091429Y-117994905D01*
X145055714Y-117947286D01*
X145020000Y-117923476D01*
X144948571Y-117899667D01*
X144805714Y-117899667D01*
X144734286Y-117923476D01*
X144698571Y-117947286D01*
X144662857Y-117994905D01*
X143091357Y-113573690D02*
X142841357Y-113335595D01*
X142662785Y-113573690D02*
X142662785Y-113073690D01*
X142948500Y-113073690D01*
X143019928Y-113097500D01*
X143055643Y-113121310D01*
X143091357Y-113168929D01*
X143091357Y-113240357D01*
X143055643Y-113287976D01*
X143019928Y-113311786D01*
X142948500Y-113335595D01*
X142662785Y-113335595D01*
X143805643Y-113573690D02*
X143377071Y-113573690D01*
X143591357Y-113573690D02*
X143591357Y-113073690D01*
X143519928Y-113145119D01*
X143448500Y-113192738D01*
X143377071Y-113216548D01*
X144055643Y-113073690D02*
X144555643Y-113073690D01*
X144234214Y-113573690D01*
X149377857Y-116113690D02*
X149127857Y-115875595D01*
X148949285Y-116113690D02*
X148949285Y-115613690D01*
X149235000Y-115613690D01*
X149306428Y-115637500D01*
X149342143Y-115661310D01*
X149377857Y-115708929D01*
X149377857Y-115780357D01*
X149342143Y-115827976D01*
X149306428Y-115851786D01*
X149235000Y-115875595D01*
X148949285Y-115875595D01*
X150092143Y-116113690D02*
X149663571Y-116113690D01*
X149877857Y-116113690D02*
X149877857Y-115613690D01*
X149806428Y-115685119D01*
X149735000Y-115732738D01*
X149663571Y-115756548D01*
X150520714Y-115827976D02*
X150449286Y-115804167D01*
X150413571Y-115780357D01*
X150377857Y-115732738D01*
X150377857Y-115708929D01*
X150413571Y-115661310D01*
X150449286Y-115637500D01*
X150520714Y-115613690D01*
X150663571Y-115613690D01*
X150735000Y-115637500D01*
X150770714Y-115661310D01*
X150806429Y-115708929D01*
X150806429Y-115732738D01*
X150770714Y-115780357D01*
X150735000Y-115804167D01*
X150663571Y-115827976D01*
X150520714Y-115827976D01*
X150449286Y-115851786D01*
X150413571Y-115875595D01*
X150377857Y-115923214D01*
X150377857Y-116018452D01*
X150413571Y-116066071D01*
X150449286Y-116089881D01*
X150520714Y-116113690D01*
X150663571Y-116113690D01*
X150735000Y-116089881D01*
X150770714Y-116066071D01*
X150806429Y-116018452D01*
X150806429Y-115923214D01*
X150770714Y-115875595D01*
X150735000Y-115851786D01*
X150663571Y-115827976D01*
X155092857Y-87221190D02*
X154842857Y-86983095D01*
X154664285Y-87221190D02*
X154664285Y-86721190D01*
X154950000Y-86721190D01*
X155021428Y-86745000D01*
X155057143Y-86768810D01*
X155092857Y-86816429D01*
X155092857Y-86887857D01*
X155057143Y-86935476D01*
X155021428Y-86959286D01*
X154950000Y-86983095D01*
X154664285Y-86983095D01*
X155807143Y-87221190D02*
X155378571Y-87221190D01*
X155592857Y-87221190D02*
X155592857Y-86721190D01*
X155521428Y-86792619D01*
X155450000Y-86840238D01*
X155378571Y-86864048D01*
X156164286Y-87221190D02*
X156307143Y-87221190D01*
X156378571Y-87197381D01*
X156414286Y-87173571D01*
X156485714Y-87102143D01*
X156521429Y-87006905D01*
X156521429Y-86816429D01*
X156485714Y-86768810D01*
X156450000Y-86745000D01*
X156378571Y-86721190D01*
X156235714Y-86721190D01*
X156164286Y-86745000D01*
X156128571Y-86768810D01*
X156092857Y-86816429D01*
X156092857Y-86935476D01*
X156128571Y-86983095D01*
X156164286Y-87006905D01*
X156235714Y-87030714D01*
X156378571Y-87030714D01*
X156450000Y-87006905D01*
X156485714Y-86983095D01*
X156521429Y-86935476D01*
X149250857Y-119288690D02*
X149000857Y-119050595D01*
X148822285Y-119288690D02*
X148822285Y-118788690D01*
X149108000Y-118788690D01*
X149179428Y-118812500D01*
X149215143Y-118836310D01*
X149250857Y-118883929D01*
X149250857Y-118955357D01*
X149215143Y-119002976D01*
X149179428Y-119026786D01*
X149108000Y-119050595D01*
X148822285Y-119050595D01*
X149536571Y-118836310D02*
X149572285Y-118812500D01*
X149643714Y-118788690D01*
X149822285Y-118788690D01*
X149893714Y-118812500D01*
X149929428Y-118836310D01*
X149965143Y-118883929D01*
X149965143Y-118931548D01*
X149929428Y-119002976D01*
X149500857Y-119288690D01*
X149965143Y-119288690D01*
X150429429Y-118788690D02*
X150500857Y-118788690D01*
X150572286Y-118812500D01*
X150608000Y-118836310D01*
X150643714Y-118883929D01*
X150679429Y-118979167D01*
X150679429Y-119098214D01*
X150643714Y-119193452D01*
X150608000Y-119241071D01*
X150572286Y-119264881D01*
X150500857Y-119288690D01*
X150429429Y-119288690D01*
X150358000Y-119264881D01*
X150322286Y-119241071D01*
X150286571Y-119193452D01*
X150250857Y-119098214D01*
X150250857Y-118979167D01*
X150286571Y-118883929D01*
X150322286Y-118836310D01*
X150358000Y-118812500D01*
X150429429Y-118788690D01*
X146276190Y-109194143D02*
X146038095Y-109444143D01*
X146276190Y-109622715D02*
X145776190Y-109622715D01*
X145776190Y-109337000D01*
X145800000Y-109265572D01*
X145823810Y-109229857D01*
X145871429Y-109194143D01*
X145942857Y-109194143D01*
X145990476Y-109229857D01*
X146014286Y-109265572D01*
X146038095Y-109337000D01*
X146038095Y-109622715D01*
X145823810Y-108908429D02*
X145800000Y-108872715D01*
X145776190Y-108801286D01*
X145776190Y-108622715D01*
X145800000Y-108551286D01*
X145823810Y-108515572D01*
X145871429Y-108479857D01*
X145919048Y-108479857D01*
X145990476Y-108515572D01*
X146276190Y-108944143D01*
X146276190Y-108479857D01*
X146276190Y-107765571D02*
X146276190Y-108194143D01*
X146276190Y-107979857D02*
X145776190Y-107979857D01*
X145847619Y-108051286D01*
X145895238Y-108122714D01*
X145919048Y-108194143D01*
X146276190Y-106590643D02*
X146038095Y-106840643D01*
X146276190Y-107019215D02*
X145776190Y-107019215D01*
X145776190Y-106733500D01*
X145800000Y-106662072D01*
X145823810Y-106626357D01*
X145871429Y-106590643D01*
X145942857Y-106590643D01*
X145990476Y-106626357D01*
X146014286Y-106662072D01*
X146038095Y-106733500D01*
X146038095Y-107019215D01*
X145823810Y-106304929D02*
X145800000Y-106269215D01*
X145776190Y-106197786D01*
X145776190Y-106019215D01*
X145800000Y-105947786D01*
X145823810Y-105912072D01*
X145871429Y-105876357D01*
X145919048Y-105876357D01*
X145990476Y-105912072D01*
X146276190Y-106340643D01*
X146276190Y-105876357D01*
X145823810Y-105590643D02*
X145800000Y-105554929D01*
X145776190Y-105483500D01*
X145776190Y-105304929D01*
X145800000Y-105233500D01*
X145823810Y-105197786D01*
X145871429Y-105162071D01*
X145919048Y-105162071D01*
X145990476Y-105197786D01*
X146276190Y-105626357D01*
X146276190Y-105162071D01*
X153949857Y-100746690D02*
X153699857Y-100508595D01*
X153521285Y-100746690D02*
X153521285Y-100246690D01*
X153807000Y-100246690D01*
X153878428Y-100270500D01*
X153914143Y-100294310D01*
X153949857Y-100341929D01*
X153949857Y-100413357D01*
X153914143Y-100460976D01*
X153878428Y-100484786D01*
X153807000Y-100508595D01*
X153521285Y-100508595D01*
X154235571Y-100294310D02*
X154271285Y-100270500D01*
X154342714Y-100246690D01*
X154521285Y-100246690D01*
X154592714Y-100270500D01*
X154628428Y-100294310D01*
X154664143Y-100341929D01*
X154664143Y-100389548D01*
X154628428Y-100460976D01*
X154199857Y-100746690D01*
X154664143Y-100746690D01*
X154914143Y-100246690D02*
X155378429Y-100246690D01*
X155128429Y-100437167D01*
X155235571Y-100437167D01*
X155307000Y-100460976D01*
X155342714Y-100484786D01*
X155378429Y-100532405D01*
X155378429Y-100651452D01*
X155342714Y-100699071D01*
X155307000Y-100722881D01*
X155235571Y-100746690D01*
X155021286Y-100746690D01*
X154949857Y-100722881D01*
X154914143Y-100699071D01*
X158214190Y-131800143D02*
X157976095Y-132050143D01*
X158214190Y-132228715D02*
X157714190Y-132228715D01*
X157714190Y-131943000D01*
X157738000Y-131871572D01*
X157761810Y-131835857D01*
X157809429Y-131800143D01*
X157880857Y-131800143D01*
X157928476Y-131835857D01*
X157952286Y-131871572D01*
X157976095Y-131943000D01*
X157976095Y-132228715D01*
X157761810Y-131514429D02*
X157738000Y-131478715D01*
X157714190Y-131407286D01*
X157714190Y-131228715D01*
X157738000Y-131157286D01*
X157761810Y-131121572D01*
X157809429Y-131085857D01*
X157857048Y-131085857D01*
X157928476Y-131121572D01*
X158214190Y-131550143D01*
X158214190Y-131085857D01*
X157880857Y-130443000D02*
X158214190Y-130443000D01*
X157690381Y-130621571D02*
X158047524Y-130800143D01*
X158047524Y-130335857D01*
X149271190Y-137642143D02*
X149033095Y-137892143D01*
X149271190Y-138070715D02*
X148771190Y-138070715D01*
X148771190Y-137785000D01*
X148795000Y-137713572D01*
X148818810Y-137677857D01*
X148866429Y-137642143D01*
X148937857Y-137642143D01*
X148985476Y-137677857D01*
X149009286Y-137713572D01*
X149033095Y-137785000D01*
X149033095Y-138070715D01*
X148818810Y-137356429D02*
X148795000Y-137320715D01*
X148771190Y-137249286D01*
X148771190Y-137070715D01*
X148795000Y-136999286D01*
X148818810Y-136963572D01*
X148866429Y-136927857D01*
X148914048Y-136927857D01*
X148985476Y-136963572D01*
X149271190Y-137392143D01*
X149271190Y-136927857D01*
X148771190Y-136249286D02*
X148771190Y-136606429D01*
X149009286Y-136642143D01*
X148985476Y-136606429D01*
X148961667Y-136535000D01*
X148961667Y-136356429D01*
X148985476Y-136285000D01*
X149009286Y-136249286D01*
X149056905Y-136213571D01*
X149175952Y-136213571D01*
X149223571Y-136249286D01*
X149247381Y-136285000D01*
X149271190Y-136356429D01*
X149271190Y-136535000D01*
X149247381Y-136606429D01*
X149223571Y-136642143D01*
X144551857Y-127607190D02*
X144301857Y-127369095D01*
X144123285Y-127607190D02*
X144123285Y-127107190D01*
X144409000Y-127107190D01*
X144480428Y-127131000D01*
X144516143Y-127154810D01*
X144551857Y-127202429D01*
X144551857Y-127273857D01*
X144516143Y-127321476D01*
X144480428Y-127345286D01*
X144409000Y-127369095D01*
X144123285Y-127369095D01*
X144837571Y-127154810D02*
X144873285Y-127131000D01*
X144944714Y-127107190D01*
X145123285Y-127107190D01*
X145194714Y-127131000D01*
X145230428Y-127154810D01*
X145266143Y-127202429D01*
X145266143Y-127250048D01*
X145230428Y-127321476D01*
X144801857Y-127607190D01*
X145266143Y-127607190D01*
X145909000Y-127107190D02*
X145766143Y-127107190D01*
X145694714Y-127131000D01*
X145659000Y-127154810D01*
X145587571Y-127226238D01*
X145551857Y-127321476D01*
X145551857Y-127511952D01*
X145587571Y-127559571D01*
X145623286Y-127583381D01*
X145694714Y-127607190D01*
X145837571Y-127607190D01*
X145909000Y-127583381D01*
X145944714Y-127559571D01*
X145980429Y-127511952D01*
X145980429Y-127392905D01*
X145944714Y-127345286D01*
X145909000Y-127321476D01*
X145837571Y-127297667D01*
X145694714Y-127297667D01*
X145623286Y-127321476D01*
X145587571Y-127345286D01*
X145551857Y-127392905D01*
X152118190Y-115861643D02*
X151880095Y-116111643D01*
X152118190Y-116290215D02*
X151618190Y-116290215D01*
X151618190Y-116004500D01*
X151642000Y-115933072D01*
X151665810Y-115897357D01*
X151713429Y-115861643D01*
X151784857Y-115861643D01*
X151832476Y-115897357D01*
X151856286Y-115933072D01*
X151880095Y-116004500D01*
X151880095Y-116290215D01*
X151665810Y-115575929D02*
X151642000Y-115540215D01*
X151618190Y-115468786D01*
X151618190Y-115290215D01*
X151642000Y-115218786D01*
X151665810Y-115183072D01*
X151713429Y-115147357D01*
X151761048Y-115147357D01*
X151832476Y-115183072D01*
X152118190Y-115611643D01*
X152118190Y-115147357D01*
X151618190Y-114897357D02*
X151618190Y-114397357D01*
X152118190Y-114718786D01*
X153324690Y-115925143D02*
X153086595Y-116175143D01*
X153324690Y-116353715D02*
X152824690Y-116353715D01*
X152824690Y-116068000D01*
X152848500Y-115996572D01*
X152872310Y-115960857D01*
X152919929Y-115925143D01*
X152991357Y-115925143D01*
X153038976Y-115960857D01*
X153062786Y-115996572D01*
X153086595Y-116068000D01*
X153086595Y-116353715D01*
X152872310Y-115639429D02*
X152848500Y-115603715D01*
X152824690Y-115532286D01*
X152824690Y-115353715D01*
X152848500Y-115282286D01*
X152872310Y-115246572D01*
X152919929Y-115210857D01*
X152967548Y-115210857D01*
X153038976Y-115246572D01*
X153324690Y-115675143D01*
X153324690Y-115210857D01*
X153038976Y-114782286D02*
X153015167Y-114853714D01*
X152991357Y-114889429D01*
X152943738Y-114925143D01*
X152919929Y-114925143D01*
X152872310Y-114889429D01*
X152848500Y-114853714D01*
X152824690Y-114782286D01*
X152824690Y-114639429D01*
X152848500Y-114568000D01*
X152872310Y-114532286D01*
X152919929Y-114496571D01*
X152943738Y-114496571D01*
X152991357Y-114532286D01*
X153015167Y-114568000D01*
X153038976Y-114639429D01*
X153038976Y-114782286D01*
X153062786Y-114853714D01*
X153086595Y-114889429D01*
X153134214Y-114925143D01*
X153229452Y-114925143D01*
X153277071Y-114889429D01*
X153300881Y-114853714D01*
X153324690Y-114782286D01*
X153324690Y-114639429D01*
X153300881Y-114568000D01*
X153277071Y-114532286D01*
X153229452Y-114496571D01*
X153134214Y-114496571D01*
X153086595Y-114532286D01*
X153062786Y-114568000D01*
X153038976Y-114639429D01*
X154594690Y-115925143D02*
X154356595Y-116175143D01*
X154594690Y-116353715D02*
X154094690Y-116353715D01*
X154094690Y-116068000D01*
X154118500Y-115996572D01*
X154142310Y-115960857D01*
X154189929Y-115925143D01*
X154261357Y-115925143D01*
X154308976Y-115960857D01*
X154332786Y-115996572D01*
X154356595Y-116068000D01*
X154356595Y-116353715D01*
X154142310Y-115639429D02*
X154118500Y-115603715D01*
X154094690Y-115532286D01*
X154094690Y-115353715D01*
X154118500Y-115282286D01*
X154142310Y-115246572D01*
X154189929Y-115210857D01*
X154237548Y-115210857D01*
X154308976Y-115246572D01*
X154594690Y-115675143D01*
X154594690Y-115210857D01*
X154594690Y-114853714D02*
X154594690Y-114710857D01*
X154570881Y-114639429D01*
X154547071Y-114603714D01*
X154475643Y-114532286D01*
X154380405Y-114496571D01*
X154189929Y-114496571D01*
X154142310Y-114532286D01*
X154118500Y-114568000D01*
X154094690Y-114639429D01*
X154094690Y-114782286D01*
X154118500Y-114853714D01*
X154142310Y-114889429D01*
X154189929Y-114925143D01*
X154308976Y-114925143D01*
X154356595Y-114889429D01*
X154380405Y-114853714D01*
X154404214Y-114782286D01*
X154404214Y-114639429D01*
X154380405Y-114568000D01*
X154356595Y-114532286D01*
X154308976Y-114496571D01*
X155854857Y-113891190D02*
X155604857Y-113653095D01*
X155426285Y-113891190D02*
X155426285Y-113391190D01*
X155712000Y-113391190D01*
X155783428Y-113415000D01*
X155819143Y-113438810D01*
X155854857Y-113486429D01*
X155854857Y-113557857D01*
X155819143Y-113605476D01*
X155783428Y-113629286D01*
X155712000Y-113653095D01*
X155426285Y-113653095D01*
X156104857Y-113391190D02*
X156569143Y-113391190D01*
X156319143Y-113581667D01*
X156426285Y-113581667D01*
X156497714Y-113605476D01*
X156533428Y-113629286D01*
X156569143Y-113676905D01*
X156569143Y-113795952D01*
X156533428Y-113843571D01*
X156497714Y-113867381D01*
X156426285Y-113891190D01*
X156212000Y-113891190D01*
X156140571Y-113867381D01*
X156104857Y-113843571D01*
X157033429Y-113391190D02*
X157104857Y-113391190D01*
X157176286Y-113415000D01*
X157212000Y-113438810D01*
X157247714Y-113486429D01*
X157283429Y-113581667D01*
X157283429Y-113700714D01*
X157247714Y-113795952D01*
X157212000Y-113843571D01*
X157176286Y-113867381D01*
X157104857Y-113891190D01*
X157033429Y-113891190D01*
X156962000Y-113867381D01*
X156926286Y-113843571D01*
X156890571Y-113795952D01*
X156854857Y-113700714D01*
X156854857Y-113581667D01*
X156890571Y-113486429D01*
X156926286Y-113438810D01*
X156962000Y-113415000D01*
X157033429Y-113391190D01*
X140904572Y-50137190D02*
X140654572Y-49899095D01*
X140476000Y-50137190D02*
X140476000Y-49637190D01*
X140761715Y-49637190D01*
X140833143Y-49661000D01*
X140868858Y-49684810D01*
X140904572Y-49732429D01*
X140904572Y-49803857D01*
X140868858Y-49851476D01*
X140833143Y-49875286D01*
X140761715Y-49899095D01*
X140476000Y-49899095D01*
X141118858Y-49637190D02*
X141368858Y-50137190D01*
X141618858Y-49637190D01*
X141833143Y-49684810D02*
X141868857Y-49661000D01*
X141940286Y-49637190D01*
X142118857Y-49637190D01*
X142190286Y-49661000D01*
X142226000Y-49684810D01*
X142261715Y-49732429D01*
X142261715Y-49780048D01*
X142226000Y-49851476D01*
X141797429Y-50137190D01*
X142261715Y-50137190D01*
X148080072Y-72997190D02*
X147830072Y-72759095D01*
X147651500Y-72997190D02*
X147651500Y-72497190D01*
X147937215Y-72497190D01*
X148008643Y-72521000D01*
X148044358Y-72544810D01*
X148080072Y-72592429D01*
X148080072Y-72663857D01*
X148044358Y-72711476D01*
X148008643Y-72735286D01*
X147937215Y-72759095D01*
X147651500Y-72759095D01*
X148294358Y-72497190D02*
X148544358Y-72997190D01*
X148794358Y-72497190D01*
X148972929Y-72497190D02*
X149437215Y-72497190D01*
X149187215Y-72687667D01*
X149294357Y-72687667D01*
X149365786Y-72711476D01*
X149401500Y-72735286D01*
X149437215Y-72782905D01*
X149437215Y-72901952D01*
X149401500Y-72949571D01*
X149365786Y-72973381D01*
X149294357Y-72997190D01*
X149080072Y-72997190D01*
X149008643Y-72973381D01*
X148972929Y-72949571D01*
X152652072Y-155610690D02*
X152402072Y-155372595D01*
X152223500Y-155610690D02*
X152223500Y-155110690D01*
X152509215Y-155110690D01*
X152580643Y-155134500D01*
X152616358Y-155158310D01*
X152652072Y-155205929D01*
X152652072Y-155277357D01*
X152616358Y-155324976D01*
X152580643Y-155348786D01*
X152509215Y-155372595D01*
X152223500Y-155372595D01*
X152866358Y-155110690D02*
X153116358Y-155610690D01*
X153366358Y-155110690D01*
X153937786Y-155277357D02*
X153937786Y-155610690D01*
X153759215Y-155086881D02*
X153580643Y-155444024D01*
X154044929Y-155444024D01*
X141240000Y-74072381D02*
X141347143Y-74096190D01*
X141525714Y-74096190D01*
X141597143Y-74072381D01*
X141632857Y-74048571D01*
X141668572Y-74000952D01*
X141668572Y-73953333D01*
X141632857Y-73905714D01*
X141597143Y-73881905D01*
X141525714Y-73858095D01*
X141382857Y-73834286D01*
X141311429Y-73810476D01*
X141275714Y-73786667D01*
X141240000Y-73739048D01*
X141240000Y-73691429D01*
X141275714Y-73643810D01*
X141311429Y-73620000D01*
X141382857Y-73596190D01*
X141561429Y-73596190D01*
X141668572Y-73620000D01*
X141918572Y-73596190D02*
X142097143Y-74096190D01*
X142240000Y-73739048D01*
X142382858Y-74096190D01*
X142561429Y-73596190D01*
X143240001Y-74096190D02*
X142811429Y-74096190D01*
X143025715Y-74096190D02*
X143025715Y-73596190D01*
X142954286Y-73667619D01*
X142882858Y-73715238D01*
X142811429Y-73739048D01*
X139553190Y-107759429D02*
X139957952Y-107759429D01*
X140005571Y-107723714D01*
X140029381Y-107688000D01*
X140053190Y-107616571D01*
X140053190Y-107473714D01*
X140029381Y-107402286D01*
X140005571Y-107366571D01*
X139957952Y-107330857D01*
X139553190Y-107330857D01*
X140053190Y-106580857D02*
X140053190Y-107009429D01*
X140053190Y-106795143D02*
X139553190Y-106795143D01*
X139624619Y-106866572D01*
X139672238Y-106938000D01*
X139696048Y-107009429D01*
X146113571Y-87061190D02*
X146113571Y-87465952D01*
X146149286Y-87513571D01*
X146185000Y-87537381D01*
X146256429Y-87561190D01*
X146399286Y-87561190D01*
X146470714Y-87537381D01*
X146506429Y-87513571D01*
X146542143Y-87465952D01*
X146542143Y-87061190D01*
X146863571Y-87108810D02*
X146899285Y-87085000D01*
X146970714Y-87061190D01*
X147149285Y-87061190D01*
X147220714Y-87085000D01*
X147256428Y-87108810D01*
X147292143Y-87156429D01*
X147292143Y-87204048D01*
X147256428Y-87275476D01*
X146827857Y-87561190D01*
X147292143Y-87561190D01*
X138918190Y-123951929D02*
X139322952Y-123951929D01*
X139370571Y-123916214D01*
X139394381Y-123880500D01*
X139418190Y-123809071D01*
X139418190Y-123666214D01*
X139394381Y-123594786D01*
X139370571Y-123559071D01*
X139322952Y-123523357D01*
X138918190Y-123523357D01*
X138918190Y-123237643D02*
X138918190Y-122773357D01*
X139108667Y-123023357D01*
X139108667Y-122916215D01*
X139132476Y-122844786D01*
X139156286Y-122809072D01*
X139203905Y-122773357D01*
X139322952Y-122773357D01*
X139370571Y-122809072D01*
X139394381Y-122844786D01*
X139418190Y-122916215D01*
X139418190Y-123130500D01*
X139394381Y-123201929D01*
X139370571Y-123237643D01*
X231938095Y-88471190D02*
X231938095Y-88875952D01*
X231973810Y-88923571D01*
X232009524Y-88947381D01*
X232080953Y-88971190D01*
X232223810Y-88971190D01*
X232295238Y-88947381D01*
X232330953Y-88923571D01*
X232366667Y-88875952D01*
X232366667Y-88471190D01*
X233045238Y-88637857D02*
X233045238Y-88971190D01*
X232866667Y-88447381D02*
X232688095Y-88804524D01*
X233152381Y-88804524D01*
X150304571Y-134981190D02*
X150304571Y-135385952D01*
X150340286Y-135433571D01*
X150376000Y-135457381D01*
X150447429Y-135481190D01*
X150590286Y-135481190D01*
X150661714Y-135457381D01*
X150697429Y-135433571D01*
X150733143Y-135385952D01*
X150733143Y-134981190D01*
X151447428Y-134981190D02*
X151090285Y-134981190D01*
X151054571Y-135219286D01*
X151090285Y-135195476D01*
X151161714Y-135171667D01*
X151340285Y-135171667D01*
X151411714Y-135195476D01*
X151447428Y-135219286D01*
X151483143Y-135266905D01*
X151483143Y-135385952D01*
X151447428Y-135433571D01*
X151411714Y-135457381D01*
X151340285Y-135481190D01*
X151161714Y-135481190D01*
X151090285Y-135457381D01*
X151054571Y-135433571D01*
X158136190Y-108521429D02*
X158540952Y-108521429D01*
X158588571Y-108485714D01*
X158612381Y-108450000D01*
X158636190Y-108378571D01*
X158636190Y-108235714D01*
X158612381Y-108164286D01*
X158588571Y-108128571D01*
X158540952Y-108092857D01*
X158136190Y-108092857D01*
X158136190Y-107414286D02*
X158136190Y-107557143D01*
X158160000Y-107628572D01*
X158183810Y-107664286D01*
X158255238Y-107735715D01*
X158350476Y-107771429D01*
X158540952Y-107771429D01*
X158588571Y-107735715D01*
X158612381Y-107700000D01*
X158636190Y-107628572D01*
X158636190Y-107485715D01*
X158612381Y-107414286D01*
X158588571Y-107378572D01*
X158540952Y-107342857D01*
X158421905Y-107342857D01*
X158374286Y-107378572D01*
X158350476Y-107414286D01*
X158326667Y-107485715D01*
X158326667Y-107628572D01*
X158350476Y-107700000D01*
X158374286Y-107735715D01*
X158421905Y-107771429D01*
X156182190Y-139257428D02*
X155944095Y-139507428D01*
X156182190Y-139686000D02*
X155682190Y-139686000D01*
X155682190Y-139400285D01*
X155706000Y-139328857D01*
X155729810Y-139293142D01*
X155777429Y-139257428D01*
X155848857Y-139257428D01*
X155896476Y-139293142D01*
X155920286Y-139328857D01*
X155944095Y-139400285D01*
X155944095Y-139686000D01*
X155682190Y-139043142D02*
X156182190Y-138793142D01*
X155682190Y-138543142D01*
X156182190Y-138257428D02*
X156182190Y-138114571D01*
X156158381Y-138043143D01*
X156134571Y-138007428D01*
X156063143Y-137936000D01*
X155967905Y-137900285D01*
X155777429Y-137900285D01*
X155729810Y-137936000D01*
X155706000Y-137971714D01*
X155682190Y-138043143D01*
X155682190Y-138186000D01*
X155706000Y-138257428D01*
X155729810Y-138293143D01*
X155777429Y-138328857D01*
X155896476Y-138328857D01*
X155944095Y-138293143D01*
X155967905Y-138257428D01*
X155991714Y-138186000D01*
X155991714Y-138043143D01*
X155967905Y-137971714D01*
X155944095Y-137936000D01*
X155896476Y-137900285D01*
X155483690Y-124398428D02*
X155245595Y-124648428D01*
X155483690Y-124827000D02*
X154983690Y-124827000D01*
X154983690Y-124541285D01*
X155007500Y-124469857D01*
X155031310Y-124434142D01*
X155078929Y-124398428D01*
X155150357Y-124398428D01*
X155197976Y-124434142D01*
X155221786Y-124469857D01*
X155245595Y-124541285D01*
X155245595Y-124827000D01*
X154983690Y-124184142D02*
X155483690Y-123934142D01*
X154983690Y-123684142D01*
X155197976Y-123327000D02*
X155174167Y-123398428D01*
X155150357Y-123434143D01*
X155102738Y-123469857D01*
X155078929Y-123469857D01*
X155031310Y-123434143D01*
X155007500Y-123398428D01*
X154983690Y-123327000D01*
X154983690Y-123184143D01*
X155007500Y-123112714D01*
X155031310Y-123077000D01*
X155078929Y-123041285D01*
X155102738Y-123041285D01*
X155150357Y-123077000D01*
X155174167Y-123112714D01*
X155197976Y-123184143D01*
X155197976Y-123327000D01*
X155221786Y-123398428D01*
X155245595Y-123434143D01*
X155293214Y-123469857D01*
X155388452Y-123469857D01*
X155436071Y-123434143D01*
X155459881Y-123398428D01*
X155483690Y-123327000D01*
X155483690Y-123184143D01*
X155459881Y-123112714D01*
X155436071Y-123077000D01*
X155388452Y-123041285D01*
X155293214Y-123041285D01*
X155245595Y-123077000D01*
X155221786Y-123112714D01*
X155197976Y-123184143D01*
X151382072Y-98460690D02*
X151132072Y-98222595D01*
X150953500Y-98460690D02*
X150953500Y-97960690D01*
X151239215Y-97960690D01*
X151310643Y-97984500D01*
X151346358Y-98008310D01*
X151382072Y-98055929D01*
X151382072Y-98127357D01*
X151346358Y-98174976D01*
X151310643Y-98198786D01*
X151239215Y-98222595D01*
X150953500Y-98222595D01*
X151596358Y-97960690D02*
X151846358Y-98460690D01*
X152096358Y-97960690D01*
X152274929Y-97960690D02*
X152774929Y-97960690D01*
X152453500Y-98460690D01*
X145921072Y-136433690D02*
X145671072Y-136195595D01*
X145492500Y-136433690D02*
X145492500Y-135933690D01*
X145778215Y-135933690D01*
X145849643Y-135957500D01*
X145885358Y-135981310D01*
X145921072Y-136028929D01*
X145921072Y-136100357D01*
X145885358Y-136147976D01*
X145849643Y-136171786D01*
X145778215Y-136195595D01*
X145492500Y-136195595D01*
X146135358Y-135933690D02*
X146385358Y-136433690D01*
X146635358Y-135933690D01*
X147206786Y-135933690D02*
X147063929Y-135933690D01*
X146992500Y-135957500D01*
X146956786Y-135981310D01*
X146885357Y-136052738D01*
X146849643Y-136147976D01*
X146849643Y-136338452D01*
X146885357Y-136386071D01*
X146921072Y-136409881D01*
X146992500Y-136433690D01*
X147135357Y-136433690D01*
X147206786Y-136409881D01*
X147242500Y-136386071D01*
X147278215Y-136338452D01*
X147278215Y-136219405D01*
X147242500Y-136171786D01*
X147206786Y-136147976D01*
X147135357Y-136124167D01*
X146992500Y-136124167D01*
X146921072Y-136147976D01*
X146885357Y-136171786D01*
X146849643Y-136219405D01*
X154366572Y-92618690D02*
X154116572Y-92380595D01*
X153938000Y-92618690D02*
X153938000Y-92118690D01*
X154223715Y-92118690D01*
X154295143Y-92142500D01*
X154330858Y-92166310D01*
X154366572Y-92213929D01*
X154366572Y-92285357D01*
X154330858Y-92332976D01*
X154295143Y-92356786D01*
X154223715Y-92380595D01*
X153938000Y-92380595D01*
X154580858Y-92118690D02*
X154830858Y-92618690D01*
X155080858Y-92118690D01*
X155688000Y-92118690D02*
X155330857Y-92118690D01*
X155295143Y-92356786D01*
X155330857Y-92332976D01*
X155402286Y-92309167D01*
X155580857Y-92309167D01*
X155652286Y-92332976D01*
X155688000Y-92356786D01*
X155723715Y-92404405D01*
X155723715Y-92523452D01*
X155688000Y-92571071D01*
X155652286Y-92594881D01*
X155580857Y-92618690D01*
X155402286Y-92618690D01*
X155330857Y-92594881D01*
X155295143Y-92571071D01*
M02*
