G04 #@! TF.FileFunction,Soldermask,Bot*
%FSLAX46Y46*%
G04 Gerber Fmt 4.6, Leading zero omitted, Abs format (unit mm)*
G04 Created by KiCad (PCBNEW 4.0.6) date 07/18/17 20:03:28*
%MOMM*%
%LPD*%
G01*
G04 APERTURE LIST*
%ADD10C,0.100000*%
%ADD11R,1.700000X1.700000*%
%ADD12O,1.700000X1.700000*%
%ADD13R,1.800000X1.800000*%
%ADD14C,1.800000*%
%ADD15R,1.727200X1.727200*%
%ADD16O,1.727200X1.727200*%
%ADD17C,2.000000*%
%ADD18O,3.000000X1.000000*%
%ADD19O,1.500000X3.000000*%
%ADD20O,1.500000X2.100000*%
G04 APERTURE END LIST*
D10*
D11*
X81260000Y-63510000D03*
D12*
X81260000Y-60970000D03*
D11*
X90260000Y-63510000D03*
D12*
X90260000Y-60970000D03*
D13*
X79260000Y-151010000D03*
D14*
X81800000Y-151010000D03*
D13*
X71760000Y-151010000D03*
D14*
X74300000Y-151010000D03*
D15*
X92260000Y-160260000D03*
D16*
X89720000Y-160260000D03*
X92260000Y-157720000D03*
X89720000Y-157720000D03*
X92260000Y-155180000D03*
X89720000Y-155180000D03*
X92260000Y-152640000D03*
X89720000Y-152640000D03*
X92260000Y-150100000D03*
X89720000Y-150100000D03*
X92260000Y-147560000D03*
X89720000Y-147560000D03*
X92260000Y-145020000D03*
X89720000Y-145020000D03*
X92260000Y-142480000D03*
X89720000Y-142480000D03*
D17*
X64260000Y-88510000D03*
X66760000Y-88510000D03*
X69260000Y-88510000D03*
X71560000Y-81010000D03*
X61960000Y-81010000D03*
X64260000Y-68510000D03*
X66760000Y-68510000D03*
X69260000Y-68510000D03*
X71560000Y-61010000D03*
X61960000Y-61010000D03*
X84260000Y-108510000D03*
X86760000Y-108510000D03*
X89260000Y-108510000D03*
X91560000Y-101010000D03*
X81960000Y-101010000D03*
X84260000Y-128510000D03*
X86760000Y-128510000D03*
X89260000Y-128510000D03*
X91560000Y-121010000D03*
X81960000Y-121010000D03*
D18*
X86760000Y-83510000D03*
X86760000Y-75410000D03*
D19*
X82060000Y-81210000D03*
D20*
X91460000Y-81210000D03*
D18*
X66760000Y-103510000D03*
X66760000Y-95410000D03*
D19*
X62060000Y-101210000D03*
D20*
X71460000Y-101210000D03*
D18*
X66760000Y-123510000D03*
X66760000Y-115410000D03*
D19*
X62060000Y-121210000D03*
D20*
X71460000Y-121210000D03*
D18*
X76760000Y-163510000D03*
X76760000Y-155410000D03*
D19*
X72060000Y-161210000D03*
D20*
X81460000Y-161210000D03*
M02*
