M48
;DRILL file {KiCad 4.0.6} date 07/12/17 23:45:25
;FORMAT={-:-/ absolute / inch / decimal}
FMAT,2
INCH,TZ
T1C0.016
T2C0.039
%
G90
G05
M72
T1
X5.47Y-3.795
X5.47Y-4.5
X5.47Y-4.99
X5.48Y-3.535
X5.485Y-5.7
X5.5Y-4.14
X5.5Y-5.0963
X5.5Y-5.2537
X5.505Y-3.625
X5.51Y-3.45
X5.51Y-3.575
X5.51Y-4.64
X5.525Y-4.7437
X5.565Y-5.255
X5.605Y-3.9
X5.615Y-3.495
X5.62Y-5.055
X5.625Y-4.68
X5.625Y-5.42
X5.63Y-4.835
X5.65Y-4.155
X5.665Y-3.465
X5.6687Y-3.55
X5.6687Y-3.6
X5.67Y-4.8
X5.7Y-4.3063
X5.7037Y-4.
X5.705Y-4.4
X5.71Y-5.14
X5.725Y-3.84
X5.735Y-3.65
X5.735Y-4.865
X5.735Y-5.04
X5.74Y-4.61
X5.745Y-4.8
X5.75Y-5.19
X5.76Y-3.525
X5.775Y-5.235
X5.805Y-3.415
X5.805Y-4.45
X5.81Y-4.015
X5.825Y-3.96
X5.825Y-4.6
X5.825Y-4.785
X5.825Y-4.86
X5.825Y-4.905
X5.8295Y-5.025
X5.835Y-3.6
X5.835Y-3.745
X5.865Y-4.18
X5.865Y-5.32
X5.87Y-3.91
X5.88Y-4.
X5.915Y-4.54
X5.925Y-4.31
X5.93Y-4.415
X5.93Y-4.835
X5.945Y-4.59
X5.965Y-4.885
X5.965Y-4.995
X5.97Y-5.28
X5.975Y-4.215
X5.995Y-4.8
X6.005Y-3.7
X6.01Y-5.125
X6.015Y-3.445
X6.015Y-4.975
X6.02Y-3.935
X6.02Y-4.18
X6.02Y-4.82
X6.04Y-4.3
X6.04Y-4.795
X6.0425Y-3.0475
X6.045Y-5.185
X6.065Y-4.93
X6.075Y-4.32
X6.085Y-3.13
X6.09Y-4.04
X6.095Y-4.085
X6.105Y-3.57
X6.11Y-4.74
X6.11Y-4.805
X6.125Y-4.215
X6.13Y-3.715
X6.13Y-5.09
X6.135Y-5.395
X6.175Y-3.6144
X6.175Y-4.0037
X6.175Y-4.515
X6.175Y-4.745
X6.175Y-4.8106
X6.175Y-5.12
X6.18Y-4.095
X6.18Y-4.275
X6.215Y-4.19
X6.22Y-3.52
X6.22Y-4.255
T2
X5.55Y-3.
X5.55Y-5.425
X5.55Y-5.525
X5.55Y-5.625
X5.55Y-5.8
X5.55Y-5.9
X5.55Y-6.
X5.65Y-3.
X5.7Y-2.1031
X5.7Y-2.2016
X5.7Y-2.3
X5.7Y-5.425
X5.7Y-5.525
X5.7Y-5.625
X6.Y-1.65
X6.Y-1.7484
X6.Y-1.8469
X6.Y-2.55
X6.Y-2.6484
X6.Y-2.7469
X6.15Y-2.5
X6.15Y-2.6
X6.15Y-2.7
X6.15Y-2.85
X6.15Y-2.95
X6.15Y-3.05
X6.15Y-5.8
X6.15Y-5.8984
X6.15Y-5.9969
T0
M30
