M48
;DRILL file {KiCad 4.0.6} date 07/18/17 20:03:32
;FORMAT={-:-/ absolute / inch / decimal}
FMAT,2
INCH,TZ
T1C0.016
T2C0.020
T3C0.035
T4C0.039
T5C0.040
T6C0.055
%
G90
G05
M72
T1
X2.402Y-3.6618
X2.4118Y-4.5181
X2.4118Y-5.2169
X2.4906Y-4.2327
X2.5004Y-4.5673
X2.5102Y-4.8724
X2.5102Y-5.2169
X2.5201Y-4.4689
X2.5398Y-3.6618
X2.5496Y-4.6264
X2.5693Y-4.2327
X2.589Y-5.5417
X2.5988Y-4.6264
X2.6185Y-4.4197
X2.6972Y-5.1382
X2.6972Y-5.8272
X2.7071Y-5.1776
X2.7169Y-3.2386
X2.7169Y-5.6618
X2.7366Y-3.337
X2.7465Y-4.6264
X2.7465Y-4.715
X2.7563Y-5.2366
X2.7858Y-2.7661
X2.7957Y-2.6283
X2.7957Y-2.6972
X2.7957Y-5.1382
X2.8055Y-3.7898
X2.8252Y-4.6165
X2.8252Y-5.1776
X2.8252Y-5.5417
X2.835Y-3.7504
X2.8547Y-4.1047
X2.8843Y-4.587
X2.8843Y-5.2366
X2.8941Y-5.0791
X2.9138Y-5.1776
X2.9335Y-3.1598
X2.9335Y-4.0949
X2.9433Y-4.7543
X2.963Y-3.3862
X2.963Y-4.4098
X2.963Y-4.5083
X2.9827Y-3.7012
X2.9827Y-3.8685
X2.9827Y-4.4591
X2.9925Y-2.5988
X2.9925Y-4.2622
X2.9925Y-4.8724
X3.0024Y-2.7268
X3.0024Y-2.9335
X3.022Y-3.2386
X3.0319Y-3.7799
X3.0417Y-5.2169
X3.0516Y-2.9925
X3.0713Y-3.7406
X3.0713Y-3.8291
X3.0909Y-4.026
X3.0909Y-5.6205
X3.1008Y-5.0693
X3.1106Y-3.8685
X3.1205Y-4.5772
X3.1303Y-3.4945
X3.1402Y-3.5634
X3.15Y-3.839
X3.15Y-5.5122
X3.1697Y-3.7898
X3.1697Y-4.1047
X3.1697Y-4.8724
X3.1697Y-5.2957
X3.1795Y-4.5083
X3.1795Y-4.5476
X3.1795Y-5.0594
X3.1795Y-5.1382
X3.1894Y-3.5634
X3.1894Y-4.3114
X3.1992Y-4.4197
X3.2189Y-2.7268
X3.2189Y-5.2563
X3.2386Y-4.8331
X3.2484Y-4.5476
X3.278Y-5.8567
X3.3272Y-2.8744
X3.3469Y-3.5634
X3.4354Y-4.9807
X3.465Y-2.9039
X3.5043Y-5.2465
X3.5732Y-2.9039
X3.5929Y-5.2957
X3.6323Y-2.9335
X3.6421Y-4.1441
X3.6618Y-4.9807
T3
X2.8252Y-5.9453
X2.9252Y-5.9453
X3.1205Y-5.9453
X3.2205Y-5.9453
T4
X2.5299Y-2.6972
X2.5299Y-3.4846
X2.6283Y-2.6972
X2.6283Y-3.4846
X2.7268Y-2.6972
X2.7268Y-3.4846
X3.1992Y-2.4004
X3.1992Y-2.5004
X3.3173Y-4.272
X3.3173Y-5.0594
X3.4157Y-4.272
X3.4157Y-5.0594
X3.5142Y-4.272
X3.5142Y-5.0594
X3.5535Y-2.4004
X3.5535Y-2.5004
T5
X3.5323Y-5.6094
X3.5323Y-5.7094
X3.5323Y-5.8094
X3.5323Y-5.9094
X3.5323Y-6.0094
X3.5323Y-6.1094
X3.5323Y-6.2094
X3.5323Y-6.3094
X3.6323Y-5.6094
X3.6323Y-5.7094
X3.6323Y-5.8094
X3.6323Y-5.9094
X3.6323Y-6.0094
X3.6323Y-6.1094
X3.6323Y-6.2094
X3.6323Y-6.3094
T6
X2.4394Y-2.402
X2.4394Y-3.1894
X2.8173Y-2.402
X2.8173Y-3.1894
X3.2268Y-3.9768
X3.2268Y-4.7642
X3.6047Y-3.9768
X3.6047Y-4.7642
T2
X2.589Y-3.7563G85X2.6677Y-3.7563
G05
X2.589Y-4.0752G85X2.6677Y-4.0752
G05
X2.589Y-4.5437G85X2.6677Y-4.5437
G05
X2.589Y-4.8626G85X2.6677Y-4.8626
G05
X2.9827Y-6.1185G85X3.0614Y-6.1185
G05
X2.9827Y-6.4374G85X3.0614Y-6.4374
G05
X3.3764Y-2.9689G85X3.4551Y-2.9689
G05
X3.3764Y-3.2878G85X3.4551Y-3.2878
G05
T4
X2.4433Y-3.9551G85X2.4433Y-4.0142
G05
X2.4433Y-4.7425G85X2.4433Y-4.8016
G05
X2.8134Y-3.9728G85X2.8134Y-3.9965
G05
X2.8134Y-4.7602G85X2.8134Y-4.7839
G05
X2.837Y-6.3173G85X2.837Y-6.3764
G05
X3.2071Y-6.335G85X3.2071Y-6.3587
G05
X3.2307Y-3.1677G85X3.2307Y-3.2268
G05
X3.6008Y-3.1854G85X3.6008Y-3.2091
G05
T0
M30
