G04 #@! TF.FileFunction,Soldermask,Top*
%FSLAX46Y46*%
G04 Gerber Fmt 4.6, Leading zero omitted, Abs format (unit mm)*
G04 Created by KiCad (PCBNEW 4.0.6) date 07/12/17 23:45:09*
%MOMM*%
%LPD*%
G01*
G04 APERTURE LIST*
%ADD10C,0.100000*%
%ADD11C,6.800000*%
%ADD12C,2.200000*%
%ADD13C,4.400000*%
%ADD14C,3.600000*%
%ADD15R,1.300000X1.200000*%
%ADD16R,3.600000X1.900000*%
%ADD17R,1.650000X1.400000*%
%ADD18R,1.900000X3.600000*%
%ADD19R,1.400000X1.650000*%
%ADD20R,2.100000X2.100000*%
%ADD21O,2.100000X2.100000*%
%ADD22R,1.200000X1.300000*%
%ADD23R,1.300000X0.900000*%
%ADD24R,0.900000X1.300000*%
%ADD25R,1.000000X1.950000*%
%ADD26R,1.900000X1.000000*%
%ADD27R,1.000000X1.900000*%
%ADD28R,2.000000X1.900000*%
%ADD29R,1.600000X1.600000*%
%ADD30R,1.900000X2.000000*%
G04 APERTURE END LIST*
D10*
D11*
X152670000Y-82980000D03*
X143670000Y-82980000D03*
D12*
X152400000Y-46910000D03*
X152400000Y-44410000D03*
X152400000Y-41910000D03*
D13*
X145400000Y-48810000D03*
X145400000Y-40010000D03*
D14*
X145930000Y-157250000D03*
X145930000Y-34750000D03*
D15*
X139970000Y-115890000D03*
X139970000Y-117790000D03*
X141970000Y-116840000D03*
D16*
X140875000Y-111760000D03*
X144875000Y-111760000D03*
X140875000Y-101600000D03*
X144875000Y-101600000D03*
D17*
X151765000Y-88535000D03*
X151765000Y-90535000D03*
D18*
X156972000Y-97695000D03*
X156972000Y-101695000D03*
D17*
X156845000Y-91805000D03*
X156845000Y-89805000D03*
X156845000Y-122190000D03*
X156845000Y-124190000D03*
X156845000Y-116570000D03*
X156845000Y-114570000D03*
D19*
X147590000Y-113030000D03*
X149590000Y-113030000D03*
D17*
X156845000Y-118380000D03*
X156845000Y-120380000D03*
D19*
X153400000Y-77470000D03*
X151400000Y-77470000D03*
D17*
X151638000Y-93964000D03*
X151638000Y-91964000D03*
D18*
X139700000Y-129445000D03*
X139700000Y-133445000D03*
X142240000Y-133445000D03*
X142240000Y-129445000D03*
D19*
X154035000Y-117475000D03*
X152035000Y-117475000D03*
D18*
X141605000Y-93440000D03*
X141605000Y-89440000D03*
D16*
X143415000Y-99060000D03*
X147415000Y-99060000D03*
D17*
X156845000Y-133620000D03*
X156845000Y-135620000D03*
X156845000Y-128000000D03*
X156845000Y-126000000D03*
D15*
X139700000Y-98840000D03*
X139700000Y-96740000D03*
X139700000Y-95665000D03*
X139700000Y-93565000D03*
D20*
X156210000Y-72390000D03*
D21*
X156210000Y-74930000D03*
X156210000Y-77470000D03*
D20*
X156210000Y-63500000D03*
D21*
X156210000Y-66040000D03*
X156210000Y-68580000D03*
D20*
X140970000Y-152400000D03*
D21*
X140970000Y-149860000D03*
X140970000Y-147320000D03*
D20*
X144780000Y-137795000D03*
D21*
X144780000Y-140335000D03*
X144780000Y-142875000D03*
D20*
X140970000Y-137795000D03*
D21*
X140970000Y-140335000D03*
X140970000Y-142875000D03*
D22*
X152720000Y-143240000D03*
X154620000Y-143240000D03*
X153670000Y-141240000D03*
D15*
X146320000Y-115890000D03*
X146320000Y-117790000D03*
X148320000Y-116840000D03*
D22*
X151450000Y-121015000D03*
X153350000Y-121015000D03*
X152400000Y-119015000D03*
X147635000Y-129175000D03*
X145735000Y-129175000D03*
X146685000Y-131175000D03*
D23*
X154940000Y-47510000D03*
X154940000Y-49010000D03*
X154940000Y-39890000D03*
X154940000Y-41390000D03*
D24*
X147435000Y-103505000D03*
X145935000Y-103505000D03*
X155690000Y-44450000D03*
X154190000Y-44450000D03*
X141490000Y-55880000D03*
X142990000Y-55880000D03*
X148070000Y-76200000D03*
X146570000Y-76200000D03*
X152920000Y-74930000D03*
X154420000Y-74930000D03*
D23*
X149860000Y-75680000D03*
X149860000Y-74180000D03*
X156210000Y-144030000D03*
X156210000Y-145530000D03*
D24*
X156095000Y-142240000D03*
X157595000Y-142240000D03*
D23*
X147955000Y-100850000D03*
X147955000Y-102350000D03*
X151765000Y-96635000D03*
X151765000Y-95135000D03*
D24*
X140855000Y-96520000D03*
X142355000Y-96520000D03*
D23*
X156845000Y-93230000D03*
X156845000Y-94730000D03*
X153670000Y-90285000D03*
X153670000Y-88785000D03*
D24*
X144895000Y-116840000D03*
X143395000Y-116840000D03*
D23*
X143510000Y-114185000D03*
X143510000Y-115685000D03*
X149860000Y-118225000D03*
X149860000Y-116725000D03*
D24*
X154825000Y-88265000D03*
X156325000Y-88265000D03*
D23*
X149860000Y-121400000D03*
X149860000Y-119900000D03*
X147320000Y-109335000D03*
X147320000Y-107835000D03*
X147320000Y-105295000D03*
X147320000Y-106795000D03*
X154305000Y-102985000D03*
X154305000Y-101485000D03*
X156845000Y-132195000D03*
X156845000Y-130695000D03*
X150495000Y-137910000D03*
X150495000Y-136410000D03*
D24*
X148070000Y-127635000D03*
X146570000Y-127635000D03*
D23*
X151765000Y-112280000D03*
X151765000Y-113780000D03*
X153035000Y-112280000D03*
X153035000Y-113780000D03*
X154305000Y-112280000D03*
X154305000Y-113780000D03*
D24*
X155587000Y-112395000D03*
X157087000Y-112395000D03*
D12*
X144780000Y-53420000D03*
X144780000Y-55920000D03*
X144780000Y-58420000D03*
D13*
X151780000Y-51520000D03*
X151780000Y-60320000D03*
D12*
X152400000Y-69770000D03*
X152400000Y-67270000D03*
X152400000Y-64770000D03*
D13*
X145400000Y-71670000D03*
X145400000Y-62870000D03*
D12*
X156210000Y-152320000D03*
X156210000Y-149820000D03*
X156210000Y-147320000D03*
D13*
X149210000Y-154220000D03*
X149210000Y-145420000D03*
D20*
X140970000Y-76200000D03*
D21*
X143510000Y-76200000D03*
D25*
X140970000Y-109380000D03*
X142240000Y-109380000D03*
X143510000Y-109380000D03*
X144780000Y-109380000D03*
X144780000Y-103980000D03*
X143510000Y-103980000D03*
X142240000Y-103980000D03*
X140970000Y-103980000D03*
D26*
X143985000Y-88900000D03*
X143985000Y-90170000D03*
X143985000Y-91440000D03*
X143985000Y-92710000D03*
X143985000Y-93980000D03*
X143985000Y-95250000D03*
X143985000Y-96520000D03*
X149385000Y-96520000D03*
X149385000Y-95250000D03*
X149385000Y-93980000D03*
X149385000Y-92710000D03*
X149385000Y-91440000D03*
X149385000Y-90170000D03*
X149385000Y-88900000D03*
D27*
X147955000Y-120490000D03*
X146685000Y-120490000D03*
X145415000Y-120490000D03*
X144145000Y-120490000D03*
X142875000Y-120490000D03*
X141605000Y-120490000D03*
X140335000Y-120490000D03*
X140335000Y-125890000D03*
X141605000Y-125890000D03*
X142875000Y-125890000D03*
X144145000Y-125890000D03*
X145415000Y-125890000D03*
X146685000Y-125890000D03*
X147955000Y-125890000D03*
D15*
X231509524Y-90295000D03*
X231509524Y-92195000D03*
X233509524Y-91245000D03*
D26*
X149700000Y-126365000D03*
X149700000Y-127635000D03*
X149700000Y-128905000D03*
X149700000Y-130175000D03*
X149700000Y-131445000D03*
X149700000Y-132715000D03*
X149700000Y-133985000D03*
X155100000Y-133985000D03*
X155100000Y-132715000D03*
X155100000Y-131445000D03*
X155100000Y-130175000D03*
X155100000Y-128905000D03*
X155100000Y-127635000D03*
X155100000Y-126365000D03*
D27*
X156845000Y-105250000D03*
X155575000Y-105250000D03*
X154305000Y-105250000D03*
X153035000Y-105250000D03*
X151765000Y-105250000D03*
X150495000Y-105250000D03*
X149225000Y-105250000D03*
X149225000Y-110650000D03*
X150495000Y-110650000D03*
X151765000Y-110650000D03*
X153035000Y-110650000D03*
X154305000Y-110650000D03*
X155575000Y-110650000D03*
X156845000Y-110650000D03*
D28*
X153670000Y-139245000D03*
D29*
X152670000Y-135995000D03*
X154670000Y-135995000D03*
D30*
X153850000Y-123825000D03*
D29*
X150600000Y-124825000D03*
X150600000Y-122825000D03*
D28*
X151765000Y-99515000D03*
D29*
X152765000Y-102765000D03*
X150765000Y-102765000D03*
D30*
X144600000Y-133985000D03*
D29*
X147850000Y-132985000D03*
X147850000Y-134985000D03*
D28*
X154305000Y-93800000D03*
D29*
X155305000Y-97050000D03*
X153305000Y-97050000D03*
M02*
