G04 #@! TF.FileFunction,Copper,L1,Top,Signal*
%FSLAX46Y46*%
G04 Gerber Fmt 4.6, Leading zero omitted, Abs format (unit mm)*
G04 Created by KiCad (PCBNEW 4.0.6) date 07/18/17 20:03:28*
%MOMM*%
%LPD*%
G01*
G04 APERTURE LIST*
%ADD10C,0.100000*%
%ADD11R,1.000000X1.250000*%
%ADD12R,1.250000X1.000000*%
%ADD13R,0.800000X0.900000*%
%ADD14R,0.900000X0.800000*%
%ADD15R,0.500000X0.900000*%
%ADD16R,0.900000X0.500000*%
%ADD17R,1.600000X1.500000*%
%ADD18R,1.200000X1.200000*%
%ADD19R,1.700000X1.700000*%
%ADD20O,1.700000X1.700000*%
%ADD21R,1.550000X0.600000*%
%ADD22R,1.500000X0.600000*%
%ADD23R,1.800000X1.800000*%
%ADD24C,1.800000*%
%ADD25R,1.727200X1.727200*%
%ADD26O,1.727200X1.727200*%
%ADD27R,1.500000X1.950000*%
%ADD28R,1.950000X1.500000*%
%ADD29C,2.000000*%
%ADD30O,3.000000X1.000000*%
%ADD31O,1.500000X3.000000*%
%ADD32O,1.500000X2.100000*%
%ADD33R,0.600000X1.550000*%
%ADD34C,0.600000*%
%ADD35C,0.400000*%
%ADD36C,0.254000*%
G04 APERTURE END LIST*
D10*
D11*
X72510000Y-105010000D03*
X74510000Y-105010000D03*
X81010000Y-130510000D03*
X83010000Y-130510000D03*
X76260000Y-66010000D03*
X78260000Y-66010000D03*
X72760000Y-72010000D03*
X70760000Y-72010000D03*
D12*
X63260000Y-141260000D03*
X63260000Y-143260000D03*
X63260000Y-148010000D03*
X63260000Y-150010000D03*
X80760000Y-128510000D03*
X80760000Y-126510000D03*
X73010000Y-123260000D03*
X73010000Y-125260000D03*
D11*
X75260000Y-130510000D03*
X77260000Y-130510000D03*
D12*
X73260000Y-138760000D03*
X73260000Y-140760000D03*
X75760000Y-100260000D03*
X75760000Y-102260000D03*
D13*
X74960000Y-118010000D03*
X77060000Y-118010000D03*
D14*
X80760000Y-118310000D03*
X80760000Y-116210000D03*
D13*
X91310000Y-130510000D03*
X93210000Y-130510000D03*
X92260000Y-128510000D03*
D14*
X72760000Y-128960000D03*
X72760000Y-127060000D03*
X70760000Y-128010000D03*
D13*
X66210000Y-127010000D03*
X64310000Y-127010000D03*
X65260000Y-129010000D03*
D14*
X73760000Y-134960000D03*
X73760000Y-133060000D03*
X71760000Y-134010000D03*
D13*
X77560000Y-105260000D03*
X79460000Y-105260000D03*
X78510000Y-103260000D03*
D15*
X71010000Y-88510000D03*
X72510000Y-88510000D03*
X61010000Y-88510000D03*
X62510000Y-88510000D03*
D16*
X94260000Y-74760000D03*
X94260000Y-73260000D03*
D15*
X68510000Y-90510000D03*
X67010000Y-90510000D03*
X68510000Y-70510000D03*
X67010000Y-70510000D03*
X77010000Y-60010000D03*
X78510000Y-60010000D03*
X79510000Y-85010000D03*
X81010000Y-85010000D03*
X85260000Y-110760000D03*
X86760000Y-110760000D03*
X88510000Y-130510000D03*
X87010000Y-130510000D03*
X87010000Y-132510000D03*
X85510000Y-132510000D03*
D16*
X72760000Y-67760000D03*
X72760000Y-69260000D03*
X72010000Y-92010000D03*
X72010000Y-93510000D03*
X78760000Y-118760000D03*
X78760000Y-120260000D03*
D15*
X79260000Y-90510000D03*
X77760000Y-90510000D03*
X58260000Y-88510000D03*
X59760000Y-88510000D03*
X67760000Y-127010000D03*
X69260000Y-127010000D03*
X67760000Y-128760000D03*
X69260000Y-128760000D03*
X66760000Y-130510000D03*
X65260000Y-130510000D03*
D16*
X72260000Y-108010000D03*
X72260000Y-109510000D03*
D15*
X75260000Y-135010000D03*
X76760000Y-135010000D03*
X72510000Y-113260000D03*
X71010000Y-113260000D03*
X65760000Y-110760000D03*
X64260000Y-110760000D03*
X72510000Y-110760000D03*
X71010000Y-110760000D03*
X71510000Y-138760000D03*
X70010000Y-138760000D03*
X84010000Y-155510000D03*
X82510000Y-155510000D03*
D16*
X76010000Y-103760000D03*
X76010000Y-105260000D03*
D15*
X77760000Y-116260000D03*
X79260000Y-116260000D03*
D16*
X81260000Y-110760000D03*
X81260000Y-112260000D03*
D15*
X81010000Y-109510000D03*
X82510000Y-109510000D03*
D16*
X81260000Y-108260000D03*
X81260000Y-106760000D03*
D15*
X86010000Y-60010000D03*
X87510000Y-60010000D03*
D16*
X70510000Y-147010000D03*
X70510000Y-145510000D03*
D17*
X75260000Y-87310000D03*
D18*
X76260000Y-90560000D03*
X74260000Y-90560000D03*
D17*
X68760000Y-133060000D03*
D18*
X69760000Y-136310000D03*
X67760000Y-136310000D03*
D17*
X68260000Y-107560000D03*
D18*
X69260000Y-110810000D03*
X67260000Y-110810000D03*
D17*
X70010000Y-140560000D03*
D18*
X71010000Y-143810000D03*
X69010000Y-143810000D03*
D17*
X82010000Y-146460000D03*
D18*
X81010000Y-143210000D03*
X83010000Y-143210000D03*
D19*
X81260000Y-63510000D03*
D20*
X81260000Y-60970000D03*
D19*
X90260000Y-63510000D03*
D20*
X90260000Y-60970000D03*
D21*
X86560000Y-68105000D03*
X86560000Y-69375000D03*
X86560000Y-70645000D03*
X86560000Y-71915000D03*
X91960000Y-71915000D03*
X91960000Y-70645000D03*
X91960000Y-69375000D03*
X91960000Y-68105000D03*
D22*
X78560000Y-132450000D03*
X78560000Y-133720000D03*
X78560000Y-134990000D03*
X78560000Y-136260000D03*
X78560000Y-137530000D03*
X78560000Y-138800000D03*
X78560000Y-140070000D03*
X83960000Y-140070000D03*
X83960000Y-138800000D03*
X83960000Y-137530000D03*
X83960000Y-136260000D03*
X83960000Y-134990000D03*
X83960000Y-133720000D03*
X83960000Y-132450000D03*
X74060000Y-106950000D03*
X74060000Y-108220000D03*
X74060000Y-109490000D03*
X74060000Y-110760000D03*
X74060000Y-112030000D03*
X74060000Y-113300000D03*
X74060000Y-114570000D03*
X79460000Y-114570000D03*
X79460000Y-113300000D03*
X79460000Y-112030000D03*
X79460000Y-110760000D03*
X79460000Y-109490000D03*
X79460000Y-108220000D03*
X79460000Y-106950000D03*
D23*
X79260000Y-151010000D03*
D24*
X81800000Y-151010000D03*
D23*
X71760000Y-151010000D03*
D24*
X74300000Y-151010000D03*
D25*
X92260000Y-160260000D03*
D26*
X89720000Y-160260000D03*
X92260000Y-157720000D03*
X89720000Y-157720000D03*
X92260000Y-155180000D03*
X89720000Y-155180000D03*
X92260000Y-152640000D03*
X89720000Y-152640000D03*
X92260000Y-150100000D03*
X89720000Y-150100000D03*
X92260000Y-147560000D03*
X89720000Y-147560000D03*
X92260000Y-145020000D03*
X89720000Y-145020000D03*
X92260000Y-142480000D03*
X89720000Y-142480000D03*
D27*
X83760000Y-69385000D03*
X83760000Y-66635000D03*
X94760000Y-68135000D03*
X94760000Y-70885000D03*
D28*
X86385000Y-134510000D03*
X89135000Y-134510000D03*
D27*
X79760000Y-74135000D03*
X79760000Y-76885000D03*
X74760000Y-76885000D03*
X74760000Y-74135000D03*
X65760000Y-143635000D03*
X65760000Y-140885000D03*
X65760000Y-150635000D03*
X65760000Y-147885000D03*
D29*
X64260000Y-88510000D03*
X66760000Y-88510000D03*
X69260000Y-88510000D03*
X71560000Y-81010000D03*
X61960000Y-81010000D03*
X64260000Y-68510000D03*
X66760000Y-68510000D03*
X69260000Y-68510000D03*
X71560000Y-61010000D03*
X61960000Y-61010000D03*
X84260000Y-108510000D03*
X86760000Y-108510000D03*
X89260000Y-108510000D03*
X91560000Y-101010000D03*
X81960000Y-101010000D03*
X84260000Y-128510000D03*
X86760000Y-128510000D03*
X89260000Y-128510000D03*
X91560000Y-121010000D03*
X81960000Y-121010000D03*
D30*
X86760000Y-83510000D03*
X86760000Y-75410000D03*
D31*
X82060000Y-81210000D03*
D32*
X91460000Y-81210000D03*
D30*
X66760000Y-103510000D03*
X66760000Y-95410000D03*
D31*
X62060000Y-101210000D03*
D32*
X71460000Y-101210000D03*
D30*
X66760000Y-123510000D03*
X66760000Y-115410000D03*
D31*
X62060000Y-121210000D03*
D32*
X71460000Y-121210000D03*
D30*
X76760000Y-163510000D03*
X76760000Y-155410000D03*
D31*
X72060000Y-161210000D03*
D32*
X81460000Y-161210000D03*
D21*
X74060000Y-92355000D03*
X74060000Y-93625000D03*
X74060000Y-94895000D03*
X74060000Y-96165000D03*
X79460000Y-96165000D03*
X79460000Y-94895000D03*
X79460000Y-93625000D03*
X79460000Y-92355000D03*
D33*
X78665000Y-121810000D03*
X77395000Y-121810000D03*
X76125000Y-121810000D03*
X74855000Y-121810000D03*
X74855000Y-127210000D03*
X76125000Y-127210000D03*
X77395000Y-127210000D03*
X78665000Y-127210000D03*
D21*
X78710000Y-146415000D03*
X78710000Y-145145000D03*
X78710000Y-143875000D03*
X78710000Y-142605000D03*
X73310000Y-142605000D03*
X73310000Y-143875000D03*
X73310000Y-145145000D03*
X73310000Y-146415000D03*
X74560000Y-68105000D03*
X74560000Y-69375000D03*
X74560000Y-70645000D03*
X74560000Y-71915000D03*
X79960000Y-71915000D03*
X79960000Y-70645000D03*
X79960000Y-69375000D03*
X79960000Y-68105000D03*
D34*
X89010000Y-133260000D03*
X75260000Y-114510000D03*
X80760000Y-115510000D03*
X75760000Y-94010000D03*
X80510000Y-96260000D03*
X79760000Y-90510000D03*
X80760000Y-130510000D03*
X80760000Y-128510000D03*
X80010000Y-140010000D03*
X65760000Y-140760000D03*
X69010000Y-143810000D03*
X76010000Y-66010000D03*
X70760000Y-70260000D03*
X77010000Y-96010000D03*
X72510000Y-104260000D03*
X78010000Y-97260000D03*
X74510000Y-104010000D03*
X61010000Y-93010000D03*
X64510000Y-93010000D03*
X72010000Y-95260000D03*
X78010000Y-95010000D03*
X81010000Y-90510000D03*
X85010000Y-90510000D03*
X93010000Y-126510000D03*
X87260000Y-126510000D03*
X78760000Y-128760000D03*
X71760000Y-140760000D03*
X83260000Y-148760000D03*
X80010000Y-97510000D03*
X78510000Y-102260000D03*
X77510000Y-76010000D03*
X79510000Y-88760000D03*
X76260000Y-74510000D03*
X71260000Y-96260000D03*
X81760000Y-133510000D03*
X74760000Y-120760000D03*
X79260000Y-116260000D03*
X82510000Y-115510000D03*
X78510000Y-142760000D03*
X68510000Y-148010000D03*
X73260000Y-133010000D03*
X70010000Y-133010000D03*
X68510000Y-130510000D03*
X63760000Y-123760000D03*
X64760000Y-117510000D03*
X71760000Y-117260000D03*
X71010000Y-130510000D03*
X66010000Y-117510000D03*
X63510000Y-116010000D03*
X61260000Y-114760000D03*
X63260000Y-107510000D03*
X65260000Y-107510000D03*
X80510000Y-104260000D03*
X92510000Y-105260000D03*
X82260000Y-122760000D03*
X80510000Y-123760000D03*
X73260000Y-116510000D03*
X73510000Y-129010000D03*
X75760000Y-98260000D03*
X79010000Y-98260000D03*
X91260000Y-134510000D03*
X80510000Y-134510000D03*
X77260000Y-132510000D03*
X74010000Y-131510000D03*
X71760000Y-131510000D03*
X68760000Y-131510000D03*
X69010000Y-82260000D03*
X69510000Y-84760000D03*
X90760000Y-73760000D03*
X88010000Y-73760000D03*
X76260000Y-69260000D03*
X81760000Y-69260000D03*
X84510000Y-73010000D03*
X92260000Y-74510000D03*
X74510000Y-80260000D03*
X76760000Y-82260000D03*
X71010000Y-68510000D03*
X71010000Y-66760000D03*
X69760000Y-117510000D03*
X69760000Y-119760000D03*
X75760000Y-113260000D03*
X80760000Y-114510000D03*
X81010000Y-109510000D03*
X81260000Y-112260000D03*
X76010000Y-108260000D03*
X75260000Y-86010000D03*
X75260000Y-112010000D03*
X76010000Y-123760000D03*
X66510000Y-112260000D03*
X64010000Y-113510000D03*
X61260000Y-132510000D03*
X63760000Y-132510000D03*
D35*
X83760000Y-69385000D02*
X86550000Y-69385000D01*
X86550000Y-69385000D02*
X86560000Y-69375000D01*
X89135000Y-134510000D02*
X89135000Y-133385000D01*
X89135000Y-133385000D02*
X89010000Y-133260000D01*
X74060000Y-114570000D02*
X75200000Y-114570000D01*
X75200000Y-114570000D02*
X75260000Y-114510000D01*
X75200000Y-114570000D02*
X75260000Y-114510000D01*
X80760000Y-115510000D02*
X80760000Y-116210000D01*
X74060000Y-94895000D02*
X74875000Y-94895000D01*
X74875000Y-94895000D02*
X75760000Y-94010000D01*
X79460000Y-96165000D02*
X80415000Y-96165000D01*
X80415000Y-96165000D02*
X80510000Y-96260000D01*
X79260000Y-90510000D02*
X79760000Y-90510000D01*
X80760000Y-130510000D02*
X81010000Y-130510000D01*
X78560000Y-140070000D02*
X79950000Y-140070000D01*
X79950000Y-140070000D02*
X80010000Y-140010000D01*
X65760000Y-140760000D02*
X65760000Y-140885000D01*
X92260000Y-152640000D02*
X92260000Y-157720000D01*
X89720000Y-157720000D02*
X89720000Y-152640000D01*
X89720000Y-157720000D02*
X92260000Y-157720000D01*
X92260000Y-155180000D02*
X89720000Y-155180000D01*
X92260000Y-152640000D02*
X89720000Y-152640000D01*
X94760000Y-70885000D02*
X94760000Y-71392000D01*
X94760000Y-71392000D02*
X95631000Y-72263000D01*
X95631000Y-72263000D02*
X95631000Y-77039000D01*
X95631000Y-77039000D02*
X91460000Y-81210000D01*
X65760000Y-140885000D02*
X65760000Y-136010000D01*
X65760000Y-136010000D02*
X62510000Y-132760000D01*
X62510000Y-132760000D02*
X62510000Y-126260000D01*
X62510000Y-126260000D02*
X63510000Y-125260000D01*
X63510000Y-125260000D02*
X73010000Y-125260000D01*
X70760000Y-72010000D02*
X70760000Y-70260000D01*
X76010000Y-66010000D02*
X76260000Y-66010000D01*
X63260000Y-141260000D02*
X62010000Y-141260000D01*
X62010000Y-150010000D02*
X63260000Y-150010000D01*
X61510000Y-149510000D02*
X62010000Y-150010000D01*
X61510000Y-141760000D02*
X61510000Y-149510000D01*
X62010000Y-141260000D02*
X61510000Y-141760000D01*
X65760000Y-150635000D02*
X63885000Y-150635000D01*
X63885000Y-150635000D02*
X63260000Y-150010000D01*
X63260000Y-141260000D02*
X65385000Y-141260000D01*
X65385000Y-141260000D02*
X65760000Y-140885000D01*
X70760000Y-72010000D02*
X70760000Y-74189000D01*
X73456000Y-76885000D02*
X74760000Y-76885000D01*
X70760000Y-74189000D02*
X73456000Y-76885000D01*
X79760000Y-76885000D02*
X74760000Y-76885000D01*
X91960000Y-68105000D02*
X94730000Y-68105000D01*
X94730000Y-68105000D02*
X94760000Y-68135000D01*
X72510000Y-105010000D02*
X72510000Y-104260000D01*
X77145000Y-93625000D02*
X79460000Y-93625000D01*
X77010000Y-93760000D02*
X77145000Y-93625000D01*
X77010000Y-96010000D02*
X77010000Y-93760000D01*
X72510000Y-105010000D02*
X72510000Y-105036000D01*
X72510000Y-105036000D02*
X72260000Y-105286000D01*
X72260000Y-105286000D02*
X72260000Y-108010000D01*
X74510000Y-105010000D02*
X74510000Y-104010000D01*
X78010000Y-97260000D02*
X78010000Y-95010000D01*
X58260000Y-88510000D02*
X58260000Y-91760000D01*
X58260000Y-91760000D02*
X59510000Y-93010000D01*
X59510000Y-93010000D02*
X61010000Y-93010000D01*
X64510000Y-93010000D02*
X65260000Y-93760000D01*
X65260000Y-93760000D02*
X68760000Y-93760000D01*
X68760000Y-93760000D02*
X70260000Y-95260000D01*
X70260000Y-95260000D02*
X72010000Y-95260000D01*
X78125000Y-94895000D02*
X79460000Y-94895000D01*
X78010000Y-95010000D02*
X78125000Y-94895000D01*
X74510000Y-105010000D02*
X74510000Y-106500000D01*
X74510000Y-106500000D02*
X74060000Y-106950000D01*
X80760000Y-126510000D02*
X87260000Y-126510000D01*
X88510000Y-90510000D02*
X85010000Y-90510000D01*
X93510000Y-95510000D02*
X88510000Y-90510000D01*
X93510000Y-126010000D02*
X93510000Y-95510000D01*
X93010000Y-126510000D02*
X93510000Y-126010000D01*
X71010000Y-143810000D02*
X71010000Y-143760000D01*
X71010000Y-143760000D02*
X71760000Y-143010000D01*
X78665000Y-128665000D02*
X78665000Y-127210000D01*
X78760000Y-128760000D02*
X78665000Y-128665000D01*
X71760000Y-143010000D02*
X71760000Y-140760000D01*
X73310000Y-146415000D02*
X74165000Y-146415000D01*
X83010000Y-148510000D02*
X83260000Y-148760000D01*
X76260000Y-148510000D02*
X83010000Y-148510000D01*
X74165000Y-146415000D02*
X76260000Y-148510000D01*
X78510000Y-103260000D02*
X78510000Y-102260000D01*
X81760000Y-92760000D02*
X81010000Y-92010000D01*
X81760000Y-97010000D02*
X81760000Y-92760000D01*
X81260000Y-97510000D02*
X81760000Y-97010000D01*
X80010000Y-97510000D02*
X81260000Y-97510000D01*
X79760000Y-74135000D02*
X78385000Y-74135000D01*
X78385000Y-74135000D02*
X77510000Y-75010000D01*
X77510000Y-75010000D02*
X77510000Y-76010000D01*
X79510000Y-88760000D02*
X81010000Y-90260000D01*
X81010000Y-90260000D02*
X81010000Y-90510000D01*
X80665000Y-92355000D02*
X79460000Y-92355000D01*
X81010000Y-92010000D02*
X80665000Y-92355000D01*
X81010000Y-90510000D02*
X81010000Y-92010000D01*
X79960000Y-68105000D02*
X78665000Y-68105000D01*
X78010000Y-72385000D02*
X79760000Y-74135000D01*
X78010000Y-68760000D02*
X78010000Y-72385000D01*
X78665000Y-68105000D02*
X78010000Y-68760000D01*
X73310000Y-146415000D02*
X72165000Y-146415000D01*
X67510000Y-145010000D02*
X67510000Y-142240000D01*
X68760000Y-146260000D02*
X67510000Y-145010000D01*
X72010000Y-146260000D02*
X68760000Y-146260000D01*
X72165000Y-146415000D02*
X72010000Y-146260000D01*
X92260000Y-150100000D02*
X89720000Y-150100000D01*
X63260000Y-143260000D02*
X65385000Y-143260000D01*
X65385000Y-143260000D02*
X65760000Y-143635000D01*
X71010000Y-143810000D02*
X71010000Y-143400000D01*
X71010000Y-143400000D02*
X69850000Y-142240000D01*
X69850000Y-142240000D02*
X67510000Y-142240000D01*
X67510000Y-142240000D02*
X67155000Y-142240000D01*
X67155000Y-142240000D02*
X65760000Y-143635000D01*
X80760000Y-126510000D02*
X79365000Y-126510000D01*
X79365000Y-126510000D02*
X78665000Y-127210000D01*
X78260000Y-66010000D02*
X79218000Y-66010000D01*
X79960000Y-66752000D02*
X79960000Y-68105000D01*
X79218000Y-66010000D02*
X79960000Y-66752000D01*
X74060000Y-96165000D02*
X71355000Y-96165000D01*
X75885000Y-74135000D02*
X74760000Y-74135000D01*
X76260000Y-74510000D02*
X75885000Y-74135000D01*
X71355000Y-96165000D02*
X71260000Y-96260000D01*
X81760000Y-141510000D02*
X81760000Y-133510000D01*
X74855000Y-121810000D02*
X74855000Y-120855000D01*
X74855000Y-120855000D02*
X74760000Y-120760000D01*
X82510000Y-115510000D02*
X82510000Y-109510000D01*
X65760000Y-147885000D02*
X68385000Y-147885000D01*
X78510000Y-142760000D02*
X78665000Y-142605000D01*
X68385000Y-147885000D02*
X68510000Y-148010000D01*
X78665000Y-142605000D02*
X78710000Y-142605000D01*
X89720000Y-160260000D02*
X87760000Y-160260000D01*
X79805000Y-141510000D02*
X78710000Y-142605000D01*
X84010000Y-141510000D02*
X81760000Y-141510000D01*
X81760000Y-141510000D02*
X79805000Y-141510000D01*
X84510000Y-142010000D02*
X84010000Y-141510000D01*
X84510000Y-145760000D02*
X84510000Y-142010000D01*
X85760000Y-147010000D02*
X84510000Y-145760000D01*
X85760000Y-158260000D02*
X85760000Y-147010000D01*
X87760000Y-160260000D02*
X85760000Y-158260000D01*
X65760000Y-147885000D02*
X63385000Y-147885000D01*
X63385000Y-147885000D02*
X63260000Y-148010000D01*
X73010000Y-123260000D02*
X73010000Y-122260000D01*
X73460000Y-121810000D02*
X74855000Y-121810000D01*
X73010000Y-122260000D02*
X73460000Y-121810000D01*
X92260000Y-160260000D02*
X89720000Y-160260000D01*
X81260000Y-106760000D02*
X81260000Y-103231000D01*
X75464000Y-96165000D02*
X74060000Y-96165000D01*
X78740000Y-99441000D02*
X75464000Y-96165000D01*
X78740000Y-100711000D02*
X78740000Y-99441000D01*
X81260000Y-103231000D02*
X78740000Y-100711000D01*
X81260000Y-106760000D02*
X81741000Y-106760000D01*
X81741000Y-106760000D02*
X82510000Y-107529000D01*
X82510000Y-107529000D02*
X82510000Y-109510000D01*
X74760000Y-74135000D02*
X74760000Y-72115000D01*
X74760000Y-72115000D02*
X74560000Y-71915000D01*
X72760000Y-72010000D02*
X74465000Y-72010000D01*
X74465000Y-72010000D02*
X74560000Y-71915000D01*
X68760000Y-133060000D02*
X69960000Y-133060000D01*
X73260000Y-133010000D02*
X73310000Y-133060000D01*
X69960000Y-133060000D02*
X70010000Y-133010000D01*
X73310000Y-133060000D02*
X73760000Y-133060000D01*
X67760000Y-136310000D02*
X67760000Y-134060000D01*
X67760000Y-134060000D02*
X68760000Y-133060000D01*
X75260000Y-130510000D02*
X75260000Y-131560000D01*
X75260000Y-131560000D02*
X73760000Y-133060000D01*
X74960000Y-118010000D02*
X72510000Y-118010000D01*
X63760000Y-118510000D02*
X63760000Y-123760000D01*
X64760000Y-117510000D02*
X63760000Y-118510000D01*
X72510000Y-118010000D02*
X71760000Y-117260000D01*
X77260000Y-130510000D02*
X78760000Y-130510000D01*
X80760000Y-132510000D02*
X83900000Y-132510000D01*
X78760000Y-130510000D02*
X80760000Y-132510000D01*
X83900000Y-132510000D02*
X83960000Y-132450000D01*
X89720000Y-147560000D02*
X87810000Y-147560000D01*
X86385000Y-146135000D02*
X86385000Y-134510000D01*
X87810000Y-147560000D02*
X86385000Y-146135000D01*
X86385000Y-134510000D02*
X86385000Y-134385000D01*
X86385000Y-134385000D02*
X85510000Y-133510000D01*
X85510000Y-133510000D02*
X85510000Y-132510000D01*
X92260000Y-147560000D02*
X89720000Y-147560000D01*
X68510000Y-130510000D02*
X68510000Y-127010000D01*
X68510000Y-127010000D02*
X67760000Y-127010000D01*
X71760000Y-134010000D02*
X74524000Y-134010000D01*
X77260000Y-131274000D02*
X77260000Y-130510000D01*
X74524000Y-134010000D02*
X77260000Y-131274000D01*
X71760000Y-134010000D02*
X71760000Y-132847000D01*
X69423000Y-130510000D02*
X68510000Y-130510000D01*
X68510000Y-130510000D02*
X66760000Y-130510000D01*
X71760000Y-132847000D02*
X69423000Y-130510000D01*
X83960000Y-132450000D02*
X83960000Y-131460000D01*
X83960000Y-131460000D02*
X83010000Y-130510000D01*
X83960000Y-132450000D02*
X85450000Y-132450000D01*
X85450000Y-132450000D02*
X85510000Y-132510000D01*
X73260000Y-138760000D02*
X75010000Y-138760000D01*
X77395000Y-145145000D02*
X78710000Y-145145000D01*
X76010000Y-143760000D02*
X77395000Y-145145000D01*
X76010000Y-139760000D02*
X76010000Y-143760000D01*
X75010000Y-138760000D02*
X76010000Y-139760000D01*
X71510000Y-138760000D02*
X73260000Y-138760000D01*
X78710000Y-145145000D02*
X79899000Y-145145000D01*
X79899000Y-145145000D02*
X81010000Y-144034000D01*
X81010000Y-144034000D02*
X81010000Y-143210000D01*
X73260000Y-140760000D02*
X73260000Y-142555000D01*
X73260000Y-142555000D02*
X73310000Y-142605000D01*
X78710000Y-146415000D02*
X77327000Y-146415000D01*
X74660000Y-142605000D02*
X73310000Y-142605000D01*
X74803000Y-142748000D02*
X74660000Y-142605000D01*
X74803000Y-143891000D02*
X74803000Y-142748000D01*
X77327000Y-146415000D02*
X74803000Y-143891000D01*
X78710000Y-146415000D02*
X81965000Y-146415000D01*
X81965000Y-146415000D02*
X82010000Y-146460000D01*
X83010000Y-143210000D02*
X83010000Y-145460000D01*
X83010000Y-145460000D02*
X82010000Y-146460000D01*
X84010000Y-155510000D02*
X84010000Y-147002000D01*
X83468000Y-146460000D02*
X82010000Y-146460000D01*
X84010000Y-147002000D02*
X83468000Y-146460000D01*
X68260000Y-107560000D02*
X65310000Y-107560000D01*
X76125000Y-128645000D02*
X76125000Y-127210000D01*
X76010000Y-128760000D02*
X76125000Y-128645000D01*
X74760000Y-128760000D02*
X76010000Y-128760000D01*
X74010000Y-129510000D02*
X74760000Y-128760000D01*
X74010000Y-130260000D02*
X74010000Y-129510000D01*
X73760000Y-130510000D02*
X74010000Y-130260000D01*
X71010000Y-130510000D02*
X73760000Y-130510000D01*
X64510000Y-116010000D02*
X66010000Y-117510000D01*
X63510000Y-116010000D02*
X64510000Y-116010000D01*
X61260000Y-109510000D02*
X61260000Y-114760000D01*
X63260000Y-107510000D02*
X61260000Y-109510000D01*
X65310000Y-107560000D02*
X65260000Y-107510000D01*
X68260000Y-107560000D02*
X68260000Y-105760000D01*
X74510000Y-100260000D02*
X75760000Y-100260000D01*
X73760000Y-101010000D02*
X74510000Y-100260000D01*
X73760000Y-101510000D02*
X73760000Y-101010000D01*
X72010000Y-103260000D02*
X73760000Y-101510000D01*
X70760000Y-103260000D02*
X72010000Y-103260000D01*
X68260000Y-105760000D02*
X70760000Y-103260000D01*
X77395000Y-127210000D02*
X77395000Y-125375000D01*
X76760000Y-102260000D02*
X75760000Y-102260000D01*
X77260000Y-102760000D02*
X76760000Y-102260000D01*
X77260000Y-104260000D02*
X77260000Y-102760000D01*
X80510000Y-104260000D02*
X77260000Y-104260000D01*
X92510000Y-115760000D02*
X92510000Y-105260000D01*
X85510000Y-122760000D02*
X92510000Y-115760000D01*
X82260000Y-122760000D02*
X85510000Y-122760000D01*
X79010000Y-123760000D02*
X80510000Y-123760000D01*
X77395000Y-125375000D02*
X79010000Y-123760000D01*
X75760000Y-102260000D02*
X75760000Y-103510000D01*
X75760000Y-103510000D02*
X76010000Y-103760000D01*
X72760000Y-128960000D02*
X73460000Y-128960000D01*
X77060000Y-116810000D02*
X77060000Y-118010000D01*
X76760000Y-116510000D02*
X77060000Y-116810000D01*
X73260000Y-116510000D02*
X76760000Y-116510000D01*
X73460000Y-128960000D02*
X73510000Y-129010000D01*
X78760000Y-118760000D02*
X80310000Y-118760000D01*
X80310000Y-118760000D02*
X80760000Y-118310000D01*
X77060000Y-118010000D02*
X78010000Y-118010000D01*
X78010000Y-118010000D02*
X78760000Y-118760000D01*
X81010000Y-85010000D02*
X85260000Y-85010000D01*
X85260000Y-85010000D02*
X86760000Y-83510000D01*
X86760000Y-75410000D02*
X86760000Y-83510000D01*
X84260000Y-108510000D02*
X84260000Y-99760000D01*
X70010000Y-98260000D02*
X67160000Y-95410000D01*
X75760000Y-98260000D02*
X70010000Y-98260000D01*
X82760000Y-98260000D02*
X79010000Y-98260000D01*
X84260000Y-99760000D02*
X82760000Y-98260000D01*
X67160000Y-95410000D02*
X66760000Y-95410000D01*
X66760000Y-95410000D02*
X66760000Y-103510000D01*
X66760000Y-118510000D02*
X71260000Y-118510000D01*
X89260000Y-126510000D02*
X89260000Y-128510000D01*
X88010000Y-125260000D02*
X89260000Y-126510000D01*
X83510000Y-125260000D02*
X88010000Y-125260000D01*
X80260000Y-122010000D02*
X83510000Y-125260000D01*
X80260000Y-120260000D02*
X80260000Y-122010000D01*
X79510000Y-119510000D02*
X80260000Y-120260000D01*
X72260000Y-119510000D02*
X79510000Y-119510000D01*
X71260000Y-118510000D02*
X72260000Y-119510000D01*
X66760000Y-115410000D02*
X66760000Y-118510000D01*
X66760000Y-118510000D02*
X66760000Y-123510000D01*
X76760000Y-155410000D02*
X82410000Y-155410000D01*
X82410000Y-155410000D02*
X82510000Y-155510000D01*
X76760000Y-155410000D02*
X76760000Y-163510000D01*
X88510000Y-130510000D02*
X91310000Y-130510000D01*
X78560000Y-133720000D02*
X79720000Y-133720000D01*
X91260000Y-132510000D02*
X91264000Y-132510000D01*
X91260000Y-134510000D02*
X91260000Y-132510000D01*
X79720000Y-133720000D02*
X80510000Y-134510000D01*
X92260000Y-128510000D02*
X92260000Y-131514000D01*
X91264000Y-132510000D02*
X87010000Y-132510000D01*
X92260000Y-131514000D02*
X91264000Y-132510000D01*
X69260000Y-127010000D02*
X69260000Y-128760000D01*
X70760000Y-128010000D02*
X70760000Y-128249000D01*
X70760000Y-128249000D02*
X70249000Y-128760000D01*
X70249000Y-128760000D02*
X69260000Y-128760000D01*
X67760000Y-128760000D02*
X67165000Y-128760000D01*
X66210000Y-127805000D02*
X66210000Y-127010000D01*
X67165000Y-128760000D02*
X66210000Y-127805000D01*
X65260000Y-130510000D02*
X65260000Y-131010000D01*
X77320000Y-132450000D02*
X78560000Y-132450000D01*
X77260000Y-132510000D02*
X77320000Y-132450000D01*
X71760000Y-131510000D02*
X74010000Y-131510000D01*
X65760000Y-131510000D02*
X68760000Y-131510000D01*
X65260000Y-131010000D02*
X65760000Y-131510000D01*
X65260000Y-129010000D02*
X65260000Y-130510000D01*
X73760000Y-134960000D02*
X75210000Y-134960000D01*
X75210000Y-134960000D02*
X75260000Y-135010000D01*
X77560000Y-105260000D02*
X76010000Y-105260000D01*
X79460000Y-106950000D02*
X79460000Y-105260000D01*
X79460000Y-110760000D02*
X77760000Y-110760000D01*
X78320000Y-106950000D02*
X79460000Y-106950000D01*
X77510000Y-107760000D02*
X78320000Y-106950000D01*
X77510000Y-110510000D02*
X77510000Y-107760000D01*
X77760000Y-110760000D02*
X77510000Y-110510000D01*
X79460000Y-110760000D02*
X81260000Y-110760000D01*
X71010000Y-88510000D02*
X69260000Y-88510000D01*
X72510000Y-88510000D02*
X72510000Y-87510000D01*
X69260000Y-66010000D02*
X69260000Y-68510000D01*
X68760000Y-65510000D02*
X69260000Y-66010000D01*
X63010000Y-65510000D02*
X68760000Y-65510000D01*
X61760000Y-66760000D02*
X63010000Y-65510000D01*
X61760000Y-75010000D02*
X61760000Y-66760000D01*
X69010000Y-82260000D02*
X61760000Y-75010000D01*
X69760000Y-84760000D02*
X69510000Y-84760000D01*
X72510000Y-87510000D02*
X69760000Y-84760000D01*
X81260000Y-63510000D02*
X76010000Y-63510000D01*
X74560000Y-64960000D02*
X74560000Y-68105000D01*
X76010000Y-63510000D02*
X74560000Y-64960000D01*
X72760000Y-67760000D02*
X74215000Y-67760000D01*
X74215000Y-67760000D02*
X74560000Y-68105000D01*
X69260000Y-68510000D02*
X69920000Y-68510000D01*
X69920000Y-68510000D02*
X70670000Y-67760000D01*
X70670000Y-67760000D02*
X72760000Y-67760000D01*
X61010000Y-88510000D02*
X61010000Y-85510000D01*
X93260000Y-73260000D02*
X94260000Y-73260000D01*
X92760000Y-73760000D02*
X93260000Y-73260000D01*
X90760000Y-73760000D02*
X92760000Y-73760000D01*
X85260000Y-73760000D02*
X88010000Y-73760000D01*
X84010000Y-75010000D02*
X85260000Y-73760000D01*
X84010000Y-76010000D02*
X84010000Y-75010000D01*
X80760000Y-79260000D02*
X84010000Y-76010000D01*
X78010000Y-79260000D02*
X80760000Y-79260000D01*
X73510000Y-83760000D02*
X78010000Y-79260000D01*
X62760000Y-83760000D02*
X73510000Y-83760000D01*
X61010000Y-85510000D02*
X62760000Y-83760000D01*
X64260000Y-110760000D02*
X64260000Y-94486000D01*
X60325000Y-90551000D02*
X60325000Y-88510000D01*
X64260000Y-94486000D02*
X60325000Y-90551000D01*
X71010000Y-113260000D02*
X65762000Y-113260000D01*
X64260000Y-111758000D02*
X64260000Y-110760000D01*
X65762000Y-113260000D02*
X64260000Y-111758000D01*
X61010000Y-88510000D02*
X60325000Y-88510000D01*
X60325000Y-88510000D02*
X59760000Y-88510000D01*
X91960000Y-70645000D02*
X92870000Y-70645000D01*
X92870000Y-70645000D02*
X93345000Y-71120000D01*
X93345000Y-71120000D02*
X93345000Y-72345000D01*
X93345000Y-72345000D02*
X94260000Y-73260000D01*
X62510000Y-88510000D02*
X64260000Y-88510000D01*
X94260000Y-74760000D02*
X92260000Y-74760000D01*
X76145000Y-69375000D02*
X74560000Y-69375000D01*
X76260000Y-69260000D02*
X76145000Y-69375000D01*
X81760000Y-71510000D02*
X81760000Y-69260000D01*
X83260000Y-73010000D02*
X81760000Y-71510000D01*
X84510000Y-73010000D02*
X83260000Y-73010000D01*
X92260000Y-74760000D02*
X92260000Y-74510000D01*
X72760000Y-69260000D02*
X74445000Y-69260000D01*
X74445000Y-69260000D02*
X74560000Y-69375000D01*
X79510000Y-85010000D02*
X76760000Y-82260000D01*
X68510000Y-74260000D02*
X68510000Y-70510000D01*
X74510000Y-80260000D02*
X68510000Y-74260000D01*
X68510000Y-70510000D02*
X69510000Y-70510000D01*
X69510000Y-70510000D02*
X71010000Y-69010000D01*
X71010000Y-69010000D02*
X71010000Y-68510000D01*
X71010000Y-66760000D02*
X77010000Y-60760000D01*
X77010000Y-60760000D02*
X77010000Y-60010000D01*
X85260000Y-110760000D02*
X85260000Y-112260000D01*
X79498500Y-86998500D02*
X79510000Y-86998500D01*
X86260000Y-93760000D02*
X79498500Y-86998500D01*
X86260000Y-101510000D02*
X86260000Y-93760000D01*
X91510000Y-106760000D02*
X86260000Y-101510000D01*
X91510000Y-111010000D02*
X91510000Y-106760000D01*
X89760000Y-112760000D02*
X91510000Y-111010000D01*
X85760000Y-112760000D02*
X89760000Y-112760000D01*
X85260000Y-112260000D02*
X85760000Y-112760000D01*
X79510000Y-85010000D02*
X79510000Y-86998500D01*
X79510000Y-86998500D02*
X79510000Y-86987000D01*
X72136000Y-90424000D02*
X68596000Y-90424000D01*
X73406000Y-89154000D02*
X72136000Y-90424000D01*
X77343000Y-89154000D02*
X73406000Y-89154000D01*
X79510000Y-86987000D02*
X77343000Y-89154000D01*
X68596000Y-90424000D02*
X68510000Y-90510000D01*
X72010000Y-93510000D02*
X73945000Y-93510000D01*
X73945000Y-93510000D02*
X74060000Y-93625000D01*
X68510000Y-90510000D02*
X68510000Y-91497000D01*
X70523000Y-93510000D02*
X72010000Y-93510000D01*
X68510000Y-91497000D02*
X70523000Y-93510000D01*
X86010000Y-60010000D02*
X85664000Y-60010000D01*
X77010000Y-58753000D02*
X77010000Y-60010000D01*
X77343000Y-58420000D02*
X77010000Y-58753000D01*
X84074000Y-58420000D02*
X77343000Y-58420000D01*
X85664000Y-60010000D02*
X84074000Y-58420000D01*
X66760000Y-88510000D02*
X66760000Y-90260000D01*
X66760000Y-90260000D02*
X67010000Y-90510000D01*
X66760000Y-68510000D02*
X66760000Y-70260000D01*
X66760000Y-70260000D02*
X67010000Y-70510000D01*
X78510000Y-60010000D02*
X80300000Y-60010000D01*
X80300000Y-60010000D02*
X81260000Y-60970000D01*
X86760000Y-108510000D02*
X86760000Y-110760000D01*
X86760000Y-128510000D02*
X86760000Y-130194000D01*
X86760000Y-130194000D02*
X87249000Y-130683000D01*
X87249000Y-130683000D02*
X87010000Y-130510000D01*
X74060000Y-92355000D02*
X74060000Y-90760000D01*
X74060000Y-90760000D02*
X74260000Y-90560000D01*
X74060000Y-92355000D02*
X72355000Y-92355000D01*
X72355000Y-92355000D02*
X72010000Y-92010000D01*
X78760000Y-120260000D02*
X78760000Y-121715000D01*
X78760000Y-121715000D02*
X78665000Y-121810000D01*
X77395000Y-121810000D02*
X78665000Y-121810000D01*
X76260000Y-90560000D02*
X77710000Y-90560000D01*
X77710000Y-90560000D02*
X77760000Y-90510000D01*
X72260000Y-109510000D02*
X74040000Y-109510000D01*
X74040000Y-109510000D02*
X74060000Y-109490000D01*
X78560000Y-134990000D02*
X76780000Y-134990000D01*
X76780000Y-134990000D02*
X76760000Y-135010000D01*
X74855000Y-127210000D02*
X74855000Y-124855000D01*
X72510000Y-114760000D02*
X72510000Y-113260000D01*
X69760000Y-117510000D02*
X72510000Y-114760000D01*
X69760000Y-123010000D02*
X69760000Y-119760000D01*
X71010000Y-124260000D02*
X69760000Y-123010000D01*
X74260000Y-124260000D02*
X71010000Y-124260000D01*
X74855000Y-124855000D02*
X74260000Y-124260000D01*
X79460000Y-114570000D02*
X80700000Y-114570000D01*
X75720000Y-113300000D02*
X74060000Y-113300000D01*
X75760000Y-113260000D02*
X75720000Y-113300000D01*
X80700000Y-114570000D02*
X80760000Y-114510000D01*
X72510000Y-113260000D02*
X74020000Y-113260000D01*
X74020000Y-113260000D02*
X74060000Y-113300000D01*
X65760000Y-110760000D02*
X67210000Y-110760000D01*
X67210000Y-110760000D02*
X67260000Y-110810000D01*
X69260000Y-110810000D02*
X70960000Y-110810000D01*
X70960000Y-110810000D02*
X71010000Y-110760000D01*
X70010000Y-138760000D02*
X70010000Y-140560000D01*
X77760000Y-116260000D02*
X77760000Y-112613000D01*
X78343000Y-112030000D02*
X79460000Y-112030000D01*
X77760000Y-112613000D02*
X78343000Y-112030000D01*
X80990000Y-109490000D02*
X81010000Y-109510000D01*
X80756000Y-113300000D02*
X81260000Y-112796000D01*
X81260000Y-112796000D02*
X81260000Y-112260000D01*
X80756000Y-113300000D02*
X79460000Y-113300000D01*
X79460000Y-109490000D02*
X80990000Y-109490000D01*
X79460000Y-108220000D02*
X81220000Y-108220000D01*
X81220000Y-108220000D02*
X81260000Y-108260000D01*
X87510000Y-60010000D02*
X89300000Y-60010000D01*
X89300000Y-60010000D02*
X90260000Y-60970000D01*
X71760000Y-151010000D02*
X71760000Y-148260000D01*
X71760000Y-148260000D02*
X70510000Y-147010000D01*
X71760000Y-151010000D02*
X71760000Y-152659000D01*
X81800000Y-152515000D02*
X81800000Y-151010000D01*
X80772000Y-153543000D02*
X81800000Y-152515000D01*
X72644000Y-153543000D02*
X80772000Y-153543000D01*
X71760000Y-152659000D02*
X72644000Y-153543000D01*
X73310000Y-143875000D02*
X73310000Y-145145000D01*
X73310000Y-145145000D02*
X70875000Y-145145000D01*
X70875000Y-145145000D02*
X70510000Y-145510000D01*
X75260000Y-87310000D02*
X75260000Y-86010000D01*
X75970000Y-108220000D02*
X74060000Y-108220000D01*
X76010000Y-108260000D02*
X75970000Y-108220000D01*
X76125000Y-121810000D02*
X76125000Y-123645000D01*
X75240000Y-112030000D02*
X74060000Y-112030000D01*
X75260000Y-112010000D02*
X75240000Y-112030000D01*
X76125000Y-123645000D02*
X76010000Y-123760000D01*
X69760000Y-136310000D02*
X69760000Y-137010000D01*
X66740000Y-112030000D02*
X74060000Y-112030000D01*
X66510000Y-112260000D02*
X66740000Y-112030000D01*
X60010000Y-117510000D02*
X64010000Y-113510000D01*
X60010000Y-131260000D02*
X60010000Y-117510000D01*
X61260000Y-132510000D02*
X60010000Y-131260000D01*
X66510000Y-135260000D02*
X63760000Y-132510000D01*
X66510000Y-137510000D02*
X66510000Y-135260000D01*
X66760000Y-137760000D02*
X66510000Y-137510000D01*
X69010000Y-137760000D02*
X66760000Y-137760000D01*
X69760000Y-137010000D02*
X69010000Y-137760000D01*
X78710000Y-143875000D02*
X77375000Y-143875000D01*
X74560000Y-136310000D02*
X69760000Y-136310000D01*
X77010000Y-138760000D02*
X74560000Y-136310000D01*
X77010000Y-143510000D02*
X77010000Y-138760000D01*
X77375000Y-143875000D02*
X77010000Y-143510000D01*
X92260000Y-145020000D02*
X93250000Y-145020000D01*
X89260000Y-64510000D02*
X90260000Y-63510000D01*
X89260000Y-82510000D02*
X89260000Y-64510000D01*
X94760000Y-88010000D02*
X89260000Y-82510000D01*
X94760000Y-143510000D02*
X94760000Y-88010000D01*
X93250000Y-145020000D02*
X94760000Y-143510000D01*
X92260000Y-145020000D02*
X89720000Y-145020000D01*
X92260000Y-142480000D02*
X89720000Y-142480000D01*
D36*
G36*
X94633000Y-66512560D02*
X94010000Y-66512560D01*
X93774683Y-66556838D01*
X93558559Y-66695910D01*
X93413569Y-66908110D01*
X93362560Y-67160000D01*
X93362560Y-67270000D01*
X93076797Y-67270000D01*
X92986890Y-67208569D01*
X92735000Y-67157560D01*
X91185000Y-67157560D01*
X90949683Y-67201838D01*
X90733559Y-67340910D01*
X90588569Y-67553110D01*
X90537560Y-67805000D01*
X90537560Y-68405000D01*
X90581838Y-68640317D01*
X90645678Y-68739528D01*
X90588569Y-68823110D01*
X90537560Y-69075000D01*
X90537560Y-69675000D01*
X90581838Y-69910317D01*
X90645678Y-70009528D01*
X90588569Y-70093110D01*
X90537560Y-70345000D01*
X90537560Y-70945000D01*
X90581838Y-71180317D01*
X90645678Y-71279528D01*
X90588569Y-71363110D01*
X90537560Y-71615000D01*
X90537560Y-72215000D01*
X90581838Y-72450317D01*
X90720910Y-72666441D01*
X90933110Y-72811431D01*
X91185000Y-72862440D01*
X92476692Y-72862440D01*
X92414132Y-72925000D01*
X91187234Y-72925000D01*
X90946799Y-72825162D01*
X90574833Y-72824838D01*
X90231057Y-72966883D01*
X90095000Y-73102703D01*
X90095000Y-65007440D01*
X91110000Y-65007440D01*
X91345317Y-64963162D01*
X91561441Y-64824090D01*
X91706431Y-64611890D01*
X91757440Y-64360000D01*
X91757440Y-62660000D01*
X91713162Y-62424683D01*
X91574090Y-62208559D01*
X91361890Y-62063569D01*
X91305546Y-62052159D01*
X91310054Y-62049147D01*
X91631961Y-61567378D01*
X91745000Y-60999093D01*
X91745000Y-60940907D01*
X91631961Y-60372622D01*
X91310054Y-59890853D01*
X90828285Y-59568946D01*
X90260000Y-59455907D01*
X89982061Y-59511193D01*
X89890434Y-59419566D01*
X89776494Y-59343434D01*
X89619541Y-59238561D01*
X89300000Y-59175000D01*
X88266844Y-59175000D01*
X88224090Y-59108559D01*
X88011890Y-58963569D01*
X87760000Y-58912560D01*
X87260000Y-58912560D01*
X87024683Y-58956838D01*
X86808559Y-59095910D01*
X86760866Y-59165711D01*
X86724090Y-59108559D01*
X86511890Y-58963569D01*
X86260000Y-58912560D01*
X85760000Y-58912560D01*
X85749419Y-58914551D01*
X84664434Y-57829566D01*
X84393541Y-57648561D01*
X84074000Y-57585000D01*
X77343000Y-57585000D01*
X77023459Y-57648561D01*
X76752566Y-57829566D01*
X76419566Y-58162566D01*
X76238561Y-58433459D01*
X76175000Y-58753000D01*
X76175000Y-59291380D01*
X76163569Y-59308110D01*
X76112560Y-59560000D01*
X76112560Y-60460000D01*
X76115184Y-60473948D01*
X70721667Y-65867465D01*
X70481057Y-65966883D01*
X70217808Y-66229673D01*
X70095000Y-66525426D01*
X70095000Y-66010000D01*
X70031440Y-65690460D01*
X69850434Y-65419566D01*
X69350434Y-64919566D01*
X69241342Y-64846673D01*
X69079541Y-64738561D01*
X68760000Y-64675000D01*
X63010000Y-64675000D01*
X62690459Y-64738561D01*
X62528658Y-64846673D01*
X62419566Y-64919566D01*
X61169566Y-66169566D01*
X60988561Y-66440459D01*
X60925000Y-66760000D01*
X60925000Y-75010000D01*
X60988561Y-75329541D01*
X61165935Y-75595000D01*
X61169566Y-75600434D01*
X68117465Y-82548333D01*
X68216883Y-82788943D01*
X68352703Y-82925000D01*
X62760000Y-82925000D01*
X62440460Y-82988560D01*
X62169566Y-83169566D01*
X60419566Y-84919566D01*
X60238561Y-85190459D01*
X60175000Y-85510000D01*
X60175000Y-87445973D01*
X60010000Y-87412560D01*
X59510000Y-87412560D01*
X59274683Y-87456838D01*
X59058559Y-87595910D01*
X59010866Y-87665711D01*
X58974090Y-87608559D01*
X58761890Y-87463569D01*
X58510000Y-87412560D01*
X58010000Y-87412560D01*
X57774683Y-87456838D01*
X57558559Y-87595910D01*
X57413569Y-87808110D01*
X57362560Y-88060000D01*
X57362560Y-88960000D01*
X57406838Y-89195317D01*
X57425000Y-89223542D01*
X57425000Y-91760000D01*
X57488561Y-92079541D01*
X57548714Y-92169566D01*
X57669566Y-92350434D01*
X58919566Y-93600434D01*
X59190459Y-93781439D01*
X59510000Y-93845000D01*
X60582766Y-93845000D01*
X60823201Y-93944838D01*
X61195167Y-93945162D01*
X61538943Y-93803117D01*
X61802192Y-93540327D01*
X61899387Y-93306255D01*
X63425000Y-94831868D01*
X63425000Y-100265434D01*
X63290972Y-99812651D01*
X62949540Y-99390855D01*
X62472684Y-99131827D01*
X62401185Y-99117682D01*
X62187000Y-99240344D01*
X62187000Y-101083000D01*
X62207000Y-101083000D01*
X62207000Y-101337000D01*
X62187000Y-101337000D01*
X62187000Y-103179656D01*
X62401185Y-103302318D01*
X62472684Y-103288173D01*
X62949540Y-103029145D01*
X63290972Y-102607349D01*
X63425000Y-102154566D01*
X63425000Y-106575143D01*
X63074833Y-106574838D01*
X62731057Y-106716883D01*
X62467808Y-106979673D01*
X62367222Y-107221910D01*
X60669566Y-108919566D01*
X60488561Y-109190459D01*
X60425000Y-109510000D01*
X60425000Y-114332766D01*
X60325162Y-114573201D01*
X60324838Y-114945167D01*
X60466883Y-115288943D01*
X60729673Y-115552192D01*
X60770138Y-115568994D01*
X59419566Y-116919566D01*
X59238561Y-117190459D01*
X59175000Y-117510000D01*
X59175000Y-131260000D01*
X59238561Y-131579541D01*
X59328116Y-131713569D01*
X59419566Y-131850434D01*
X60367465Y-132798333D01*
X60466883Y-133038943D01*
X60729673Y-133302192D01*
X61073201Y-133444838D01*
X61445167Y-133445162D01*
X61788943Y-133303117D01*
X62052192Y-133040327D01*
X62194838Y-132696799D01*
X62195162Y-132324833D01*
X62053117Y-131981057D01*
X61790327Y-131717808D01*
X61548090Y-131617222D01*
X60845000Y-130914132D01*
X60845000Y-127295750D01*
X63275000Y-127295750D01*
X63275000Y-127586309D01*
X63371673Y-127819698D01*
X63550301Y-127998327D01*
X63783690Y-128095000D01*
X64024250Y-128095000D01*
X64183000Y-127936250D01*
X64183000Y-127137000D01*
X63433750Y-127137000D01*
X63275000Y-127295750D01*
X60845000Y-127295750D01*
X60845000Y-126433691D01*
X63275000Y-126433691D01*
X63275000Y-126724250D01*
X63433750Y-126883000D01*
X64183000Y-126883000D01*
X64183000Y-126083750D01*
X64024250Y-125925000D01*
X63783690Y-125925000D01*
X63550301Y-126021673D01*
X63371673Y-126200302D01*
X63275000Y-126433691D01*
X60845000Y-126433691D01*
X60845000Y-122627080D01*
X61170460Y-123029145D01*
X61647316Y-123288173D01*
X61718815Y-123302318D01*
X61933000Y-123179656D01*
X61933000Y-121337000D01*
X61913000Y-121337000D01*
X61913000Y-121083000D01*
X61933000Y-121083000D01*
X61933000Y-119240344D01*
X61718815Y-119117682D01*
X61647316Y-119131827D01*
X61170460Y-119390855D01*
X60845000Y-119792920D01*
X60845000Y-117855868D01*
X62574898Y-116125970D01*
X62574838Y-116195167D01*
X62716883Y-116538943D01*
X62979673Y-116802192D01*
X63323201Y-116944838D01*
X63695167Y-116945162D01*
X63937578Y-116845000D01*
X64102716Y-116845000D01*
X63967808Y-116979673D01*
X63867222Y-117221910D01*
X63169566Y-117919566D01*
X62988561Y-118190459D01*
X62925000Y-118510000D01*
X62925000Y-119377525D01*
X62472684Y-119131827D01*
X62401185Y-119117682D01*
X62187000Y-119240344D01*
X62187000Y-121083000D01*
X62207000Y-121083000D01*
X62207000Y-121337000D01*
X62187000Y-121337000D01*
X62187000Y-123179656D01*
X62401185Y-123302318D01*
X62472684Y-123288173D01*
X62925000Y-123042475D01*
X62925000Y-123332766D01*
X62825162Y-123573201D01*
X62824838Y-123945167D01*
X62966883Y-124288943D01*
X63229673Y-124552192D01*
X63573201Y-124694838D01*
X63945167Y-124695162D01*
X64288943Y-124553117D01*
X64552192Y-124290327D01*
X64685782Y-123968609D01*
X64915607Y-124312566D01*
X65283827Y-124558603D01*
X65718173Y-124645000D01*
X67801827Y-124645000D01*
X68236173Y-124558603D01*
X68604393Y-124312566D01*
X68850430Y-123944346D01*
X68936827Y-123510000D01*
X68850430Y-123075654D01*
X68604393Y-122707434D01*
X68236173Y-122461397D01*
X67801827Y-122375000D01*
X67595000Y-122375000D01*
X67595000Y-119345000D01*
X68919920Y-119345000D01*
X68825162Y-119573201D01*
X68824838Y-119945167D01*
X68925000Y-120187578D01*
X68925000Y-123010000D01*
X68988561Y-123329541D01*
X69152460Y-123574833D01*
X69169566Y-123600434D01*
X70419566Y-124850434D01*
X70690459Y-125031439D01*
X71010000Y-125095000D01*
X71870750Y-125095000D01*
X71908750Y-125133000D01*
X72883000Y-125133000D01*
X72883000Y-125113000D01*
X73137000Y-125113000D01*
X73137000Y-125133000D01*
X73157000Y-125133000D01*
X73157000Y-125387000D01*
X73137000Y-125387000D01*
X73137000Y-125407000D01*
X72883000Y-125407000D01*
X72883000Y-125387000D01*
X71908750Y-125387000D01*
X71750000Y-125545750D01*
X71750000Y-125886309D01*
X71846673Y-126119698D01*
X71899475Y-126172500D01*
X71771673Y-126300301D01*
X71675000Y-126533690D01*
X71675000Y-126774250D01*
X71833750Y-126933000D01*
X72633000Y-126933000D01*
X72633000Y-126913000D01*
X72887000Y-126913000D01*
X72887000Y-126933000D01*
X73686250Y-126933000D01*
X73845000Y-126774250D01*
X73845000Y-126533690D01*
X73783709Y-126385722D01*
X73929793Y-126325212D01*
X73907560Y-126435000D01*
X73907560Y-127985000D01*
X73943826Y-128177737D01*
X73696799Y-128075162D01*
X73625120Y-128075100D01*
X73534250Y-128013010D01*
X73569698Y-127998327D01*
X73748327Y-127819699D01*
X73845000Y-127586310D01*
X73845000Y-127345750D01*
X73686250Y-127187000D01*
X72887000Y-127187000D01*
X72887000Y-127207000D01*
X72633000Y-127207000D01*
X72633000Y-127187000D01*
X71833750Y-127187000D01*
X71747738Y-127273012D01*
X71674090Y-127158559D01*
X71461890Y-127013569D01*
X71210000Y-126962560D01*
X70310000Y-126962560D01*
X70157440Y-126991266D01*
X70157440Y-126560000D01*
X70113162Y-126324683D01*
X69974090Y-126108559D01*
X69761890Y-125963569D01*
X69510000Y-125912560D01*
X69010000Y-125912560D01*
X68774683Y-125956838D01*
X68558559Y-126095910D01*
X68510866Y-126165711D01*
X68474090Y-126108559D01*
X68261890Y-125963569D01*
X68010000Y-125912560D01*
X67510000Y-125912560D01*
X67274683Y-125956838D01*
X67058559Y-126095910D01*
X67057610Y-126097299D01*
X66861890Y-125963569D01*
X66610000Y-125912560D01*
X65810000Y-125912560D01*
X65574683Y-125956838D01*
X65358559Y-126095910D01*
X65263010Y-126235750D01*
X65248327Y-126200302D01*
X65069699Y-126021673D01*
X64836310Y-125925000D01*
X64595750Y-125925000D01*
X64437000Y-126083750D01*
X64437000Y-126883000D01*
X64457000Y-126883000D01*
X64457000Y-127137000D01*
X64437000Y-127137000D01*
X64437000Y-127936250D01*
X64523012Y-128022262D01*
X64408559Y-128095910D01*
X64263569Y-128308110D01*
X64212560Y-128560000D01*
X64212560Y-129460000D01*
X64256838Y-129695317D01*
X64393426Y-129907580D01*
X64362560Y-130060000D01*
X64362560Y-130960000D01*
X64406838Y-131195317D01*
X64486481Y-131319086D01*
X64488561Y-131329541D01*
X64604169Y-131502560D01*
X64669566Y-131600434D01*
X65169566Y-132100434D01*
X65440460Y-132281440D01*
X65760000Y-132345000D01*
X67312560Y-132345000D01*
X67312560Y-133326572D01*
X67169566Y-133469566D01*
X66988561Y-133740459D01*
X66925000Y-134060000D01*
X66925000Y-134494132D01*
X64652535Y-132221667D01*
X64553117Y-131981057D01*
X64290327Y-131717808D01*
X63946799Y-131575162D01*
X63574833Y-131574838D01*
X63231057Y-131716883D01*
X62967808Y-131979673D01*
X62825162Y-132323201D01*
X62824838Y-132695167D01*
X62966883Y-133038943D01*
X63229673Y-133302192D01*
X63471910Y-133402778D01*
X65675000Y-135605868D01*
X65675000Y-137510000D01*
X65738561Y-137829541D01*
X65884904Y-138048559D01*
X65919566Y-138100434D01*
X66169566Y-138350434D01*
X66440459Y-138531439D01*
X66760000Y-138595000D01*
X69010000Y-138595000D01*
X69112560Y-138574599D01*
X69112560Y-139180895D01*
X68974683Y-139206838D01*
X68758559Y-139345910D01*
X68613569Y-139558110D01*
X68562560Y-139810000D01*
X68562560Y-141310000D01*
X68580436Y-141405000D01*
X67155000Y-141405000D01*
X67145000Y-141406989D01*
X67145000Y-141170750D01*
X66986250Y-141012000D01*
X65887000Y-141012000D01*
X65887000Y-141032000D01*
X65633000Y-141032000D01*
X65633000Y-141012000D01*
X65613000Y-141012000D01*
X65613000Y-140758000D01*
X65633000Y-140758000D01*
X65633000Y-139433750D01*
X65887000Y-139433750D01*
X65887000Y-140758000D01*
X66986250Y-140758000D01*
X67145000Y-140599250D01*
X67145000Y-139783691D01*
X67048327Y-139550302D01*
X66869699Y-139371673D01*
X66636310Y-139275000D01*
X66045750Y-139275000D01*
X65887000Y-139433750D01*
X65633000Y-139433750D01*
X65474250Y-139275000D01*
X64883690Y-139275000D01*
X64650301Y-139371673D01*
X64471673Y-139550302D01*
X64375000Y-139783691D01*
X64375000Y-140351975D01*
X64244699Y-140221673D01*
X64011310Y-140125000D01*
X63545750Y-140125000D01*
X63387000Y-140283750D01*
X63387000Y-141133000D01*
X63407000Y-141133000D01*
X63407000Y-141387000D01*
X63387000Y-141387000D01*
X63387000Y-141407000D01*
X63133000Y-141407000D01*
X63133000Y-141387000D01*
X62158750Y-141387000D01*
X62000000Y-141545750D01*
X62000000Y-141886309D01*
X62096673Y-142119698D01*
X62237910Y-142260936D01*
X62183559Y-142295910D01*
X62038569Y-142508110D01*
X61987560Y-142760000D01*
X61987560Y-143760000D01*
X62031838Y-143995317D01*
X62170910Y-144211441D01*
X62383110Y-144356431D01*
X62635000Y-144407440D01*
X63885000Y-144407440D01*
X64120317Y-144363162D01*
X64336441Y-144224090D01*
X64362560Y-144185864D01*
X64362560Y-144610000D01*
X64406838Y-144845317D01*
X64545910Y-145061441D01*
X64758110Y-145206431D01*
X65010000Y-145257440D01*
X66510000Y-145257440D01*
X66716491Y-145218586D01*
X66738561Y-145329541D01*
X66835542Y-145474683D01*
X66919566Y-145600434D01*
X68169566Y-146850434D01*
X68440459Y-147031439D01*
X68660108Y-147075130D01*
X68510682Y-147075000D01*
X68385000Y-147050000D01*
X67157440Y-147050000D01*
X67157440Y-146910000D01*
X67113162Y-146674683D01*
X66974090Y-146458559D01*
X66761890Y-146313569D01*
X66510000Y-146262560D01*
X65010000Y-146262560D01*
X64774683Y-146306838D01*
X64558559Y-146445910D01*
X64413569Y-146658110D01*
X64362560Y-146910000D01*
X64362560Y-147050000D01*
X64336563Y-147050000D01*
X64136890Y-146913569D01*
X63885000Y-146862560D01*
X62635000Y-146862560D01*
X62399683Y-146906838D01*
X62183559Y-147045910D01*
X62038569Y-147258110D01*
X61987560Y-147510000D01*
X61987560Y-148510000D01*
X62031838Y-148745317D01*
X62170910Y-148961441D01*
X62239006Y-149007969D01*
X62096673Y-149150302D01*
X62000000Y-149383691D01*
X62000000Y-149724250D01*
X62158750Y-149883000D01*
X63133000Y-149883000D01*
X63133000Y-149863000D01*
X63387000Y-149863000D01*
X63387000Y-149883000D01*
X63407000Y-149883000D01*
X63407000Y-150137000D01*
X63387000Y-150137000D01*
X63387000Y-150986250D01*
X63545750Y-151145000D01*
X64011310Y-151145000D01*
X64244699Y-151048327D01*
X64423327Y-150869698D01*
X64467936Y-150762002D01*
X64533748Y-150762002D01*
X64375000Y-150920750D01*
X64375000Y-151736309D01*
X64471673Y-151969698D01*
X64650301Y-152148327D01*
X64883690Y-152245000D01*
X65474250Y-152245000D01*
X65633000Y-152086250D01*
X65633000Y-150762000D01*
X65887000Y-150762000D01*
X65887000Y-152086250D01*
X66045750Y-152245000D01*
X66636310Y-152245000D01*
X66869699Y-152148327D01*
X67048327Y-151969698D01*
X67145000Y-151736309D01*
X67145000Y-150920750D01*
X66986250Y-150762000D01*
X65887000Y-150762000D01*
X65633000Y-150762000D01*
X65613000Y-150762000D01*
X65613000Y-150508000D01*
X65633000Y-150508000D01*
X65633000Y-150488000D01*
X65887000Y-150488000D01*
X65887000Y-150508000D01*
X66986250Y-150508000D01*
X67145000Y-150349250D01*
X67145000Y-149533691D01*
X67048327Y-149300302D01*
X67006366Y-149258340D01*
X67106431Y-149111890D01*
X67157440Y-148860000D01*
X67157440Y-148720000D01*
X67897624Y-148720000D01*
X67979673Y-148802192D01*
X68323201Y-148944838D01*
X68695167Y-148945162D01*
X69038943Y-148803117D01*
X69302192Y-148540327D01*
X69444838Y-148196799D01*
X69445162Y-147824833D01*
X69303117Y-147481057D01*
X69040327Y-147217808D01*
X68730390Y-147089110D01*
X68760000Y-147095000D01*
X69412560Y-147095000D01*
X69412560Y-147260000D01*
X69456838Y-147495317D01*
X69595910Y-147711441D01*
X69808110Y-147856431D01*
X70060000Y-147907440D01*
X70226572Y-147907440D01*
X70925000Y-148605868D01*
X70925000Y-149462560D01*
X70860000Y-149462560D01*
X70624683Y-149506838D01*
X70408559Y-149645910D01*
X70263569Y-149858110D01*
X70212560Y-150110000D01*
X70212560Y-151910000D01*
X70256838Y-152145317D01*
X70395910Y-152361441D01*
X70608110Y-152506431D01*
X70860000Y-152557440D01*
X70925000Y-152557440D01*
X70925000Y-152659000D01*
X70988561Y-152978541D01*
X71152210Y-153223459D01*
X71169566Y-153249434D01*
X72053566Y-154133434D01*
X72324460Y-154314440D01*
X72644000Y-154378000D01*
X75258979Y-154378000D01*
X74915607Y-154607434D01*
X74669570Y-154975654D01*
X74583173Y-155410000D01*
X74669570Y-155844346D01*
X74915607Y-156212566D01*
X75283827Y-156458603D01*
X75718173Y-156545000D01*
X75925000Y-156545000D01*
X75925000Y-162375000D01*
X75718173Y-162375000D01*
X75283827Y-162461397D01*
X74915607Y-162707434D01*
X74669570Y-163075654D01*
X74583173Y-163510000D01*
X74669570Y-163944346D01*
X74915607Y-164312566D01*
X75021019Y-164383000D01*
X56887000Y-164383000D01*
X56887000Y-161337000D01*
X70675000Y-161337000D01*
X70675000Y-162087000D01*
X70829028Y-162607349D01*
X71170460Y-163029145D01*
X71647316Y-163288173D01*
X71718815Y-163302318D01*
X71933000Y-163179656D01*
X71933000Y-161337000D01*
X72187000Y-161337000D01*
X72187000Y-163179656D01*
X72401185Y-163302318D01*
X72472684Y-163288173D01*
X72949540Y-163029145D01*
X73290972Y-162607349D01*
X73445000Y-162087000D01*
X73445000Y-161337000D01*
X72187000Y-161337000D01*
X71933000Y-161337000D01*
X70675000Y-161337000D01*
X56887000Y-161337000D01*
X56887000Y-160333000D01*
X70675000Y-160333000D01*
X70675000Y-161083000D01*
X71933000Y-161083000D01*
X71933000Y-159240344D01*
X72187000Y-159240344D01*
X72187000Y-161083000D01*
X73445000Y-161083000D01*
X73445000Y-160333000D01*
X73290972Y-159812651D01*
X72949540Y-159390855D01*
X72472684Y-159131827D01*
X72401185Y-159117682D01*
X72187000Y-159240344D01*
X71933000Y-159240344D01*
X71718815Y-159117682D01*
X71647316Y-159131827D01*
X71170460Y-159390855D01*
X70829028Y-159812651D01*
X70675000Y-160333000D01*
X56887000Y-160333000D01*
X56887000Y-150295750D01*
X62000000Y-150295750D01*
X62000000Y-150636309D01*
X62096673Y-150869698D01*
X62275301Y-151048327D01*
X62508690Y-151145000D01*
X62974250Y-151145000D01*
X63133000Y-150986250D01*
X63133000Y-150137000D01*
X62158750Y-150137000D01*
X62000000Y-150295750D01*
X56887000Y-150295750D01*
X56887000Y-140633691D01*
X62000000Y-140633691D01*
X62000000Y-140974250D01*
X62158750Y-141133000D01*
X63133000Y-141133000D01*
X63133000Y-140283750D01*
X62974250Y-140125000D01*
X62508690Y-140125000D01*
X62275301Y-140221673D01*
X62096673Y-140400302D01*
X62000000Y-140633691D01*
X56887000Y-140633691D01*
X56887000Y-101337000D01*
X60675000Y-101337000D01*
X60675000Y-102087000D01*
X60829028Y-102607349D01*
X61170460Y-103029145D01*
X61647316Y-103288173D01*
X61718815Y-103302318D01*
X61933000Y-103179656D01*
X61933000Y-101337000D01*
X60675000Y-101337000D01*
X56887000Y-101337000D01*
X56887000Y-100333000D01*
X60675000Y-100333000D01*
X60675000Y-101083000D01*
X61933000Y-101083000D01*
X61933000Y-99240344D01*
X61718815Y-99117682D01*
X61647316Y-99131827D01*
X61170460Y-99390855D01*
X60829028Y-99812651D01*
X60675000Y-100333000D01*
X56887000Y-100333000D01*
X56887000Y-81333795D01*
X60324716Y-81333795D01*
X60573106Y-81934943D01*
X61032637Y-82395278D01*
X61633352Y-82644716D01*
X62283795Y-82645284D01*
X62884943Y-82396894D01*
X63345278Y-81937363D01*
X63594716Y-81336648D01*
X63595284Y-80686205D01*
X63346894Y-80085057D01*
X62887363Y-79624722D01*
X62286648Y-79375284D01*
X61636205Y-79374716D01*
X61035057Y-79623106D01*
X60574722Y-80082637D01*
X60325284Y-80683352D01*
X60324716Y-81333795D01*
X56887000Y-81333795D01*
X56887000Y-61333795D01*
X60324716Y-61333795D01*
X60573106Y-61934943D01*
X61032637Y-62395278D01*
X61633352Y-62644716D01*
X62283795Y-62645284D01*
X62884943Y-62396894D01*
X63345278Y-61937363D01*
X63594716Y-61336648D01*
X63594718Y-61333795D01*
X69924716Y-61333795D01*
X70173106Y-61934943D01*
X70632637Y-62395278D01*
X71233352Y-62644716D01*
X71883795Y-62645284D01*
X72484943Y-62396894D01*
X72945278Y-61937363D01*
X73194716Y-61336648D01*
X73195284Y-60686205D01*
X72946894Y-60085057D01*
X72487363Y-59624722D01*
X71886648Y-59375284D01*
X71236205Y-59374716D01*
X70635057Y-59623106D01*
X70174722Y-60082637D01*
X69925284Y-60683352D01*
X69924716Y-61333795D01*
X63594718Y-61333795D01*
X63595284Y-60686205D01*
X63346894Y-60085057D01*
X62887363Y-59624722D01*
X62286648Y-59375284D01*
X61636205Y-59374716D01*
X61035057Y-59623106D01*
X60574722Y-60082637D01*
X60325284Y-60683352D01*
X60324716Y-61333795D01*
X56887000Y-61333795D01*
X56887000Y-56695000D01*
X94633000Y-56695000D01*
X94633000Y-66512560D01*
X94633000Y-66512560D01*
G37*
X94633000Y-66512560D02*
X94010000Y-66512560D01*
X93774683Y-66556838D01*
X93558559Y-66695910D01*
X93413569Y-66908110D01*
X93362560Y-67160000D01*
X93362560Y-67270000D01*
X93076797Y-67270000D01*
X92986890Y-67208569D01*
X92735000Y-67157560D01*
X91185000Y-67157560D01*
X90949683Y-67201838D01*
X90733559Y-67340910D01*
X90588569Y-67553110D01*
X90537560Y-67805000D01*
X90537560Y-68405000D01*
X90581838Y-68640317D01*
X90645678Y-68739528D01*
X90588569Y-68823110D01*
X90537560Y-69075000D01*
X90537560Y-69675000D01*
X90581838Y-69910317D01*
X90645678Y-70009528D01*
X90588569Y-70093110D01*
X90537560Y-70345000D01*
X90537560Y-70945000D01*
X90581838Y-71180317D01*
X90645678Y-71279528D01*
X90588569Y-71363110D01*
X90537560Y-71615000D01*
X90537560Y-72215000D01*
X90581838Y-72450317D01*
X90720910Y-72666441D01*
X90933110Y-72811431D01*
X91185000Y-72862440D01*
X92476692Y-72862440D01*
X92414132Y-72925000D01*
X91187234Y-72925000D01*
X90946799Y-72825162D01*
X90574833Y-72824838D01*
X90231057Y-72966883D01*
X90095000Y-73102703D01*
X90095000Y-65007440D01*
X91110000Y-65007440D01*
X91345317Y-64963162D01*
X91561441Y-64824090D01*
X91706431Y-64611890D01*
X91757440Y-64360000D01*
X91757440Y-62660000D01*
X91713162Y-62424683D01*
X91574090Y-62208559D01*
X91361890Y-62063569D01*
X91305546Y-62052159D01*
X91310054Y-62049147D01*
X91631961Y-61567378D01*
X91745000Y-60999093D01*
X91745000Y-60940907D01*
X91631961Y-60372622D01*
X91310054Y-59890853D01*
X90828285Y-59568946D01*
X90260000Y-59455907D01*
X89982061Y-59511193D01*
X89890434Y-59419566D01*
X89776494Y-59343434D01*
X89619541Y-59238561D01*
X89300000Y-59175000D01*
X88266844Y-59175000D01*
X88224090Y-59108559D01*
X88011890Y-58963569D01*
X87760000Y-58912560D01*
X87260000Y-58912560D01*
X87024683Y-58956838D01*
X86808559Y-59095910D01*
X86760866Y-59165711D01*
X86724090Y-59108559D01*
X86511890Y-58963569D01*
X86260000Y-58912560D01*
X85760000Y-58912560D01*
X85749419Y-58914551D01*
X84664434Y-57829566D01*
X84393541Y-57648561D01*
X84074000Y-57585000D01*
X77343000Y-57585000D01*
X77023459Y-57648561D01*
X76752566Y-57829566D01*
X76419566Y-58162566D01*
X76238561Y-58433459D01*
X76175000Y-58753000D01*
X76175000Y-59291380D01*
X76163569Y-59308110D01*
X76112560Y-59560000D01*
X76112560Y-60460000D01*
X76115184Y-60473948D01*
X70721667Y-65867465D01*
X70481057Y-65966883D01*
X70217808Y-66229673D01*
X70095000Y-66525426D01*
X70095000Y-66010000D01*
X70031440Y-65690460D01*
X69850434Y-65419566D01*
X69350434Y-64919566D01*
X69241342Y-64846673D01*
X69079541Y-64738561D01*
X68760000Y-64675000D01*
X63010000Y-64675000D01*
X62690459Y-64738561D01*
X62528658Y-64846673D01*
X62419566Y-64919566D01*
X61169566Y-66169566D01*
X60988561Y-66440459D01*
X60925000Y-66760000D01*
X60925000Y-75010000D01*
X60988561Y-75329541D01*
X61165935Y-75595000D01*
X61169566Y-75600434D01*
X68117465Y-82548333D01*
X68216883Y-82788943D01*
X68352703Y-82925000D01*
X62760000Y-82925000D01*
X62440460Y-82988560D01*
X62169566Y-83169566D01*
X60419566Y-84919566D01*
X60238561Y-85190459D01*
X60175000Y-85510000D01*
X60175000Y-87445973D01*
X60010000Y-87412560D01*
X59510000Y-87412560D01*
X59274683Y-87456838D01*
X59058559Y-87595910D01*
X59010866Y-87665711D01*
X58974090Y-87608559D01*
X58761890Y-87463569D01*
X58510000Y-87412560D01*
X58010000Y-87412560D01*
X57774683Y-87456838D01*
X57558559Y-87595910D01*
X57413569Y-87808110D01*
X57362560Y-88060000D01*
X57362560Y-88960000D01*
X57406838Y-89195317D01*
X57425000Y-89223542D01*
X57425000Y-91760000D01*
X57488561Y-92079541D01*
X57548714Y-92169566D01*
X57669566Y-92350434D01*
X58919566Y-93600434D01*
X59190459Y-93781439D01*
X59510000Y-93845000D01*
X60582766Y-93845000D01*
X60823201Y-93944838D01*
X61195167Y-93945162D01*
X61538943Y-93803117D01*
X61802192Y-93540327D01*
X61899387Y-93306255D01*
X63425000Y-94831868D01*
X63425000Y-100265434D01*
X63290972Y-99812651D01*
X62949540Y-99390855D01*
X62472684Y-99131827D01*
X62401185Y-99117682D01*
X62187000Y-99240344D01*
X62187000Y-101083000D01*
X62207000Y-101083000D01*
X62207000Y-101337000D01*
X62187000Y-101337000D01*
X62187000Y-103179656D01*
X62401185Y-103302318D01*
X62472684Y-103288173D01*
X62949540Y-103029145D01*
X63290972Y-102607349D01*
X63425000Y-102154566D01*
X63425000Y-106575143D01*
X63074833Y-106574838D01*
X62731057Y-106716883D01*
X62467808Y-106979673D01*
X62367222Y-107221910D01*
X60669566Y-108919566D01*
X60488561Y-109190459D01*
X60425000Y-109510000D01*
X60425000Y-114332766D01*
X60325162Y-114573201D01*
X60324838Y-114945167D01*
X60466883Y-115288943D01*
X60729673Y-115552192D01*
X60770138Y-115568994D01*
X59419566Y-116919566D01*
X59238561Y-117190459D01*
X59175000Y-117510000D01*
X59175000Y-131260000D01*
X59238561Y-131579541D01*
X59328116Y-131713569D01*
X59419566Y-131850434D01*
X60367465Y-132798333D01*
X60466883Y-133038943D01*
X60729673Y-133302192D01*
X61073201Y-133444838D01*
X61445167Y-133445162D01*
X61788943Y-133303117D01*
X62052192Y-133040327D01*
X62194838Y-132696799D01*
X62195162Y-132324833D01*
X62053117Y-131981057D01*
X61790327Y-131717808D01*
X61548090Y-131617222D01*
X60845000Y-130914132D01*
X60845000Y-127295750D01*
X63275000Y-127295750D01*
X63275000Y-127586309D01*
X63371673Y-127819698D01*
X63550301Y-127998327D01*
X63783690Y-128095000D01*
X64024250Y-128095000D01*
X64183000Y-127936250D01*
X64183000Y-127137000D01*
X63433750Y-127137000D01*
X63275000Y-127295750D01*
X60845000Y-127295750D01*
X60845000Y-126433691D01*
X63275000Y-126433691D01*
X63275000Y-126724250D01*
X63433750Y-126883000D01*
X64183000Y-126883000D01*
X64183000Y-126083750D01*
X64024250Y-125925000D01*
X63783690Y-125925000D01*
X63550301Y-126021673D01*
X63371673Y-126200302D01*
X63275000Y-126433691D01*
X60845000Y-126433691D01*
X60845000Y-122627080D01*
X61170460Y-123029145D01*
X61647316Y-123288173D01*
X61718815Y-123302318D01*
X61933000Y-123179656D01*
X61933000Y-121337000D01*
X61913000Y-121337000D01*
X61913000Y-121083000D01*
X61933000Y-121083000D01*
X61933000Y-119240344D01*
X61718815Y-119117682D01*
X61647316Y-119131827D01*
X61170460Y-119390855D01*
X60845000Y-119792920D01*
X60845000Y-117855868D01*
X62574898Y-116125970D01*
X62574838Y-116195167D01*
X62716883Y-116538943D01*
X62979673Y-116802192D01*
X63323201Y-116944838D01*
X63695167Y-116945162D01*
X63937578Y-116845000D01*
X64102716Y-116845000D01*
X63967808Y-116979673D01*
X63867222Y-117221910D01*
X63169566Y-117919566D01*
X62988561Y-118190459D01*
X62925000Y-118510000D01*
X62925000Y-119377525D01*
X62472684Y-119131827D01*
X62401185Y-119117682D01*
X62187000Y-119240344D01*
X62187000Y-121083000D01*
X62207000Y-121083000D01*
X62207000Y-121337000D01*
X62187000Y-121337000D01*
X62187000Y-123179656D01*
X62401185Y-123302318D01*
X62472684Y-123288173D01*
X62925000Y-123042475D01*
X62925000Y-123332766D01*
X62825162Y-123573201D01*
X62824838Y-123945167D01*
X62966883Y-124288943D01*
X63229673Y-124552192D01*
X63573201Y-124694838D01*
X63945167Y-124695162D01*
X64288943Y-124553117D01*
X64552192Y-124290327D01*
X64685782Y-123968609D01*
X64915607Y-124312566D01*
X65283827Y-124558603D01*
X65718173Y-124645000D01*
X67801827Y-124645000D01*
X68236173Y-124558603D01*
X68604393Y-124312566D01*
X68850430Y-123944346D01*
X68936827Y-123510000D01*
X68850430Y-123075654D01*
X68604393Y-122707434D01*
X68236173Y-122461397D01*
X67801827Y-122375000D01*
X67595000Y-122375000D01*
X67595000Y-119345000D01*
X68919920Y-119345000D01*
X68825162Y-119573201D01*
X68824838Y-119945167D01*
X68925000Y-120187578D01*
X68925000Y-123010000D01*
X68988561Y-123329541D01*
X69152460Y-123574833D01*
X69169566Y-123600434D01*
X70419566Y-124850434D01*
X70690459Y-125031439D01*
X71010000Y-125095000D01*
X71870750Y-125095000D01*
X71908750Y-125133000D01*
X72883000Y-125133000D01*
X72883000Y-125113000D01*
X73137000Y-125113000D01*
X73137000Y-125133000D01*
X73157000Y-125133000D01*
X73157000Y-125387000D01*
X73137000Y-125387000D01*
X73137000Y-125407000D01*
X72883000Y-125407000D01*
X72883000Y-125387000D01*
X71908750Y-125387000D01*
X71750000Y-125545750D01*
X71750000Y-125886309D01*
X71846673Y-126119698D01*
X71899475Y-126172500D01*
X71771673Y-126300301D01*
X71675000Y-126533690D01*
X71675000Y-126774250D01*
X71833750Y-126933000D01*
X72633000Y-126933000D01*
X72633000Y-126913000D01*
X72887000Y-126913000D01*
X72887000Y-126933000D01*
X73686250Y-126933000D01*
X73845000Y-126774250D01*
X73845000Y-126533690D01*
X73783709Y-126385722D01*
X73929793Y-126325212D01*
X73907560Y-126435000D01*
X73907560Y-127985000D01*
X73943826Y-128177737D01*
X73696799Y-128075162D01*
X73625120Y-128075100D01*
X73534250Y-128013010D01*
X73569698Y-127998327D01*
X73748327Y-127819699D01*
X73845000Y-127586310D01*
X73845000Y-127345750D01*
X73686250Y-127187000D01*
X72887000Y-127187000D01*
X72887000Y-127207000D01*
X72633000Y-127207000D01*
X72633000Y-127187000D01*
X71833750Y-127187000D01*
X71747738Y-127273012D01*
X71674090Y-127158559D01*
X71461890Y-127013569D01*
X71210000Y-126962560D01*
X70310000Y-126962560D01*
X70157440Y-126991266D01*
X70157440Y-126560000D01*
X70113162Y-126324683D01*
X69974090Y-126108559D01*
X69761890Y-125963569D01*
X69510000Y-125912560D01*
X69010000Y-125912560D01*
X68774683Y-125956838D01*
X68558559Y-126095910D01*
X68510866Y-126165711D01*
X68474090Y-126108559D01*
X68261890Y-125963569D01*
X68010000Y-125912560D01*
X67510000Y-125912560D01*
X67274683Y-125956838D01*
X67058559Y-126095910D01*
X67057610Y-126097299D01*
X66861890Y-125963569D01*
X66610000Y-125912560D01*
X65810000Y-125912560D01*
X65574683Y-125956838D01*
X65358559Y-126095910D01*
X65263010Y-126235750D01*
X65248327Y-126200302D01*
X65069699Y-126021673D01*
X64836310Y-125925000D01*
X64595750Y-125925000D01*
X64437000Y-126083750D01*
X64437000Y-126883000D01*
X64457000Y-126883000D01*
X64457000Y-127137000D01*
X64437000Y-127137000D01*
X64437000Y-127936250D01*
X64523012Y-128022262D01*
X64408559Y-128095910D01*
X64263569Y-128308110D01*
X64212560Y-128560000D01*
X64212560Y-129460000D01*
X64256838Y-129695317D01*
X64393426Y-129907580D01*
X64362560Y-130060000D01*
X64362560Y-130960000D01*
X64406838Y-131195317D01*
X64486481Y-131319086D01*
X64488561Y-131329541D01*
X64604169Y-131502560D01*
X64669566Y-131600434D01*
X65169566Y-132100434D01*
X65440460Y-132281440D01*
X65760000Y-132345000D01*
X67312560Y-132345000D01*
X67312560Y-133326572D01*
X67169566Y-133469566D01*
X66988561Y-133740459D01*
X66925000Y-134060000D01*
X66925000Y-134494132D01*
X64652535Y-132221667D01*
X64553117Y-131981057D01*
X64290327Y-131717808D01*
X63946799Y-131575162D01*
X63574833Y-131574838D01*
X63231057Y-131716883D01*
X62967808Y-131979673D01*
X62825162Y-132323201D01*
X62824838Y-132695167D01*
X62966883Y-133038943D01*
X63229673Y-133302192D01*
X63471910Y-133402778D01*
X65675000Y-135605868D01*
X65675000Y-137510000D01*
X65738561Y-137829541D01*
X65884904Y-138048559D01*
X65919566Y-138100434D01*
X66169566Y-138350434D01*
X66440459Y-138531439D01*
X66760000Y-138595000D01*
X69010000Y-138595000D01*
X69112560Y-138574599D01*
X69112560Y-139180895D01*
X68974683Y-139206838D01*
X68758559Y-139345910D01*
X68613569Y-139558110D01*
X68562560Y-139810000D01*
X68562560Y-141310000D01*
X68580436Y-141405000D01*
X67155000Y-141405000D01*
X67145000Y-141406989D01*
X67145000Y-141170750D01*
X66986250Y-141012000D01*
X65887000Y-141012000D01*
X65887000Y-141032000D01*
X65633000Y-141032000D01*
X65633000Y-141012000D01*
X65613000Y-141012000D01*
X65613000Y-140758000D01*
X65633000Y-140758000D01*
X65633000Y-139433750D01*
X65887000Y-139433750D01*
X65887000Y-140758000D01*
X66986250Y-140758000D01*
X67145000Y-140599250D01*
X67145000Y-139783691D01*
X67048327Y-139550302D01*
X66869699Y-139371673D01*
X66636310Y-139275000D01*
X66045750Y-139275000D01*
X65887000Y-139433750D01*
X65633000Y-139433750D01*
X65474250Y-139275000D01*
X64883690Y-139275000D01*
X64650301Y-139371673D01*
X64471673Y-139550302D01*
X64375000Y-139783691D01*
X64375000Y-140351975D01*
X64244699Y-140221673D01*
X64011310Y-140125000D01*
X63545750Y-140125000D01*
X63387000Y-140283750D01*
X63387000Y-141133000D01*
X63407000Y-141133000D01*
X63407000Y-141387000D01*
X63387000Y-141387000D01*
X63387000Y-141407000D01*
X63133000Y-141407000D01*
X63133000Y-141387000D01*
X62158750Y-141387000D01*
X62000000Y-141545750D01*
X62000000Y-141886309D01*
X62096673Y-142119698D01*
X62237910Y-142260936D01*
X62183559Y-142295910D01*
X62038569Y-142508110D01*
X61987560Y-142760000D01*
X61987560Y-143760000D01*
X62031838Y-143995317D01*
X62170910Y-144211441D01*
X62383110Y-144356431D01*
X62635000Y-144407440D01*
X63885000Y-144407440D01*
X64120317Y-144363162D01*
X64336441Y-144224090D01*
X64362560Y-144185864D01*
X64362560Y-144610000D01*
X64406838Y-144845317D01*
X64545910Y-145061441D01*
X64758110Y-145206431D01*
X65010000Y-145257440D01*
X66510000Y-145257440D01*
X66716491Y-145218586D01*
X66738561Y-145329541D01*
X66835542Y-145474683D01*
X66919566Y-145600434D01*
X68169566Y-146850434D01*
X68440459Y-147031439D01*
X68660108Y-147075130D01*
X68510682Y-147075000D01*
X68385000Y-147050000D01*
X67157440Y-147050000D01*
X67157440Y-146910000D01*
X67113162Y-146674683D01*
X66974090Y-146458559D01*
X66761890Y-146313569D01*
X66510000Y-146262560D01*
X65010000Y-146262560D01*
X64774683Y-146306838D01*
X64558559Y-146445910D01*
X64413569Y-146658110D01*
X64362560Y-146910000D01*
X64362560Y-147050000D01*
X64336563Y-147050000D01*
X64136890Y-146913569D01*
X63885000Y-146862560D01*
X62635000Y-146862560D01*
X62399683Y-146906838D01*
X62183559Y-147045910D01*
X62038569Y-147258110D01*
X61987560Y-147510000D01*
X61987560Y-148510000D01*
X62031838Y-148745317D01*
X62170910Y-148961441D01*
X62239006Y-149007969D01*
X62096673Y-149150302D01*
X62000000Y-149383691D01*
X62000000Y-149724250D01*
X62158750Y-149883000D01*
X63133000Y-149883000D01*
X63133000Y-149863000D01*
X63387000Y-149863000D01*
X63387000Y-149883000D01*
X63407000Y-149883000D01*
X63407000Y-150137000D01*
X63387000Y-150137000D01*
X63387000Y-150986250D01*
X63545750Y-151145000D01*
X64011310Y-151145000D01*
X64244699Y-151048327D01*
X64423327Y-150869698D01*
X64467936Y-150762002D01*
X64533748Y-150762002D01*
X64375000Y-150920750D01*
X64375000Y-151736309D01*
X64471673Y-151969698D01*
X64650301Y-152148327D01*
X64883690Y-152245000D01*
X65474250Y-152245000D01*
X65633000Y-152086250D01*
X65633000Y-150762000D01*
X65887000Y-150762000D01*
X65887000Y-152086250D01*
X66045750Y-152245000D01*
X66636310Y-152245000D01*
X66869699Y-152148327D01*
X67048327Y-151969698D01*
X67145000Y-151736309D01*
X67145000Y-150920750D01*
X66986250Y-150762000D01*
X65887000Y-150762000D01*
X65633000Y-150762000D01*
X65613000Y-150762000D01*
X65613000Y-150508000D01*
X65633000Y-150508000D01*
X65633000Y-150488000D01*
X65887000Y-150488000D01*
X65887000Y-150508000D01*
X66986250Y-150508000D01*
X67145000Y-150349250D01*
X67145000Y-149533691D01*
X67048327Y-149300302D01*
X67006366Y-149258340D01*
X67106431Y-149111890D01*
X67157440Y-148860000D01*
X67157440Y-148720000D01*
X67897624Y-148720000D01*
X67979673Y-148802192D01*
X68323201Y-148944838D01*
X68695167Y-148945162D01*
X69038943Y-148803117D01*
X69302192Y-148540327D01*
X69444838Y-148196799D01*
X69445162Y-147824833D01*
X69303117Y-147481057D01*
X69040327Y-147217808D01*
X68730390Y-147089110D01*
X68760000Y-147095000D01*
X69412560Y-147095000D01*
X69412560Y-147260000D01*
X69456838Y-147495317D01*
X69595910Y-147711441D01*
X69808110Y-147856431D01*
X70060000Y-147907440D01*
X70226572Y-147907440D01*
X70925000Y-148605868D01*
X70925000Y-149462560D01*
X70860000Y-149462560D01*
X70624683Y-149506838D01*
X70408559Y-149645910D01*
X70263569Y-149858110D01*
X70212560Y-150110000D01*
X70212560Y-151910000D01*
X70256838Y-152145317D01*
X70395910Y-152361441D01*
X70608110Y-152506431D01*
X70860000Y-152557440D01*
X70925000Y-152557440D01*
X70925000Y-152659000D01*
X70988561Y-152978541D01*
X71152210Y-153223459D01*
X71169566Y-153249434D01*
X72053566Y-154133434D01*
X72324460Y-154314440D01*
X72644000Y-154378000D01*
X75258979Y-154378000D01*
X74915607Y-154607434D01*
X74669570Y-154975654D01*
X74583173Y-155410000D01*
X74669570Y-155844346D01*
X74915607Y-156212566D01*
X75283827Y-156458603D01*
X75718173Y-156545000D01*
X75925000Y-156545000D01*
X75925000Y-162375000D01*
X75718173Y-162375000D01*
X75283827Y-162461397D01*
X74915607Y-162707434D01*
X74669570Y-163075654D01*
X74583173Y-163510000D01*
X74669570Y-163944346D01*
X74915607Y-164312566D01*
X75021019Y-164383000D01*
X56887000Y-164383000D01*
X56887000Y-161337000D01*
X70675000Y-161337000D01*
X70675000Y-162087000D01*
X70829028Y-162607349D01*
X71170460Y-163029145D01*
X71647316Y-163288173D01*
X71718815Y-163302318D01*
X71933000Y-163179656D01*
X71933000Y-161337000D01*
X72187000Y-161337000D01*
X72187000Y-163179656D01*
X72401185Y-163302318D01*
X72472684Y-163288173D01*
X72949540Y-163029145D01*
X73290972Y-162607349D01*
X73445000Y-162087000D01*
X73445000Y-161337000D01*
X72187000Y-161337000D01*
X71933000Y-161337000D01*
X70675000Y-161337000D01*
X56887000Y-161337000D01*
X56887000Y-160333000D01*
X70675000Y-160333000D01*
X70675000Y-161083000D01*
X71933000Y-161083000D01*
X71933000Y-159240344D01*
X72187000Y-159240344D01*
X72187000Y-161083000D01*
X73445000Y-161083000D01*
X73445000Y-160333000D01*
X73290972Y-159812651D01*
X72949540Y-159390855D01*
X72472684Y-159131827D01*
X72401185Y-159117682D01*
X72187000Y-159240344D01*
X71933000Y-159240344D01*
X71718815Y-159117682D01*
X71647316Y-159131827D01*
X71170460Y-159390855D01*
X70829028Y-159812651D01*
X70675000Y-160333000D01*
X56887000Y-160333000D01*
X56887000Y-150295750D01*
X62000000Y-150295750D01*
X62000000Y-150636309D01*
X62096673Y-150869698D01*
X62275301Y-151048327D01*
X62508690Y-151145000D01*
X62974250Y-151145000D01*
X63133000Y-150986250D01*
X63133000Y-150137000D01*
X62158750Y-150137000D01*
X62000000Y-150295750D01*
X56887000Y-150295750D01*
X56887000Y-140633691D01*
X62000000Y-140633691D01*
X62000000Y-140974250D01*
X62158750Y-141133000D01*
X63133000Y-141133000D01*
X63133000Y-140283750D01*
X62974250Y-140125000D01*
X62508690Y-140125000D01*
X62275301Y-140221673D01*
X62096673Y-140400302D01*
X62000000Y-140633691D01*
X56887000Y-140633691D01*
X56887000Y-101337000D01*
X60675000Y-101337000D01*
X60675000Y-102087000D01*
X60829028Y-102607349D01*
X61170460Y-103029145D01*
X61647316Y-103288173D01*
X61718815Y-103302318D01*
X61933000Y-103179656D01*
X61933000Y-101337000D01*
X60675000Y-101337000D01*
X56887000Y-101337000D01*
X56887000Y-100333000D01*
X60675000Y-100333000D01*
X60675000Y-101083000D01*
X61933000Y-101083000D01*
X61933000Y-99240344D01*
X61718815Y-99117682D01*
X61647316Y-99131827D01*
X61170460Y-99390855D01*
X60829028Y-99812651D01*
X60675000Y-100333000D01*
X56887000Y-100333000D01*
X56887000Y-81333795D01*
X60324716Y-81333795D01*
X60573106Y-81934943D01*
X61032637Y-82395278D01*
X61633352Y-82644716D01*
X62283795Y-82645284D01*
X62884943Y-82396894D01*
X63345278Y-81937363D01*
X63594716Y-81336648D01*
X63595284Y-80686205D01*
X63346894Y-80085057D01*
X62887363Y-79624722D01*
X62286648Y-79375284D01*
X61636205Y-79374716D01*
X61035057Y-79623106D01*
X60574722Y-80082637D01*
X60325284Y-80683352D01*
X60324716Y-81333795D01*
X56887000Y-81333795D01*
X56887000Y-61333795D01*
X60324716Y-61333795D01*
X60573106Y-61934943D01*
X61032637Y-62395278D01*
X61633352Y-62644716D01*
X62283795Y-62645284D01*
X62884943Y-62396894D01*
X63345278Y-61937363D01*
X63594716Y-61336648D01*
X63594718Y-61333795D01*
X69924716Y-61333795D01*
X70173106Y-61934943D01*
X70632637Y-62395278D01*
X71233352Y-62644716D01*
X71883795Y-62645284D01*
X72484943Y-62396894D01*
X72945278Y-61937363D01*
X73194716Y-61336648D01*
X73195284Y-60686205D01*
X72946894Y-60085057D01*
X72487363Y-59624722D01*
X71886648Y-59375284D01*
X71236205Y-59374716D01*
X70635057Y-59623106D01*
X70174722Y-60082637D01*
X69925284Y-60683352D01*
X69924716Y-61333795D01*
X63594718Y-61333795D01*
X63595284Y-60686205D01*
X63346894Y-60085057D01*
X62887363Y-59624722D01*
X62286648Y-59375284D01*
X61636205Y-59374716D01*
X61035057Y-59623106D01*
X60574722Y-60082637D01*
X60325284Y-60683352D01*
X60324716Y-61333795D01*
X56887000Y-61333795D01*
X56887000Y-56695000D01*
X94633000Y-56695000D01*
X94633000Y-66512560D01*
G36*
X94633000Y-164383000D02*
X78498981Y-164383000D01*
X78604393Y-164312566D01*
X78850430Y-163944346D01*
X78936827Y-163510000D01*
X78850430Y-163075654D01*
X78604393Y-162707434D01*
X78236173Y-162461397D01*
X77801827Y-162375000D01*
X77595000Y-162375000D01*
X77595000Y-161337000D01*
X80075000Y-161337000D01*
X80075000Y-161637000D01*
X80229028Y-162157349D01*
X80570460Y-162579145D01*
X81047316Y-162838173D01*
X81118815Y-162852318D01*
X81333000Y-162729656D01*
X81333000Y-161337000D01*
X81587000Y-161337000D01*
X81587000Y-162729656D01*
X81801185Y-162852318D01*
X81872684Y-162838173D01*
X82349540Y-162579145D01*
X82690972Y-162157349D01*
X82845000Y-161637000D01*
X82845000Y-161337000D01*
X81587000Y-161337000D01*
X81333000Y-161337000D01*
X80075000Y-161337000D01*
X77595000Y-161337000D01*
X77595000Y-160783000D01*
X80075000Y-160783000D01*
X80075000Y-161083000D01*
X81333000Y-161083000D01*
X81333000Y-159690344D01*
X81587000Y-159690344D01*
X81587000Y-161083000D01*
X82845000Y-161083000D01*
X82845000Y-160783000D01*
X82690972Y-160262651D01*
X82349540Y-159840855D01*
X81872684Y-159581827D01*
X81801185Y-159567682D01*
X81587000Y-159690344D01*
X81333000Y-159690344D01*
X81118815Y-159567682D01*
X81047316Y-159581827D01*
X80570460Y-159840855D01*
X80229028Y-160262651D01*
X80075000Y-160783000D01*
X77595000Y-160783000D01*
X77595000Y-156545000D01*
X77801827Y-156545000D01*
X78236173Y-156458603D01*
X78555852Y-156245000D01*
X81688808Y-156245000D01*
X81795910Y-156411441D01*
X82008110Y-156556431D01*
X82260000Y-156607440D01*
X82760000Y-156607440D01*
X82995317Y-156563162D01*
X83211441Y-156424090D01*
X83259134Y-156354289D01*
X83295910Y-156411441D01*
X83508110Y-156556431D01*
X83760000Y-156607440D01*
X84260000Y-156607440D01*
X84495317Y-156563162D01*
X84711441Y-156424090D01*
X84856431Y-156211890D01*
X84907440Y-155960000D01*
X84907440Y-155060000D01*
X84863162Y-154824683D01*
X84845000Y-154796458D01*
X84845000Y-147275868D01*
X84925000Y-147355868D01*
X84925000Y-158260000D01*
X84988561Y-158579541D01*
X85101763Y-158748960D01*
X85169566Y-158850434D01*
X87169566Y-160850434D01*
X87440459Y-161031439D01*
X87760000Y-161095000D01*
X88490593Y-161095000D01*
X88660330Y-161349029D01*
X89146511Y-161673885D01*
X89720000Y-161787959D01*
X90293489Y-161673885D01*
X90779670Y-161349029D01*
X90788805Y-161335358D01*
X90793238Y-161358917D01*
X90932310Y-161575041D01*
X91144510Y-161720031D01*
X91396400Y-161771040D01*
X93123600Y-161771040D01*
X93358917Y-161726762D01*
X93575041Y-161587690D01*
X93720031Y-161375490D01*
X93771040Y-161123600D01*
X93771040Y-159396400D01*
X93726762Y-159161083D01*
X93587690Y-158944959D01*
X93375490Y-158799969D01*
X93278549Y-158780338D01*
X93466821Y-158608490D01*
X93714968Y-158079027D01*
X93594469Y-157847000D01*
X92387000Y-157847000D01*
X92387000Y-157867000D01*
X92133000Y-157867000D01*
X92133000Y-157847000D01*
X89847000Y-157847000D01*
X89847000Y-157867000D01*
X89593000Y-157867000D01*
X89593000Y-157847000D01*
X88385531Y-157847000D01*
X88265032Y-158079027D01*
X88513179Y-158608490D01*
X88931161Y-158990008D01*
X88660330Y-159170971D01*
X88490593Y-159425000D01*
X88105868Y-159425000D01*
X86595000Y-157914132D01*
X86595000Y-155539027D01*
X88265032Y-155539027D01*
X88513179Y-156068490D01*
X88931152Y-156450000D01*
X88513179Y-156831510D01*
X88265032Y-157360973D01*
X88385531Y-157593000D01*
X89593000Y-157593000D01*
X89593000Y-155307000D01*
X89847000Y-155307000D01*
X89847000Y-157593000D01*
X92133000Y-157593000D01*
X92133000Y-155307000D01*
X92387000Y-155307000D01*
X92387000Y-157593000D01*
X93594469Y-157593000D01*
X93714968Y-157360973D01*
X93466821Y-156831510D01*
X93048848Y-156450000D01*
X93466821Y-156068490D01*
X93714968Y-155539027D01*
X93594469Y-155307000D01*
X92387000Y-155307000D01*
X92133000Y-155307000D01*
X89847000Y-155307000D01*
X89593000Y-155307000D01*
X88385531Y-155307000D01*
X88265032Y-155539027D01*
X86595000Y-155539027D01*
X86595000Y-152999027D01*
X88265032Y-152999027D01*
X88513179Y-153528490D01*
X88931152Y-153910000D01*
X88513179Y-154291510D01*
X88265032Y-154820973D01*
X88385531Y-155053000D01*
X89593000Y-155053000D01*
X89593000Y-152767000D01*
X89847000Y-152767000D01*
X89847000Y-155053000D01*
X92133000Y-155053000D01*
X92133000Y-152767000D01*
X92387000Y-152767000D01*
X92387000Y-155053000D01*
X93594469Y-155053000D01*
X93714968Y-154820973D01*
X93466821Y-154291510D01*
X93048848Y-153910000D01*
X93466821Y-153528490D01*
X93714968Y-152999027D01*
X93594469Y-152767000D01*
X92387000Y-152767000D01*
X92133000Y-152767000D01*
X89847000Y-152767000D01*
X89593000Y-152767000D01*
X88385531Y-152767000D01*
X88265032Y-152999027D01*
X86595000Y-152999027D01*
X86595000Y-147525868D01*
X87219566Y-148150434D01*
X87490459Y-148331439D01*
X87810000Y-148395000D01*
X88490593Y-148395000D01*
X88660330Y-148649029D01*
X88931172Y-148830000D01*
X88660330Y-149010971D01*
X88335474Y-149497152D01*
X88221400Y-150070641D01*
X88221400Y-150129359D01*
X88335474Y-150702848D01*
X88660330Y-151189029D01*
X88931161Y-151369992D01*
X88513179Y-151751510D01*
X88265032Y-152280973D01*
X88385531Y-152513000D01*
X89593000Y-152513000D01*
X89593000Y-152493000D01*
X89847000Y-152493000D01*
X89847000Y-152513000D01*
X92133000Y-152513000D01*
X92133000Y-152493000D01*
X92387000Y-152493000D01*
X92387000Y-152513000D01*
X93594469Y-152513000D01*
X93714968Y-152280973D01*
X93466821Y-151751510D01*
X93048839Y-151369992D01*
X93319670Y-151189029D01*
X93644526Y-150702848D01*
X93758600Y-150129359D01*
X93758600Y-150070641D01*
X93644526Y-149497152D01*
X93319670Y-149010971D01*
X93048828Y-148830000D01*
X93319670Y-148649029D01*
X93644526Y-148162848D01*
X93758600Y-147589359D01*
X93758600Y-147530641D01*
X93644526Y-146957152D01*
X93319670Y-146470971D01*
X93048828Y-146290000D01*
X93319670Y-146109029D01*
X93526104Y-145800079D01*
X93569541Y-145791439D01*
X93840434Y-145610434D01*
X94633000Y-144817869D01*
X94633000Y-164383000D01*
X94633000Y-164383000D01*
G37*
X94633000Y-164383000D02*
X78498981Y-164383000D01*
X78604393Y-164312566D01*
X78850430Y-163944346D01*
X78936827Y-163510000D01*
X78850430Y-163075654D01*
X78604393Y-162707434D01*
X78236173Y-162461397D01*
X77801827Y-162375000D01*
X77595000Y-162375000D01*
X77595000Y-161337000D01*
X80075000Y-161337000D01*
X80075000Y-161637000D01*
X80229028Y-162157349D01*
X80570460Y-162579145D01*
X81047316Y-162838173D01*
X81118815Y-162852318D01*
X81333000Y-162729656D01*
X81333000Y-161337000D01*
X81587000Y-161337000D01*
X81587000Y-162729656D01*
X81801185Y-162852318D01*
X81872684Y-162838173D01*
X82349540Y-162579145D01*
X82690972Y-162157349D01*
X82845000Y-161637000D01*
X82845000Y-161337000D01*
X81587000Y-161337000D01*
X81333000Y-161337000D01*
X80075000Y-161337000D01*
X77595000Y-161337000D01*
X77595000Y-160783000D01*
X80075000Y-160783000D01*
X80075000Y-161083000D01*
X81333000Y-161083000D01*
X81333000Y-159690344D01*
X81587000Y-159690344D01*
X81587000Y-161083000D01*
X82845000Y-161083000D01*
X82845000Y-160783000D01*
X82690972Y-160262651D01*
X82349540Y-159840855D01*
X81872684Y-159581827D01*
X81801185Y-159567682D01*
X81587000Y-159690344D01*
X81333000Y-159690344D01*
X81118815Y-159567682D01*
X81047316Y-159581827D01*
X80570460Y-159840855D01*
X80229028Y-160262651D01*
X80075000Y-160783000D01*
X77595000Y-160783000D01*
X77595000Y-156545000D01*
X77801827Y-156545000D01*
X78236173Y-156458603D01*
X78555852Y-156245000D01*
X81688808Y-156245000D01*
X81795910Y-156411441D01*
X82008110Y-156556431D01*
X82260000Y-156607440D01*
X82760000Y-156607440D01*
X82995317Y-156563162D01*
X83211441Y-156424090D01*
X83259134Y-156354289D01*
X83295910Y-156411441D01*
X83508110Y-156556431D01*
X83760000Y-156607440D01*
X84260000Y-156607440D01*
X84495317Y-156563162D01*
X84711441Y-156424090D01*
X84856431Y-156211890D01*
X84907440Y-155960000D01*
X84907440Y-155060000D01*
X84863162Y-154824683D01*
X84845000Y-154796458D01*
X84845000Y-147275868D01*
X84925000Y-147355868D01*
X84925000Y-158260000D01*
X84988561Y-158579541D01*
X85101763Y-158748960D01*
X85169566Y-158850434D01*
X87169566Y-160850434D01*
X87440459Y-161031439D01*
X87760000Y-161095000D01*
X88490593Y-161095000D01*
X88660330Y-161349029D01*
X89146511Y-161673885D01*
X89720000Y-161787959D01*
X90293489Y-161673885D01*
X90779670Y-161349029D01*
X90788805Y-161335358D01*
X90793238Y-161358917D01*
X90932310Y-161575041D01*
X91144510Y-161720031D01*
X91396400Y-161771040D01*
X93123600Y-161771040D01*
X93358917Y-161726762D01*
X93575041Y-161587690D01*
X93720031Y-161375490D01*
X93771040Y-161123600D01*
X93771040Y-159396400D01*
X93726762Y-159161083D01*
X93587690Y-158944959D01*
X93375490Y-158799969D01*
X93278549Y-158780338D01*
X93466821Y-158608490D01*
X93714968Y-158079027D01*
X93594469Y-157847000D01*
X92387000Y-157847000D01*
X92387000Y-157867000D01*
X92133000Y-157867000D01*
X92133000Y-157847000D01*
X89847000Y-157847000D01*
X89847000Y-157867000D01*
X89593000Y-157867000D01*
X89593000Y-157847000D01*
X88385531Y-157847000D01*
X88265032Y-158079027D01*
X88513179Y-158608490D01*
X88931161Y-158990008D01*
X88660330Y-159170971D01*
X88490593Y-159425000D01*
X88105868Y-159425000D01*
X86595000Y-157914132D01*
X86595000Y-155539027D01*
X88265032Y-155539027D01*
X88513179Y-156068490D01*
X88931152Y-156450000D01*
X88513179Y-156831510D01*
X88265032Y-157360973D01*
X88385531Y-157593000D01*
X89593000Y-157593000D01*
X89593000Y-155307000D01*
X89847000Y-155307000D01*
X89847000Y-157593000D01*
X92133000Y-157593000D01*
X92133000Y-155307000D01*
X92387000Y-155307000D01*
X92387000Y-157593000D01*
X93594469Y-157593000D01*
X93714968Y-157360973D01*
X93466821Y-156831510D01*
X93048848Y-156450000D01*
X93466821Y-156068490D01*
X93714968Y-155539027D01*
X93594469Y-155307000D01*
X92387000Y-155307000D01*
X92133000Y-155307000D01*
X89847000Y-155307000D01*
X89593000Y-155307000D01*
X88385531Y-155307000D01*
X88265032Y-155539027D01*
X86595000Y-155539027D01*
X86595000Y-152999027D01*
X88265032Y-152999027D01*
X88513179Y-153528490D01*
X88931152Y-153910000D01*
X88513179Y-154291510D01*
X88265032Y-154820973D01*
X88385531Y-155053000D01*
X89593000Y-155053000D01*
X89593000Y-152767000D01*
X89847000Y-152767000D01*
X89847000Y-155053000D01*
X92133000Y-155053000D01*
X92133000Y-152767000D01*
X92387000Y-152767000D01*
X92387000Y-155053000D01*
X93594469Y-155053000D01*
X93714968Y-154820973D01*
X93466821Y-154291510D01*
X93048848Y-153910000D01*
X93466821Y-153528490D01*
X93714968Y-152999027D01*
X93594469Y-152767000D01*
X92387000Y-152767000D01*
X92133000Y-152767000D01*
X89847000Y-152767000D01*
X89593000Y-152767000D01*
X88385531Y-152767000D01*
X88265032Y-152999027D01*
X86595000Y-152999027D01*
X86595000Y-147525868D01*
X87219566Y-148150434D01*
X87490459Y-148331439D01*
X87810000Y-148395000D01*
X88490593Y-148395000D01*
X88660330Y-148649029D01*
X88931172Y-148830000D01*
X88660330Y-149010971D01*
X88335474Y-149497152D01*
X88221400Y-150070641D01*
X88221400Y-150129359D01*
X88335474Y-150702848D01*
X88660330Y-151189029D01*
X88931161Y-151369992D01*
X88513179Y-151751510D01*
X88265032Y-152280973D01*
X88385531Y-152513000D01*
X89593000Y-152513000D01*
X89593000Y-152493000D01*
X89847000Y-152493000D01*
X89847000Y-152513000D01*
X92133000Y-152513000D01*
X92133000Y-152493000D01*
X92387000Y-152493000D01*
X92387000Y-152513000D01*
X93594469Y-152513000D01*
X93714968Y-152280973D01*
X93466821Y-151751510D01*
X93048839Y-151369992D01*
X93319670Y-151189029D01*
X93644526Y-150702848D01*
X93758600Y-150129359D01*
X93758600Y-150070641D01*
X93644526Y-149497152D01*
X93319670Y-149010971D01*
X93048828Y-148830000D01*
X93319670Y-148649029D01*
X93644526Y-148162848D01*
X93758600Y-147589359D01*
X93758600Y-147530641D01*
X93644526Y-146957152D01*
X93319670Y-146470971D01*
X93048828Y-146290000D01*
X93319670Y-146109029D01*
X93526104Y-145800079D01*
X93569541Y-145791439D01*
X93840434Y-145610434D01*
X94633000Y-144817869D01*
X94633000Y-164383000D01*
G36*
X72165000Y-147250000D02*
X72193203Y-147250000D01*
X72283110Y-147311431D01*
X72535000Y-147362440D01*
X73931572Y-147362440D01*
X75669566Y-149100434D01*
X75940459Y-149281439D01*
X76260000Y-149345000D01*
X82522842Y-149345000D01*
X82729673Y-149552192D01*
X83073201Y-149694838D01*
X83175000Y-149694927D01*
X83175000Y-150318138D01*
X83102068Y-150141629D01*
X82670643Y-149709449D01*
X82106670Y-149475267D01*
X81496009Y-149474735D01*
X80931629Y-149707932D01*
X80754159Y-149885092D01*
X80698327Y-149750301D01*
X80519698Y-149571673D01*
X80286309Y-149475000D01*
X79545750Y-149475000D01*
X79387000Y-149633750D01*
X79387000Y-150883000D01*
X79407000Y-150883000D01*
X79407000Y-151137000D01*
X79387000Y-151137000D01*
X79387000Y-152386250D01*
X79545750Y-152545000D01*
X80286309Y-152545000D01*
X80519698Y-152448327D01*
X80698327Y-152269699D01*
X80754119Y-152135006D01*
X80876515Y-152257617D01*
X80426132Y-152708000D01*
X72989868Y-152708000D01*
X72810912Y-152529044D01*
X72895317Y-152513162D01*
X73111441Y-152374090D01*
X73250598Y-152170426D01*
X73284890Y-152204718D01*
X73399447Y-152090161D01*
X73485852Y-152346643D01*
X74059336Y-152556458D01*
X74669460Y-152530839D01*
X75114148Y-152346643D01*
X75200554Y-152090159D01*
X74300000Y-151189605D01*
X74285858Y-151203748D01*
X74106253Y-151024143D01*
X74120395Y-151010000D01*
X74479605Y-151010000D01*
X75380159Y-151910554D01*
X75636643Y-151824148D01*
X75829962Y-151295750D01*
X77725000Y-151295750D01*
X77725000Y-152036310D01*
X77821673Y-152269699D01*
X78000302Y-152448327D01*
X78233691Y-152545000D01*
X78974250Y-152545000D01*
X79133000Y-152386250D01*
X79133000Y-151137000D01*
X77883750Y-151137000D01*
X77725000Y-151295750D01*
X75829962Y-151295750D01*
X75846458Y-151250664D01*
X75820839Y-150640540D01*
X75636643Y-150195852D01*
X75380159Y-150109446D01*
X74479605Y-151010000D01*
X74120395Y-151010000D01*
X74106253Y-150995858D01*
X74285858Y-150816253D01*
X74300000Y-150830395D01*
X75146705Y-149983690D01*
X77725000Y-149983690D01*
X77725000Y-150724250D01*
X77883750Y-150883000D01*
X79133000Y-150883000D01*
X79133000Y-149633750D01*
X78974250Y-149475000D01*
X78233691Y-149475000D01*
X78000302Y-149571673D01*
X77821673Y-149750301D01*
X77725000Y-149983690D01*
X75146705Y-149983690D01*
X75200554Y-149929841D01*
X75114148Y-149673357D01*
X74540664Y-149463542D01*
X73930540Y-149489161D01*
X73485852Y-149673357D01*
X73399447Y-149929839D01*
X73284890Y-149815282D01*
X73248412Y-149851760D01*
X73124090Y-149658559D01*
X72911890Y-149513569D01*
X72660000Y-149462560D01*
X72595000Y-149462560D01*
X72595000Y-148260000D01*
X72531439Y-147940459D01*
X72350434Y-147669566D01*
X71872732Y-147191864D01*
X72165000Y-147250000D01*
X72165000Y-147250000D01*
G37*
X72165000Y-147250000D02*
X72193203Y-147250000D01*
X72283110Y-147311431D01*
X72535000Y-147362440D01*
X73931572Y-147362440D01*
X75669566Y-149100434D01*
X75940459Y-149281439D01*
X76260000Y-149345000D01*
X82522842Y-149345000D01*
X82729673Y-149552192D01*
X83073201Y-149694838D01*
X83175000Y-149694927D01*
X83175000Y-150318138D01*
X83102068Y-150141629D01*
X82670643Y-149709449D01*
X82106670Y-149475267D01*
X81496009Y-149474735D01*
X80931629Y-149707932D01*
X80754159Y-149885092D01*
X80698327Y-149750301D01*
X80519698Y-149571673D01*
X80286309Y-149475000D01*
X79545750Y-149475000D01*
X79387000Y-149633750D01*
X79387000Y-150883000D01*
X79407000Y-150883000D01*
X79407000Y-151137000D01*
X79387000Y-151137000D01*
X79387000Y-152386250D01*
X79545750Y-152545000D01*
X80286309Y-152545000D01*
X80519698Y-152448327D01*
X80698327Y-152269699D01*
X80754119Y-152135006D01*
X80876515Y-152257617D01*
X80426132Y-152708000D01*
X72989868Y-152708000D01*
X72810912Y-152529044D01*
X72895317Y-152513162D01*
X73111441Y-152374090D01*
X73250598Y-152170426D01*
X73284890Y-152204718D01*
X73399447Y-152090161D01*
X73485852Y-152346643D01*
X74059336Y-152556458D01*
X74669460Y-152530839D01*
X75114148Y-152346643D01*
X75200554Y-152090159D01*
X74300000Y-151189605D01*
X74285858Y-151203748D01*
X74106253Y-151024143D01*
X74120395Y-151010000D01*
X74479605Y-151010000D01*
X75380159Y-151910554D01*
X75636643Y-151824148D01*
X75829962Y-151295750D01*
X77725000Y-151295750D01*
X77725000Y-152036310D01*
X77821673Y-152269699D01*
X78000302Y-152448327D01*
X78233691Y-152545000D01*
X78974250Y-152545000D01*
X79133000Y-152386250D01*
X79133000Y-151137000D01*
X77883750Y-151137000D01*
X77725000Y-151295750D01*
X75829962Y-151295750D01*
X75846458Y-151250664D01*
X75820839Y-150640540D01*
X75636643Y-150195852D01*
X75380159Y-150109446D01*
X74479605Y-151010000D01*
X74120395Y-151010000D01*
X74106253Y-150995858D01*
X74285858Y-150816253D01*
X74300000Y-150830395D01*
X75146705Y-149983690D01*
X77725000Y-149983690D01*
X77725000Y-150724250D01*
X77883750Y-150883000D01*
X79133000Y-150883000D01*
X79133000Y-149633750D01*
X78974250Y-149475000D01*
X78233691Y-149475000D01*
X78000302Y-149571673D01*
X77821673Y-149750301D01*
X77725000Y-149983690D01*
X75146705Y-149983690D01*
X75200554Y-149929841D01*
X75114148Y-149673357D01*
X74540664Y-149463542D01*
X73930540Y-149489161D01*
X73485852Y-149673357D01*
X73399447Y-149929839D01*
X73284890Y-149815282D01*
X73248412Y-149851760D01*
X73124090Y-149658559D01*
X72911890Y-149513569D01*
X72660000Y-149462560D01*
X72595000Y-149462560D01*
X72595000Y-148260000D01*
X72531439Y-147940459D01*
X72350434Y-147669566D01*
X71872732Y-147191864D01*
X72165000Y-147250000D01*
G36*
X92675000Y-119812687D02*
X92487363Y-119624722D01*
X91886648Y-119375284D01*
X91236205Y-119374716D01*
X90635057Y-119623106D01*
X90174722Y-120082637D01*
X89925284Y-120683352D01*
X89924716Y-121333795D01*
X90173106Y-121934943D01*
X90632637Y-122395278D01*
X91233352Y-122644716D01*
X91883795Y-122645284D01*
X92484943Y-122396894D01*
X92675000Y-122207169D01*
X92675000Y-125636748D01*
X92481057Y-125716883D01*
X92217808Y-125979673D01*
X92075162Y-126323201D01*
X92074838Y-126695167D01*
X92216883Y-127038943D01*
X92479673Y-127302192D01*
X92823201Y-127444838D01*
X93195167Y-127445162D01*
X93538943Y-127303117D01*
X93802192Y-127040327D01*
X93902778Y-126798090D01*
X93925000Y-126775868D01*
X93925000Y-129503158D01*
X93736310Y-129425000D01*
X93495750Y-129425000D01*
X93337000Y-129583750D01*
X93337000Y-130383000D01*
X93357000Y-130383000D01*
X93357000Y-130637000D01*
X93337000Y-130637000D01*
X93337000Y-131436250D01*
X93495750Y-131595000D01*
X93736310Y-131595000D01*
X93925000Y-131516842D01*
X93925000Y-143164131D01*
X93222852Y-143866279D01*
X93048828Y-143750000D01*
X93319670Y-143569029D01*
X93644526Y-143082848D01*
X93758600Y-142509359D01*
X93758600Y-142450641D01*
X93644526Y-141877152D01*
X93319670Y-141390971D01*
X92833489Y-141066115D01*
X92260000Y-140952041D01*
X91686511Y-141066115D01*
X91200330Y-141390971D01*
X91030593Y-141645000D01*
X90949407Y-141645000D01*
X90779670Y-141390971D01*
X90293489Y-141066115D01*
X89720000Y-140952041D01*
X89146511Y-141066115D01*
X88660330Y-141390971D01*
X88335474Y-141877152D01*
X88221400Y-142450641D01*
X88221400Y-142509359D01*
X88335474Y-143082848D01*
X88660330Y-143569029D01*
X88931172Y-143750000D01*
X88660330Y-143930971D01*
X88335474Y-144417152D01*
X88221400Y-144990641D01*
X88221400Y-145049359D01*
X88335474Y-145622848D01*
X88660330Y-146109029D01*
X88931172Y-146290000D01*
X88660330Y-146470971D01*
X88490593Y-146725000D01*
X88155868Y-146725000D01*
X87220000Y-145789132D01*
X87220000Y-135907440D01*
X87360000Y-135907440D01*
X87595317Y-135863162D01*
X87759493Y-135757518D01*
X87800302Y-135798327D01*
X88033691Y-135895000D01*
X88849250Y-135895000D01*
X89008000Y-135736250D01*
X89008000Y-134637000D01*
X88988000Y-134637000D01*
X88988000Y-134383000D01*
X89008000Y-134383000D01*
X89008000Y-134363000D01*
X89262000Y-134363000D01*
X89262000Y-134383000D01*
X89282000Y-134383000D01*
X89282000Y-134637000D01*
X89262000Y-134637000D01*
X89262000Y-135736250D01*
X89420750Y-135895000D01*
X90236309Y-135895000D01*
X90469698Y-135798327D01*
X90648327Y-135619699D01*
X90745000Y-135386310D01*
X90745000Y-135308556D01*
X91073201Y-135444838D01*
X91445167Y-135445162D01*
X91788943Y-135303117D01*
X92052192Y-135040327D01*
X92194838Y-134696799D01*
X92195162Y-134324833D01*
X92095000Y-134082422D01*
X92095000Y-132859868D01*
X92850434Y-132104434D01*
X93031440Y-131833540D01*
X93095000Y-131514000D01*
X93095000Y-129434669D01*
X93111441Y-129424090D01*
X93256431Y-129211890D01*
X93307440Y-128960000D01*
X93307440Y-128060000D01*
X93263162Y-127824683D01*
X93124090Y-127608559D01*
X92911890Y-127463569D01*
X92660000Y-127412560D01*
X91860000Y-127412560D01*
X91624683Y-127456838D01*
X91408559Y-127595910D01*
X91263569Y-127808110D01*
X91212560Y-128060000D01*
X91212560Y-128960000D01*
X91256838Y-129195317D01*
X91395910Y-129411441D01*
X91397548Y-129412560D01*
X90910000Y-129412560D01*
X90674683Y-129456838D01*
X90537049Y-129545403D01*
X90645278Y-129437363D01*
X90894716Y-128836648D01*
X90895284Y-128186205D01*
X90646894Y-127585057D01*
X90187363Y-127124722D01*
X90095000Y-127086370D01*
X90095000Y-126510000D01*
X90031439Y-126190459D01*
X89850434Y-125919566D01*
X88600434Y-124669566D01*
X88546743Y-124633691D01*
X88329541Y-124488561D01*
X88010000Y-124425000D01*
X83855868Y-124425000D01*
X83025868Y-123595000D01*
X85510000Y-123595000D01*
X85829541Y-123531439D01*
X86100434Y-123350434D01*
X92675000Y-116775868D01*
X92675000Y-119812687D01*
X92675000Y-119812687D01*
G37*
X92675000Y-119812687D02*
X92487363Y-119624722D01*
X91886648Y-119375284D01*
X91236205Y-119374716D01*
X90635057Y-119623106D01*
X90174722Y-120082637D01*
X89925284Y-120683352D01*
X89924716Y-121333795D01*
X90173106Y-121934943D01*
X90632637Y-122395278D01*
X91233352Y-122644716D01*
X91883795Y-122645284D01*
X92484943Y-122396894D01*
X92675000Y-122207169D01*
X92675000Y-125636748D01*
X92481057Y-125716883D01*
X92217808Y-125979673D01*
X92075162Y-126323201D01*
X92074838Y-126695167D01*
X92216883Y-127038943D01*
X92479673Y-127302192D01*
X92823201Y-127444838D01*
X93195167Y-127445162D01*
X93538943Y-127303117D01*
X93802192Y-127040327D01*
X93902778Y-126798090D01*
X93925000Y-126775868D01*
X93925000Y-129503158D01*
X93736310Y-129425000D01*
X93495750Y-129425000D01*
X93337000Y-129583750D01*
X93337000Y-130383000D01*
X93357000Y-130383000D01*
X93357000Y-130637000D01*
X93337000Y-130637000D01*
X93337000Y-131436250D01*
X93495750Y-131595000D01*
X93736310Y-131595000D01*
X93925000Y-131516842D01*
X93925000Y-143164131D01*
X93222852Y-143866279D01*
X93048828Y-143750000D01*
X93319670Y-143569029D01*
X93644526Y-143082848D01*
X93758600Y-142509359D01*
X93758600Y-142450641D01*
X93644526Y-141877152D01*
X93319670Y-141390971D01*
X92833489Y-141066115D01*
X92260000Y-140952041D01*
X91686511Y-141066115D01*
X91200330Y-141390971D01*
X91030593Y-141645000D01*
X90949407Y-141645000D01*
X90779670Y-141390971D01*
X90293489Y-141066115D01*
X89720000Y-140952041D01*
X89146511Y-141066115D01*
X88660330Y-141390971D01*
X88335474Y-141877152D01*
X88221400Y-142450641D01*
X88221400Y-142509359D01*
X88335474Y-143082848D01*
X88660330Y-143569029D01*
X88931172Y-143750000D01*
X88660330Y-143930971D01*
X88335474Y-144417152D01*
X88221400Y-144990641D01*
X88221400Y-145049359D01*
X88335474Y-145622848D01*
X88660330Y-146109029D01*
X88931172Y-146290000D01*
X88660330Y-146470971D01*
X88490593Y-146725000D01*
X88155868Y-146725000D01*
X87220000Y-145789132D01*
X87220000Y-135907440D01*
X87360000Y-135907440D01*
X87595317Y-135863162D01*
X87759493Y-135757518D01*
X87800302Y-135798327D01*
X88033691Y-135895000D01*
X88849250Y-135895000D01*
X89008000Y-135736250D01*
X89008000Y-134637000D01*
X88988000Y-134637000D01*
X88988000Y-134383000D01*
X89008000Y-134383000D01*
X89008000Y-134363000D01*
X89262000Y-134363000D01*
X89262000Y-134383000D01*
X89282000Y-134383000D01*
X89282000Y-134637000D01*
X89262000Y-134637000D01*
X89262000Y-135736250D01*
X89420750Y-135895000D01*
X90236309Y-135895000D01*
X90469698Y-135798327D01*
X90648327Y-135619699D01*
X90745000Y-135386310D01*
X90745000Y-135308556D01*
X91073201Y-135444838D01*
X91445167Y-135445162D01*
X91788943Y-135303117D01*
X92052192Y-135040327D01*
X92194838Y-134696799D01*
X92195162Y-134324833D01*
X92095000Y-134082422D01*
X92095000Y-132859868D01*
X92850434Y-132104434D01*
X93031440Y-131833540D01*
X93095000Y-131514000D01*
X93095000Y-129434669D01*
X93111441Y-129424090D01*
X93256431Y-129211890D01*
X93307440Y-128960000D01*
X93307440Y-128060000D01*
X93263162Y-127824683D01*
X93124090Y-127608559D01*
X92911890Y-127463569D01*
X92660000Y-127412560D01*
X91860000Y-127412560D01*
X91624683Y-127456838D01*
X91408559Y-127595910D01*
X91263569Y-127808110D01*
X91212560Y-128060000D01*
X91212560Y-128960000D01*
X91256838Y-129195317D01*
X91395910Y-129411441D01*
X91397548Y-129412560D01*
X90910000Y-129412560D01*
X90674683Y-129456838D01*
X90537049Y-129545403D01*
X90645278Y-129437363D01*
X90894716Y-128836648D01*
X90895284Y-128186205D01*
X90646894Y-127585057D01*
X90187363Y-127124722D01*
X90095000Y-127086370D01*
X90095000Y-126510000D01*
X90031439Y-126190459D01*
X89850434Y-125919566D01*
X88600434Y-124669566D01*
X88546743Y-124633691D01*
X88329541Y-124488561D01*
X88010000Y-124425000D01*
X83855868Y-124425000D01*
X83025868Y-123595000D01*
X85510000Y-123595000D01*
X85829541Y-123531439D01*
X86100434Y-123350434D01*
X92675000Y-116775868D01*
X92675000Y-119812687D01*
G36*
X69137000Y-143683000D02*
X69157000Y-143683000D01*
X69157000Y-143937000D01*
X69137000Y-143937000D01*
X69137000Y-144886250D01*
X69295750Y-145045000D01*
X69456099Y-145045000D01*
X69412560Y-145260000D01*
X69412560Y-145425000D01*
X69105868Y-145425000D01*
X68725059Y-145044191D01*
X68883000Y-144886250D01*
X68883000Y-143937000D01*
X68863000Y-143937000D01*
X68863000Y-143683000D01*
X68883000Y-143683000D01*
X68883000Y-143663000D01*
X69137000Y-143663000D01*
X69137000Y-143683000D01*
X69137000Y-143683000D01*
G37*
X69137000Y-143683000D02*
X69157000Y-143683000D01*
X69157000Y-143937000D01*
X69137000Y-143937000D01*
X69137000Y-144886250D01*
X69295750Y-145045000D01*
X69456099Y-145045000D01*
X69412560Y-145260000D01*
X69412560Y-145425000D01*
X69105868Y-145425000D01*
X68725059Y-145044191D01*
X68883000Y-144886250D01*
X68883000Y-143937000D01*
X68863000Y-143937000D01*
X68863000Y-143683000D01*
X68883000Y-143683000D01*
X68883000Y-143663000D01*
X69137000Y-143663000D01*
X69137000Y-143683000D01*
G36*
X79979673Y-135302192D02*
X80323201Y-135444838D01*
X80695167Y-135445162D01*
X80925000Y-135350197D01*
X80925000Y-140675000D01*
X79870984Y-140675000D01*
X79945000Y-140496310D01*
X79945000Y-140355750D01*
X79786250Y-140197000D01*
X78687000Y-140197000D01*
X78687000Y-140846250D01*
X78845750Y-141005000D01*
X79129132Y-141005000D01*
X78476572Y-141657560D01*
X77935000Y-141657560D01*
X77845000Y-141674495D01*
X77845000Y-141005000D01*
X78274250Y-141005000D01*
X78433000Y-140846250D01*
X78433000Y-140197000D01*
X78413000Y-140197000D01*
X78413000Y-139943000D01*
X78433000Y-139943000D01*
X78433000Y-139923000D01*
X78687000Y-139923000D01*
X78687000Y-139943000D01*
X79786250Y-139943000D01*
X79945000Y-139784250D01*
X79945000Y-139643690D01*
X79855194Y-139426878D01*
X79906431Y-139351890D01*
X79957440Y-139100000D01*
X79957440Y-138500000D01*
X79913162Y-138264683D01*
X79849322Y-138165472D01*
X79906431Y-138081890D01*
X79957440Y-137830000D01*
X79957440Y-137230000D01*
X79913162Y-136994683D01*
X79849322Y-136895472D01*
X79906431Y-136811890D01*
X79957440Y-136560000D01*
X79957440Y-135960000D01*
X79913162Y-135724683D01*
X79849322Y-135625472D01*
X79906431Y-135541890D01*
X79957440Y-135290000D01*
X79957440Y-135279920D01*
X79979673Y-135302192D01*
X79979673Y-135302192D01*
G37*
X79979673Y-135302192D02*
X80323201Y-135444838D01*
X80695167Y-135445162D01*
X80925000Y-135350197D01*
X80925000Y-140675000D01*
X79870984Y-140675000D01*
X79945000Y-140496310D01*
X79945000Y-140355750D01*
X79786250Y-140197000D01*
X78687000Y-140197000D01*
X78687000Y-140846250D01*
X78845750Y-141005000D01*
X79129132Y-141005000D01*
X78476572Y-141657560D01*
X77935000Y-141657560D01*
X77845000Y-141674495D01*
X77845000Y-141005000D01*
X78274250Y-141005000D01*
X78433000Y-140846250D01*
X78433000Y-140197000D01*
X78413000Y-140197000D01*
X78413000Y-139943000D01*
X78433000Y-139943000D01*
X78433000Y-139923000D01*
X78687000Y-139923000D01*
X78687000Y-139943000D01*
X79786250Y-139943000D01*
X79945000Y-139784250D01*
X79945000Y-139643690D01*
X79855194Y-139426878D01*
X79906431Y-139351890D01*
X79957440Y-139100000D01*
X79957440Y-138500000D01*
X79913162Y-138264683D01*
X79849322Y-138165472D01*
X79906431Y-138081890D01*
X79957440Y-137830000D01*
X79957440Y-137230000D01*
X79913162Y-136994683D01*
X79849322Y-136895472D01*
X79906431Y-136811890D01*
X79957440Y-136560000D01*
X79957440Y-135960000D01*
X79913162Y-135724683D01*
X79849322Y-135625472D01*
X79906431Y-135541890D01*
X79957440Y-135290000D01*
X79957440Y-135279920D01*
X79979673Y-135302192D01*
G36*
X84453748Y-128495858D02*
X84439605Y-128510000D01*
X85412532Y-129482927D01*
X85418722Y-129480639D01*
X85832637Y-129895278D01*
X85925000Y-129933630D01*
X85925000Y-130194000D01*
X85988561Y-130513541D01*
X86112560Y-130699119D01*
X86112560Y-130960000D01*
X86156838Y-131195317D01*
X86295910Y-131411441D01*
X86441083Y-131510633D01*
X86308559Y-131595910D01*
X86260866Y-131665711D01*
X86224090Y-131608559D01*
X86011890Y-131463569D01*
X85760000Y-131412560D01*
X85260000Y-131412560D01*
X85024683Y-131456838D01*
X84895311Y-131540086D01*
X84795000Y-131519773D01*
X84795000Y-131460000D01*
X84731439Y-131140459D01*
X84550434Y-130869566D01*
X84157440Y-130476572D01*
X84157440Y-130149914D01*
X84645460Y-130131856D01*
X85134264Y-129929387D01*
X85232927Y-129662532D01*
X84260000Y-128689605D01*
X84245858Y-128703748D01*
X84066253Y-128524143D01*
X84080395Y-128510000D01*
X84066253Y-128495858D01*
X84245858Y-128316253D01*
X84260000Y-128330395D01*
X84274143Y-128316253D01*
X84453748Y-128495858D01*
X84453748Y-128495858D01*
G37*
X84453748Y-128495858D02*
X84439605Y-128510000D01*
X85412532Y-129482927D01*
X85418722Y-129480639D01*
X85832637Y-129895278D01*
X85925000Y-129933630D01*
X85925000Y-130194000D01*
X85988561Y-130513541D01*
X86112560Y-130699119D01*
X86112560Y-130960000D01*
X86156838Y-131195317D01*
X86295910Y-131411441D01*
X86441083Y-131510633D01*
X86308559Y-131595910D01*
X86260866Y-131665711D01*
X86224090Y-131608559D01*
X86011890Y-131463569D01*
X85760000Y-131412560D01*
X85260000Y-131412560D01*
X85024683Y-131456838D01*
X84895311Y-131540086D01*
X84795000Y-131519773D01*
X84795000Y-131460000D01*
X84731439Y-131140459D01*
X84550434Y-130869566D01*
X84157440Y-130476572D01*
X84157440Y-130149914D01*
X84645460Y-130131856D01*
X85134264Y-129929387D01*
X85232927Y-129662532D01*
X84260000Y-128689605D01*
X84245858Y-128703748D01*
X84066253Y-128524143D01*
X84080395Y-128510000D01*
X84066253Y-128495858D01*
X84245858Y-128316253D01*
X84260000Y-128330395D01*
X84274143Y-128316253D01*
X84453748Y-128495858D01*
G36*
X81137000Y-130383000D02*
X81157000Y-130383000D01*
X81157000Y-130637000D01*
X81137000Y-130637000D01*
X81137000Y-130657000D01*
X80883000Y-130657000D01*
X80883000Y-130637000D01*
X80863000Y-130637000D01*
X80863000Y-130383000D01*
X80883000Y-130383000D01*
X80883000Y-130363000D01*
X81137000Y-130363000D01*
X81137000Y-130383000D01*
X81137000Y-130383000D01*
G37*
X81137000Y-130383000D02*
X81157000Y-130383000D01*
X81157000Y-130637000D01*
X81137000Y-130637000D01*
X81137000Y-130657000D01*
X80883000Y-130657000D01*
X80883000Y-130637000D01*
X80863000Y-130637000D01*
X80863000Y-130383000D01*
X80883000Y-130383000D01*
X80883000Y-130363000D01*
X81137000Y-130363000D01*
X81137000Y-130383000D01*
G36*
X82993186Y-127422794D02*
X83107466Y-127537074D01*
X82840613Y-127635736D01*
X82614092Y-128245461D01*
X82638144Y-128895460D01*
X82779846Y-129237560D01*
X82510000Y-129237560D01*
X82274683Y-129281838D01*
X82058559Y-129420910D01*
X82012031Y-129489006D01*
X81908025Y-129385000D01*
X81923327Y-129369698D01*
X82020000Y-129136309D01*
X82020000Y-128795750D01*
X81861250Y-128637000D01*
X80887000Y-128637000D01*
X80887000Y-128657000D01*
X80633000Y-128657000D01*
X80633000Y-128637000D01*
X80613000Y-128637000D01*
X80613000Y-128383000D01*
X80633000Y-128383000D01*
X80633000Y-128363000D01*
X80887000Y-128363000D01*
X80887000Y-128383000D01*
X81861250Y-128383000D01*
X82020000Y-128224250D01*
X82020000Y-127883691D01*
X81923327Y-127650302D01*
X81782090Y-127509064D01*
X81836441Y-127474090D01*
X81924644Y-127345000D01*
X83070980Y-127345000D01*
X82993186Y-127422794D01*
X82993186Y-127422794D01*
G37*
X82993186Y-127422794D02*
X83107466Y-127537074D01*
X82840613Y-127635736D01*
X82614092Y-128245461D01*
X82638144Y-128895460D01*
X82779846Y-129237560D01*
X82510000Y-129237560D01*
X82274683Y-129281838D01*
X82058559Y-129420910D01*
X82012031Y-129489006D01*
X81908025Y-129385000D01*
X81923327Y-129369698D01*
X82020000Y-129136309D01*
X82020000Y-128795750D01*
X81861250Y-128637000D01*
X80887000Y-128637000D01*
X80887000Y-128657000D01*
X80633000Y-128657000D01*
X80633000Y-128637000D01*
X80613000Y-128637000D01*
X80613000Y-128383000D01*
X80633000Y-128383000D01*
X80633000Y-128363000D01*
X80887000Y-128363000D01*
X80887000Y-128383000D01*
X81861250Y-128383000D01*
X82020000Y-128224250D01*
X82020000Y-127883691D01*
X81923327Y-127650302D01*
X81782090Y-127509064D01*
X81836441Y-127474090D01*
X81924644Y-127345000D01*
X83070980Y-127345000D01*
X82993186Y-127422794D01*
G36*
X73825162Y-120573201D02*
X73824838Y-120945167D01*
X73837165Y-120975000D01*
X73460000Y-120975000D01*
X73140459Y-121038561D01*
X72962544Y-121157440D01*
X72869566Y-121219566D01*
X72752132Y-121337000D01*
X71587000Y-121337000D01*
X71587000Y-122729656D01*
X71737560Y-122815880D01*
X71737560Y-123425000D01*
X71355868Y-123425000D01*
X70595000Y-122664132D01*
X70595000Y-122592475D01*
X71047316Y-122838173D01*
X71118815Y-122852318D01*
X71333000Y-122729656D01*
X71333000Y-121337000D01*
X71313000Y-121337000D01*
X71313000Y-121083000D01*
X71333000Y-121083000D01*
X71333000Y-121063000D01*
X71587000Y-121063000D01*
X71587000Y-121083000D01*
X72845000Y-121083000D01*
X72845000Y-120783000D01*
X72715348Y-120345000D01*
X73919920Y-120345000D01*
X73825162Y-120573201D01*
X73825162Y-120573201D01*
G37*
X73825162Y-120573201D02*
X73824838Y-120945167D01*
X73837165Y-120975000D01*
X73460000Y-120975000D01*
X73140459Y-121038561D01*
X72962544Y-121157440D01*
X72869566Y-121219566D01*
X72752132Y-121337000D01*
X71587000Y-121337000D01*
X71587000Y-122729656D01*
X71737560Y-122815880D01*
X71737560Y-123425000D01*
X71355868Y-123425000D01*
X70595000Y-122664132D01*
X70595000Y-122592475D01*
X71047316Y-122838173D01*
X71118815Y-122852318D01*
X71333000Y-122729656D01*
X71333000Y-121337000D01*
X71313000Y-121337000D01*
X71313000Y-121083000D01*
X71333000Y-121083000D01*
X71333000Y-121063000D01*
X71587000Y-121063000D01*
X71587000Y-121083000D01*
X72845000Y-121083000D01*
X72845000Y-120783000D01*
X72715348Y-120345000D01*
X73919920Y-120345000D01*
X73825162Y-120573201D01*
G36*
X83933352Y-110144716D02*
X84395949Y-110145120D01*
X84362560Y-110310000D01*
X84362560Y-111210000D01*
X84406838Y-111445317D01*
X84425000Y-111473542D01*
X84425000Y-112260000D01*
X84488561Y-112579541D01*
X84609140Y-112760000D01*
X84669566Y-112850434D01*
X85169566Y-113350434D01*
X85440460Y-113531440D01*
X85760000Y-113595000D01*
X89760000Y-113595000D01*
X90079541Y-113531439D01*
X90350434Y-113350434D01*
X91675000Y-112025868D01*
X91675000Y-115414132D01*
X85164132Y-121925000D01*
X83350412Y-121925000D01*
X83594716Y-121336648D01*
X83595284Y-120686205D01*
X83346894Y-120085057D01*
X82887363Y-119624722D01*
X82286648Y-119375284D01*
X81636205Y-119374716D01*
X81035057Y-119623106D01*
X80905684Y-119752253D01*
X80850434Y-119669566D01*
X80679156Y-119498288D01*
X80889949Y-119357440D01*
X81210000Y-119357440D01*
X81445317Y-119313162D01*
X81661441Y-119174090D01*
X81806431Y-118961890D01*
X81857440Y-118710000D01*
X81857440Y-117910000D01*
X81813162Y-117674683D01*
X81674090Y-117458559D01*
X81461890Y-117313569D01*
X81210000Y-117262560D01*
X80310000Y-117262560D01*
X80074683Y-117306838D01*
X79858559Y-117445910D01*
X79713569Y-117658110D01*
X79662560Y-117910000D01*
X79662560Y-117925000D01*
X79478620Y-117925000D01*
X79461890Y-117913569D01*
X79210000Y-117862560D01*
X79043428Y-117862560D01*
X78600434Y-117419566D01*
X78458656Y-117324833D01*
X78345097Y-117248955D01*
X78461441Y-117174090D01*
X78509134Y-117104289D01*
X78545910Y-117161441D01*
X78758110Y-117306431D01*
X79010000Y-117357440D01*
X79510000Y-117357440D01*
X79745317Y-117313162D01*
X79961441Y-117174090D01*
X79972704Y-117157607D01*
X80183690Y-117245000D01*
X80474250Y-117245000D01*
X80633000Y-117086250D01*
X80633000Y-116337000D01*
X80887000Y-116337000D01*
X80887000Y-117086250D01*
X81045750Y-117245000D01*
X81336310Y-117245000D01*
X81569699Y-117148327D01*
X81748327Y-116969698D01*
X81845000Y-116736309D01*
X81845000Y-116495750D01*
X81686250Y-116337000D01*
X80887000Y-116337000D01*
X80633000Y-116337000D01*
X80613000Y-116337000D01*
X80613000Y-116083000D01*
X80633000Y-116083000D01*
X80633000Y-116063000D01*
X80887000Y-116063000D01*
X80887000Y-116083000D01*
X81686250Y-116083000D01*
X81723589Y-116045661D01*
X81979673Y-116302192D01*
X82323201Y-116444838D01*
X82695167Y-116445162D01*
X83038943Y-116303117D01*
X83302192Y-116040327D01*
X83444838Y-115696799D01*
X83445162Y-115324833D01*
X83345000Y-115082422D01*
X83345000Y-110228620D01*
X83356431Y-110211890D01*
X83407440Y-109960000D01*
X83407440Y-109926339D01*
X83933352Y-110144716D01*
X83933352Y-110144716D01*
G37*
X83933352Y-110144716D02*
X84395949Y-110145120D01*
X84362560Y-110310000D01*
X84362560Y-111210000D01*
X84406838Y-111445317D01*
X84425000Y-111473542D01*
X84425000Y-112260000D01*
X84488561Y-112579541D01*
X84609140Y-112760000D01*
X84669566Y-112850434D01*
X85169566Y-113350434D01*
X85440460Y-113531440D01*
X85760000Y-113595000D01*
X89760000Y-113595000D01*
X90079541Y-113531439D01*
X90350434Y-113350434D01*
X91675000Y-112025868D01*
X91675000Y-115414132D01*
X85164132Y-121925000D01*
X83350412Y-121925000D01*
X83594716Y-121336648D01*
X83595284Y-120686205D01*
X83346894Y-120085057D01*
X82887363Y-119624722D01*
X82286648Y-119375284D01*
X81636205Y-119374716D01*
X81035057Y-119623106D01*
X80905684Y-119752253D01*
X80850434Y-119669566D01*
X80679156Y-119498288D01*
X80889949Y-119357440D01*
X81210000Y-119357440D01*
X81445317Y-119313162D01*
X81661441Y-119174090D01*
X81806431Y-118961890D01*
X81857440Y-118710000D01*
X81857440Y-117910000D01*
X81813162Y-117674683D01*
X81674090Y-117458559D01*
X81461890Y-117313569D01*
X81210000Y-117262560D01*
X80310000Y-117262560D01*
X80074683Y-117306838D01*
X79858559Y-117445910D01*
X79713569Y-117658110D01*
X79662560Y-117910000D01*
X79662560Y-117925000D01*
X79478620Y-117925000D01*
X79461890Y-117913569D01*
X79210000Y-117862560D01*
X79043428Y-117862560D01*
X78600434Y-117419566D01*
X78458656Y-117324833D01*
X78345097Y-117248955D01*
X78461441Y-117174090D01*
X78509134Y-117104289D01*
X78545910Y-117161441D01*
X78758110Y-117306431D01*
X79010000Y-117357440D01*
X79510000Y-117357440D01*
X79745317Y-117313162D01*
X79961441Y-117174090D01*
X79972704Y-117157607D01*
X80183690Y-117245000D01*
X80474250Y-117245000D01*
X80633000Y-117086250D01*
X80633000Y-116337000D01*
X80887000Y-116337000D01*
X80887000Y-117086250D01*
X81045750Y-117245000D01*
X81336310Y-117245000D01*
X81569699Y-117148327D01*
X81748327Y-116969698D01*
X81845000Y-116736309D01*
X81845000Y-116495750D01*
X81686250Y-116337000D01*
X80887000Y-116337000D01*
X80633000Y-116337000D01*
X80613000Y-116337000D01*
X80613000Y-116083000D01*
X80633000Y-116083000D01*
X80633000Y-116063000D01*
X80887000Y-116063000D01*
X80887000Y-116083000D01*
X81686250Y-116083000D01*
X81723589Y-116045661D01*
X81979673Y-116302192D01*
X82323201Y-116444838D01*
X82695167Y-116445162D01*
X83038943Y-116303117D01*
X83302192Y-116040327D01*
X83444838Y-115696799D01*
X83445162Y-115324833D01*
X83345000Y-115082422D01*
X83345000Y-110228620D01*
X83356431Y-110211890D01*
X83407440Y-109960000D01*
X83407440Y-109926339D01*
X83933352Y-110144716D01*
G36*
X76675000Y-110510000D02*
X76738561Y-110829541D01*
X76859140Y-111010000D01*
X76919566Y-111100434D01*
X77169566Y-111350434D01*
X77440459Y-111531439D01*
X77624153Y-111567978D01*
X77169566Y-112022566D01*
X76988561Y-112293459D01*
X76925000Y-112613000D01*
X76925000Y-115541380D01*
X76913569Y-115558110D01*
X76884868Y-115699838D01*
X76760000Y-115675000D01*
X73687234Y-115675000D01*
X73446799Y-115575162D01*
X73074833Y-115574838D01*
X72736047Y-115714821D01*
X73015525Y-115435343D01*
X73183691Y-115505000D01*
X73774250Y-115505000D01*
X73933000Y-115346250D01*
X73933000Y-114697000D01*
X74187000Y-114697000D01*
X74187000Y-115346250D01*
X74345750Y-115505000D01*
X74936309Y-115505000D01*
X75169698Y-115408327D01*
X75348327Y-115229699D01*
X75445000Y-114996310D01*
X75445000Y-114855750D01*
X75286250Y-114697000D01*
X74187000Y-114697000D01*
X73933000Y-114697000D01*
X73913000Y-114697000D01*
X73913000Y-114443000D01*
X73933000Y-114443000D01*
X73933000Y-114423000D01*
X74187000Y-114423000D01*
X74187000Y-114443000D01*
X75286250Y-114443000D01*
X75445000Y-114284250D01*
X75445000Y-114143690D01*
X75443956Y-114141171D01*
X75573201Y-114194838D01*
X75945167Y-114195162D01*
X76288943Y-114053117D01*
X76552192Y-113790327D01*
X76694838Y-113446799D01*
X76695162Y-113074833D01*
X76553117Y-112731057D01*
X76290327Y-112467808D01*
X76112898Y-112394132D01*
X76194838Y-112196799D01*
X76195162Y-111824833D01*
X76053117Y-111481057D01*
X75790327Y-111217808D01*
X75446799Y-111075162D01*
X75445000Y-111075160D01*
X75445000Y-111045750D01*
X75286250Y-110887000D01*
X74187000Y-110887000D01*
X74187000Y-110907000D01*
X73933000Y-110907000D01*
X73933000Y-110887000D01*
X72635000Y-110887000D01*
X72635000Y-110907000D01*
X72385000Y-110907000D01*
X72385000Y-110887000D01*
X72363000Y-110887000D01*
X72363000Y-110633000D01*
X72385000Y-110633000D01*
X72385000Y-110613000D01*
X72635000Y-110613000D01*
X72635000Y-110633000D01*
X73933000Y-110633000D01*
X73933000Y-110613000D01*
X74187000Y-110613000D01*
X74187000Y-110633000D01*
X75286250Y-110633000D01*
X75445000Y-110474250D01*
X75445000Y-110333690D01*
X75355194Y-110116878D01*
X75406431Y-110041890D01*
X75457440Y-109790000D01*
X75457440Y-109190000D01*
X75432038Y-109055000D01*
X75486435Y-109055000D01*
X75823201Y-109194838D01*
X76195167Y-109195162D01*
X76538943Y-109053117D01*
X76675000Y-108917297D01*
X76675000Y-110510000D01*
X76675000Y-110510000D01*
G37*
X76675000Y-110510000D02*
X76738561Y-110829541D01*
X76859140Y-111010000D01*
X76919566Y-111100434D01*
X77169566Y-111350434D01*
X77440459Y-111531439D01*
X77624153Y-111567978D01*
X77169566Y-112022566D01*
X76988561Y-112293459D01*
X76925000Y-112613000D01*
X76925000Y-115541380D01*
X76913569Y-115558110D01*
X76884868Y-115699838D01*
X76760000Y-115675000D01*
X73687234Y-115675000D01*
X73446799Y-115575162D01*
X73074833Y-115574838D01*
X72736047Y-115714821D01*
X73015525Y-115435343D01*
X73183691Y-115505000D01*
X73774250Y-115505000D01*
X73933000Y-115346250D01*
X73933000Y-114697000D01*
X74187000Y-114697000D01*
X74187000Y-115346250D01*
X74345750Y-115505000D01*
X74936309Y-115505000D01*
X75169698Y-115408327D01*
X75348327Y-115229699D01*
X75445000Y-114996310D01*
X75445000Y-114855750D01*
X75286250Y-114697000D01*
X74187000Y-114697000D01*
X73933000Y-114697000D01*
X73913000Y-114697000D01*
X73913000Y-114443000D01*
X73933000Y-114443000D01*
X73933000Y-114423000D01*
X74187000Y-114423000D01*
X74187000Y-114443000D01*
X75286250Y-114443000D01*
X75445000Y-114284250D01*
X75445000Y-114143690D01*
X75443956Y-114141171D01*
X75573201Y-114194838D01*
X75945167Y-114195162D01*
X76288943Y-114053117D01*
X76552192Y-113790327D01*
X76694838Y-113446799D01*
X76695162Y-113074833D01*
X76553117Y-112731057D01*
X76290327Y-112467808D01*
X76112898Y-112394132D01*
X76194838Y-112196799D01*
X76195162Y-111824833D01*
X76053117Y-111481057D01*
X75790327Y-111217808D01*
X75446799Y-111075162D01*
X75445000Y-111075160D01*
X75445000Y-111045750D01*
X75286250Y-110887000D01*
X74187000Y-110887000D01*
X74187000Y-110907000D01*
X73933000Y-110907000D01*
X73933000Y-110887000D01*
X72635000Y-110887000D01*
X72635000Y-110907000D01*
X72385000Y-110907000D01*
X72385000Y-110887000D01*
X72363000Y-110887000D01*
X72363000Y-110633000D01*
X72385000Y-110633000D01*
X72385000Y-110613000D01*
X72635000Y-110613000D01*
X72635000Y-110633000D01*
X73933000Y-110633000D01*
X73933000Y-110613000D01*
X74187000Y-110613000D01*
X74187000Y-110633000D01*
X75286250Y-110633000D01*
X75445000Y-110474250D01*
X75445000Y-110333690D01*
X75355194Y-110116878D01*
X75406431Y-110041890D01*
X75457440Y-109790000D01*
X75457440Y-109190000D01*
X75432038Y-109055000D01*
X75486435Y-109055000D01*
X75823201Y-109194838D01*
X76195167Y-109195162D01*
X76538943Y-109053117D01*
X76675000Y-108917297D01*
X76675000Y-110510000D01*
G36*
X85425000Y-94105868D02*
X85425000Y-101510000D01*
X85488561Y-101829541D01*
X85652460Y-102074833D01*
X85669566Y-102100434D01*
X90675000Y-107105868D01*
X90675000Y-107634114D01*
X90412532Y-107537073D01*
X89439605Y-108510000D01*
X90412532Y-109482927D01*
X90675000Y-109385886D01*
X90675000Y-110664132D01*
X89414132Y-111925000D01*
X86105868Y-111925000D01*
X86095000Y-111914132D01*
X86095000Y-111694983D01*
X86258110Y-111806431D01*
X86510000Y-111857440D01*
X87010000Y-111857440D01*
X87245317Y-111813162D01*
X87461441Y-111674090D01*
X87606431Y-111461890D01*
X87657440Y-111210000D01*
X87657440Y-110310000D01*
X87613162Y-110074683D01*
X87595000Y-110046458D01*
X87595000Y-109934058D01*
X87684943Y-109896894D01*
X87919715Y-109662532D01*
X88287073Y-109662532D01*
X88385736Y-109929387D01*
X88995461Y-110155908D01*
X89645460Y-110131856D01*
X90134264Y-109929387D01*
X90232927Y-109662532D01*
X89260000Y-108689605D01*
X88287073Y-109662532D01*
X87919715Y-109662532D01*
X88101752Y-109480813D01*
X88107468Y-109482927D01*
X89080395Y-108510000D01*
X88107468Y-107537073D01*
X88101278Y-107539361D01*
X87919703Y-107357468D01*
X88287073Y-107357468D01*
X89260000Y-108330395D01*
X90232927Y-107357468D01*
X90134264Y-107090613D01*
X89524539Y-106864092D01*
X88874540Y-106888144D01*
X88385736Y-107090613D01*
X88287073Y-107357468D01*
X87919703Y-107357468D01*
X87687363Y-107124722D01*
X87086648Y-106875284D01*
X86436205Y-106874716D01*
X85835057Y-107123106D01*
X85509836Y-107447759D01*
X85187363Y-107124722D01*
X85095000Y-107086370D01*
X85095000Y-99760000D01*
X85031439Y-99440459D01*
X84850434Y-99169566D01*
X83350434Y-97669566D01*
X83079541Y-97488561D01*
X82760000Y-97425000D01*
X82467656Y-97425000D01*
X82531440Y-97329540D01*
X82595000Y-97010000D01*
X82595000Y-92760000D01*
X82531439Y-92440459D01*
X82350434Y-92169566D01*
X81845000Y-91664132D01*
X81845000Y-90937234D01*
X81944838Y-90696799D01*
X81944900Y-90625768D01*
X85425000Y-94105868D01*
X85425000Y-94105868D01*
G37*
X85425000Y-94105868D02*
X85425000Y-101510000D01*
X85488561Y-101829541D01*
X85652460Y-102074833D01*
X85669566Y-102100434D01*
X90675000Y-107105868D01*
X90675000Y-107634114D01*
X90412532Y-107537073D01*
X89439605Y-108510000D01*
X90412532Y-109482927D01*
X90675000Y-109385886D01*
X90675000Y-110664132D01*
X89414132Y-111925000D01*
X86105868Y-111925000D01*
X86095000Y-111914132D01*
X86095000Y-111694983D01*
X86258110Y-111806431D01*
X86510000Y-111857440D01*
X87010000Y-111857440D01*
X87245317Y-111813162D01*
X87461441Y-111674090D01*
X87606431Y-111461890D01*
X87657440Y-111210000D01*
X87657440Y-110310000D01*
X87613162Y-110074683D01*
X87595000Y-110046458D01*
X87595000Y-109934058D01*
X87684943Y-109896894D01*
X87919715Y-109662532D01*
X88287073Y-109662532D01*
X88385736Y-109929387D01*
X88995461Y-110155908D01*
X89645460Y-110131856D01*
X90134264Y-109929387D01*
X90232927Y-109662532D01*
X89260000Y-108689605D01*
X88287073Y-109662532D01*
X87919715Y-109662532D01*
X88101752Y-109480813D01*
X88107468Y-109482927D01*
X89080395Y-108510000D01*
X88107468Y-107537073D01*
X88101278Y-107539361D01*
X87919703Y-107357468D01*
X88287073Y-107357468D01*
X89260000Y-108330395D01*
X90232927Y-107357468D01*
X90134264Y-107090613D01*
X89524539Y-106864092D01*
X88874540Y-106888144D01*
X88385736Y-107090613D01*
X88287073Y-107357468D01*
X87919703Y-107357468D01*
X87687363Y-107124722D01*
X87086648Y-106875284D01*
X86436205Y-106874716D01*
X85835057Y-107123106D01*
X85509836Y-107447759D01*
X85187363Y-107124722D01*
X85095000Y-107086370D01*
X85095000Y-99760000D01*
X85031439Y-99440459D01*
X84850434Y-99169566D01*
X83350434Y-97669566D01*
X83079541Y-97488561D01*
X82760000Y-97425000D01*
X82467656Y-97425000D01*
X82531440Y-97329540D01*
X82595000Y-97010000D01*
X82595000Y-92760000D01*
X82531439Y-92440459D01*
X82350434Y-92169566D01*
X81845000Y-91664132D01*
X81845000Y-90937234D01*
X81944838Y-90696799D01*
X81944900Y-90625768D01*
X85425000Y-94105868D01*
G36*
X69419566Y-98850434D02*
X69690460Y-99031440D01*
X70010000Y-99095000D01*
X75332766Y-99095000D01*
X75375055Y-99112560D01*
X75135000Y-99112560D01*
X74899683Y-99156838D01*
X74683559Y-99295910D01*
X74595356Y-99425000D01*
X74510000Y-99425000D01*
X74190459Y-99488561D01*
X73986680Y-99624722D01*
X73919566Y-99669566D01*
X73169566Y-100419566D01*
X72988561Y-100690459D01*
X72925000Y-101010000D01*
X72925000Y-101164132D01*
X72752132Y-101337000D01*
X71587000Y-101337000D01*
X71587000Y-101357000D01*
X71333000Y-101357000D01*
X71333000Y-101337000D01*
X70075000Y-101337000D01*
X70075000Y-101637000D01*
X70229028Y-102157349D01*
X70489275Y-102478851D01*
X70440459Y-102488561D01*
X70212968Y-102640566D01*
X70169566Y-102669566D01*
X68761111Y-104078021D01*
X68850430Y-103944346D01*
X68936827Y-103510000D01*
X68850430Y-103075654D01*
X68604393Y-102707434D01*
X68236173Y-102461397D01*
X67801827Y-102375000D01*
X67595000Y-102375000D01*
X67595000Y-100783000D01*
X70075000Y-100783000D01*
X70075000Y-101083000D01*
X71333000Y-101083000D01*
X71333000Y-99690344D01*
X71587000Y-99690344D01*
X71587000Y-101083000D01*
X72845000Y-101083000D01*
X72845000Y-100783000D01*
X72690972Y-100262651D01*
X72349540Y-99840855D01*
X71872684Y-99581827D01*
X71801185Y-99567682D01*
X71587000Y-99690344D01*
X71333000Y-99690344D01*
X71118815Y-99567682D01*
X71047316Y-99581827D01*
X70570460Y-99840855D01*
X70229028Y-100262651D01*
X70075000Y-100783000D01*
X67595000Y-100783000D01*
X67595000Y-97025868D01*
X69419566Y-98850434D01*
X69419566Y-98850434D01*
G37*
X69419566Y-98850434D02*
X69690460Y-99031440D01*
X70010000Y-99095000D01*
X75332766Y-99095000D01*
X75375055Y-99112560D01*
X75135000Y-99112560D01*
X74899683Y-99156838D01*
X74683559Y-99295910D01*
X74595356Y-99425000D01*
X74510000Y-99425000D01*
X74190459Y-99488561D01*
X73986680Y-99624722D01*
X73919566Y-99669566D01*
X73169566Y-100419566D01*
X72988561Y-100690459D01*
X72925000Y-101010000D01*
X72925000Y-101164132D01*
X72752132Y-101337000D01*
X71587000Y-101337000D01*
X71587000Y-101357000D01*
X71333000Y-101357000D01*
X71333000Y-101337000D01*
X70075000Y-101337000D01*
X70075000Y-101637000D01*
X70229028Y-102157349D01*
X70489275Y-102478851D01*
X70440459Y-102488561D01*
X70212968Y-102640566D01*
X70169566Y-102669566D01*
X68761111Y-104078021D01*
X68850430Y-103944346D01*
X68936827Y-103510000D01*
X68850430Y-103075654D01*
X68604393Y-102707434D01*
X68236173Y-102461397D01*
X67801827Y-102375000D01*
X67595000Y-102375000D01*
X67595000Y-100783000D01*
X70075000Y-100783000D01*
X70075000Y-101083000D01*
X71333000Y-101083000D01*
X71333000Y-99690344D01*
X71587000Y-99690344D01*
X71587000Y-101083000D01*
X72845000Y-101083000D01*
X72845000Y-100783000D01*
X72690972Y-100262651D01*
X72349540Y-99840855D01*
X71872684Y-99581827D01*
X71801185Y-99567682D01*
X71587000Y-99690344D01*
X71333000Y-99690344D01*
X71118815Y-99567682D01*
X71047316Y-99581827D01*
X70570460Y-99840855D01*
X70229028Y-100262651D01*
X70075000Y-100783000D01*
X67595000Y-100783000D01*
X67595000Y-97025868D01*
X69419566Y-98850434D01*
G36*
X80925000Y-96664132D02*
X80914132Y-96675000D01*
X80835334Y-96675000D01*
X80870000Y-96591310D01*
X80870000Y-96450750D01*
X80711250Y-96292000D01*
X79587000Y-96292000D01*
X79587000Y-96312000D01*
X79333000Y-96312000D01*
X79333000Y-96292000D01*
X79313000Y-96292000D01*
X79313000Y-96038000D01*
X79333000Y-96038000D01*
X79333000Y-96018000D01*
X79587000Y-96018000D01*
X79587000Y-96038000D01*
X80711250Y-96038000D01*
X80870000Y-95879250D01*
X80870000Y-95738690D01*
X80780194Y-95521878D01*
X80831431Y-95446890D01*
X80882440Y-95195000D01*
X80882440Y-94595000D01*
X80838162Y-94359683D01*
X80774322Y-94260472D01*
X80831431Y-94176890D01*
X80882440Y-93925000D01*
X80882440Y-93325000D01*
X80850110Y-93153179D01*
X80925000Y-93138283D01*
X80925000Y-96664132D01*
X80925000Y-96664132D01*
G37*
X80925000Y-96664132D02*
X80914132Y-96675000D01*
X80835334Y-96675000D01*
X80870000Y-96591310D01*
X80870000Y-96450750D01*
X80711250Y-96292000D01*
X79587000Y-96292000D01*
X79587000Y-96312000D01*
X79333000Y-96312000D01*
X79333000Y-96292000D01*
X79313000Y-96292000D01*
X79313000Y-96038000D01*
X79333000Y-96038000D01*
X79333000Y-96018000D01*
X79587000Y-96018000D01*
X79587000Y-96038000D01*
X80711250Y-96038000D01*
X80870000Y-95879250D01*
X80870000Y-95738690D01*
X80780194Y-95521878D01*
X80831431Y-95446890D01*
X80882440Y-95195000D01*
X80882440Y-94595000D01*
X80838162Y-94359683D01*
X80774322Y-94260472D01*
X80831431Y-94176890D01*
X80882440Y-93925000D01*
X80882440Y-93325000D01*
X80850110Y-93153179D01*
X80925000Y-93138283D01*
X80925000Y-96664132D01*
G36*
X78579404Y-91427429D02*
X78449683Y-91451838D01*
X78233559Y-91590910D01*
X78088569Y-91803110D01*
X78037560Y-92055000D01*
X78037560Y-92655000D01*
X78062962Y-92790000D01*
X77145000Y-92790000D01*
X76825459Y-92853561D01*
X76594160Y-93008110D01*
X76554566Y-93034566D01*
X76419566Y-93169566D01*
X76238561Y-93440459D01*
X76175000Y-93760000D01*
X76175000Y-95582766D01*
X76142031Y-95662163D01*
X76054434Y-95574566D01*
X75957804Y-95510000D01*
X75783541Y-95393561D01*
X75466218Y-95330441D01*
X75470000Y-95321310D01*
X75470000Y-95180750D01*
X75311250Y-95022000D01*
X74187000Y-95022000D01*
X74187000Y-95042000D01*
X73933000Y-95042000D01*
X73933000Y-95022000D01*
X73913000Y-95022000D01*
X73913000Y-94768000D01*
X73933000Y-94768000D01*
X73933000Y-94748000D01*
X74187000Y-94748000D01*
X74187000Y-94768000D01*
X75311250Y-94768000D01*
X75470000Y-94609250D01*
X75470000Y-94468690D01*
X75380194Y-94251878D01*
X75431431Y-94176890D01*
X75482440Y-93925000D01*
X75482440Y-93325000D01*
X75438162Y-93089683D01*
X75374322Y-92990472D01*
X75431431Y-92906890D01*
X75482440Y-92655000D01*
X75482440Y-92055000D01*
X75438162Y-91819683D01*
X75389104Y-91743445D01*
X75408110Y-91756431D01*
X75660000Y-91807440D01*
X76860000Y-91807440D01*
X77095317Y-91763162D01*
X77311441Y-91624090D01*
X77345569Y-91574142D01*
X77510000Y-91607440D01*
X78010000Y-91607440D01*
X78245317Y-91563162D01*
X78461441Y-91424090D01*
X78507969Y-91355994D01*
X78579404Y-91427429D01*
X78579404Y-91427429D01*
G37*
X78579404Y-91427429D02*
X78449683Y-91451838D01*
X78233559Y-91590910D01*
X78088569Y-91803110D01*
X78037560Y-92055000D01*
X78037560Y-92655000D01*
X78062962Y-92790000D01*
X77145000Y-92790000D01*
X76825459Y-92853561D01*
X76594160Y-93008110D01*
X76554566Y-93034566D01*
X76419566Y-93169566D01*
X76238561Y-93440459D01*
X76175000Y-93760000D01*
X76175000Y-95582766D01*
X76142031Y-95662163D01*
X76054434Y-95574566D01*
X75957804Y-95510000D01*
X75783541Y-95393561D01*
X75466218Y-95330441D01*
X75470000Y-95321310D01*
X75470000Y-95180750D01*
X75311250Y-95022000D01*
X74187000Y-95022000D01*
X74187000Y-95042000D01*
X73933000Y-95042000D01*
X73933000Y-95022000D01*
X73913000Y-95022000D01*
X73913000Y-94768000D01*
X73933000Y-94768000D01*
X73933000Y-94748000D01*
X74187000Y-94748000D01*
X74187000Y-94768000D01*
X75311250Y-94768000D01*
X75470000Y-94609250D01*
X75470000Y-94468690D01*
X75380194Y-94251878D01*
X75431431Y-94176890D01*
X75482440Y-93925000D01*
X75482440Y-93325000D01*
X75438162Y-93089683D01*
X75374322Y-92990472D01*
X75431431Y-92906890D01*
X75482440Y-92655000D01*
X75482440Y-92055000D01*
X75438162Y-91819683D01*
X75389104Y-91743445D01*
X75408110Y-91756431D01*
X75660000Y-91807440D01*
X76860000Y-91807440D01*
X77095317Y-91763162D01*
X77311441Y-91624090D01*
X77345569Y-91574142D01*
X77510000Y-91607440D01*
X78010000Y-91607440D01*
X78245317Y-91563162D01*
X78461441Y-91424090D01*
X78507969Y-91355994D01*
X78579404Y-91427429D01*
G36*
X79385000Y-90383000D02*
X79407000Y-90383000D01*
X79407000Y-90637000D01*
X79385000Y-90637000D01*
X79385000Y-90657000D01*
X79135000Y-90657000D01*
X79135000Y-90637000D01*
X79113000Y-90637000D01*
X79113000Y-90383000D01*
X79135000Y-90383000D01*
X79135000Y-90363000D01*
X79385000Y-90363000D01*
X79385000Y-90383000D01*
X79385000Y-90383000D01*
G37*
X79385000Y-90383000D02*
X79407000Y-90383000D01*
X79407000Y-90637000D01*
X79385000Y-90637000D01*
X79385000Y-90657000D01*
X79135000Y-90657000D01*
X79135000Y-90637000D01*
X79113000Y-90637000D01*
X79113000Y-90383000D01*
X79135000Y-90383000D01*
X79135000Y-90363000D01*
X79385000Y-90363000D01*
X79385000Y-90383000D01*
G36*
X90229673Y-74552192D02*
X90573201Y-74694838D01*
X90945167Y-74695162D01*
X91187578Y-74595000D01*
X91324925Y-74595000D01*
X91324838Y-74695167D01*
X91466883Y-75038943D01*
X91483870Y-75055960D01*
X91488561Y-75079541D01*
X91669566Y-75350434D01*
X91940459Y-75531439D01*
X92260000Y-75595000D01*
X93541380Y-75595000D01*
X93558110Y-75606431D01*
X93810000Y-75657440D01*
X94633000Y-75657440D01*
X94633000Y-86702132D01*
X90095000Y-82164132D01*
X90095000Y-81704566D01*
X90229028Y-82157349D01*
X90570460Y-82579145D01*
X91047316Y-82838173D01*
X91118815Y-82852318D01*
X91333000Y-82729656D01*
X91333000Y-81337000D01*
X91587000Y-81337000D01*
X91587000Y-82729656D01*
X91801185Y-82852318D01*
X91872684Y-82838173D01*
X92349540Y-82579145D01*
X92690972Y-82157349D01*
X92845000Y-81637000D01*
X92845000Y-81337000D01*
X91587000Y-81337000D01*
X91333000Y-81337000D01*
X91313000Y-81337000D01*
X91313000Y-81083000D01*
X91333000Y-81083000D01*
X91333000Y-79690344D01*
X91587000Y-79690344D01*
X91587000Y-81083000D01*
X92845000Y-81083000D01*
X92845000Y-80783000D01*
X92690972Y-80262651D01*
X92349540Y-79840855D01*
X91872684Y-79581827D01*
X91801185Y-79567682D01*
X91587000Y-79690344D01*
X91333000Y-79690344D01*
X91118815Y-79567682D01*
X91047316Y-79581827D01*
X90570460Y-79840855D01*
X90229028Y-80262651D01*
X90095000Y-80715434D01*
X90095000Y-74417284D01*
X90229673Y-74552192D01*
X90229673Y-74552192D01*
G37*
X90229673Y-74552192D02*
X90573201Y-74694838D01*
X90945167Y-74695162D01*
X91187578Y-74595000D01*
X91324925Y-74595000D01*
X91324838Y-74695167D01*
X91466883Y-75038943D01*
X91483870Y-75055960D01*
X91488561Y-75079541D01*
X91669566Y-75350434D01*
X91940459Y-75531439D01*
X92260000Y-75595000D01*
X93541380Y-75595000D01*
X93558110Y-75606431D01*
X93810000Y-75657440D01*
X94633000Y-75657440D01*
X94633000Y-86702132D01*
X90095000Y-82164132D01*
X90095000Y-81704566D01*
X90229028Y-82157349D01*
X90570460Y-82579145D01*
X91047316Y-82838173D01*
X91118815Y-82852318D01*
X91333000Y-82729656D01*
X91333000Y-81337000D01*
X91587000Y-81337000D01*
X91587000Y-82729656D01*
X91801185Y-82852318D01*
X91872684Y-82838173D01*
X92349540Y-82579145D01*
X92690972Y-82157349D01*
X92845000Y-81637000D01*
X92845000Y-81337000D01*
X91587000Y-81337000D01*
X91333000Y-81337000D01*
X91313000Y-81337000D01*
X91313000Y-81083000D01*
X91333000Y-81083000D01*
X91333000Y-79690344D01*
X91587000Y-79690344D01*
X91587000Y-81083000D01*
X92845000Y-81083000D01*
X92845000Y-80783000D01*
X92690972Y-80262651D01*
X92349540Y-79840855D01*
X91872684Y-79581827D01*
X91801185Y-79567682D01*
X91587000Y-79690344D01*
X91333000Y-79690344D01*
X91118815Y-79567682D01*
X91047316Y-79581827D01*
X90570460Y-79840855D01*
X90229028Y-80262651D01*
X90095000Y-80715434D01*
X90095000Y-74417284D01*
X90229673Y-74552192D01*
G36*
X84915607Y-76212566D02*
X85283827Y-76458603D01*
X85718173Y-76545000D01*
X85925000Y-76545000D01*
X85925000Y-82375000D01*
X85718173Y-82375000D01*
X85283827Y-82461397D01*
X84915607Y-82707434D01*
X84669570Y-83075654D01*
X84583173Y-83510000D01*
X84669570Y-83944346D01*
X84823688Y-84175000D01*
X81766844Y-84175000D01*
X81724090Y-84108559D01*
X81511890Y-83963569D01*
X81260000Y-83912560D01*
X80760000Y-83912560D01*
X80524683Y-83956838D01*
X80308559Y-84095910D01*
X80260866Y-84165711D01*
X80224090Y-84108559D01*
X80011890Y-83963569D01*
X79760000Y-83912560D01*
X79593428Y-83912560D01*
X77652535Y-81971667D01*
X77553117Y-81731057D01*
X77290327Y-81467808D01*
X77073214Y-81377654D01*
X77113868Y-81337000D01*
X80675000Y-81337000D01*
X80675000Y-82087000D01*
X80829028Y-82607349D01*
X81170460Y-83029145D01*
X81647316Y-83288173D01*
X81718815Y-83302318D01*
X81933000Y-83179656D01*
X81933000Y-81337000D01*
X82187000Y-81337000D01*
X82187000Y-83179656D01*
X82401185Y-83302318D01*
X82472684Y-83288173D01*
X82949540Y-83029145D01*
X83290972Y-82607349D01*
X83445000Y-82087000D01*
X83445000Y-81337000D01*
X82187000Y-81337000D01*
X81933000Y-81337000D01*
X80675000Y-81337000D01*
X77113868Y-81337000D01*
X78355868Y-80095000D01*
X80745450Y-80095000D01*
X80675000Y-80333000D01*
X80675000Y-81083000D01*
X81933000Y-81083000D01*
X81933000Y-81063000D01*
X82187000Y-81063000D01*
X82187000Y-81083000D01*
X83445000Y-81083000D01*
X83445000Y-80333000D01*
X83290972Y-79812651D01*
X82949540Y-79390855D01*
X82472684Y-79131827D01*
X82401185Y-79117682D01*
X82187002Y-79240343D01*
X82187002Y-79075000D01*
X82125868Y-79075000D01*
X84600434Y-76600434D01*
X84695202Y-76458603D01*
X84781439Y-76329541D01*
X84830148Y-76084667D01*
X84915607Y-76212566D01*
X84915607Y-76212566D01*
G37*
X84915607Y-76212566D02*
X85283827Y-76458603D01*
X85718173Y-76545000D01*
X85925000Y-76545000D01*
X85925000Y-82375000D01*
X85718173Y-82375000D01*
X85283827Y-82461397D01*
X84915607Y-82707434D01*
X84669570Y-83075654D01*
X84583173Y-83510000D01*
X84669570Y-83944346D01*
X84823688Y-84175000D01*
X81766844Y-84175000D01*
X81724090Y-84108559D01*
X81511890Y-83963569D01*
X81260000Y-83912560D01*
X80760000Y-83912560D01*
X80524683Y-83956838D01*
X80308559Y-84095910D01*
X80260866Y-84165711D01*
X80224090Y-84108559D01*
X80011890Y-83963569D01*
X79760000Y-83912560D01*
X79593428Y-83912560D01*
X77652535Y-81971667D01*
X77553117Y-81731057D01*
X77290327Y-81467808D01*
X77073214Y-81377654D01*
X77113868Y-81337000D01*
X80675000Y-81337000D01*
X80675000Y-82087000D01*
X80829028Y-82607349D01*
X81170460Y-83029145D01*
X81647316Y-83288173D01*
X81718815Y-83302318D01*
X81933000Y-83179656D01*
X81933000Y-81337000D01*
X82187000Y-81337000D01*
X82187000Y-83179656D01*
X82401185Y-83302318D01*
X82472684Y-83288173D01*
X82949540Y-83029145D01*
X83290972Y-82607349D01*
X83445000Y-82087000D01*
X83445000Y-81337000D01*
X82187000Y-81337000D01*
X81933000Y-81337000D01*
X80675000Y-81337000D01*
X77113868Y-81337000D01*
X78355868Y-80095000D01*
X80745450Y-80095000D01*
X80675000Y-80333000D01*
X80675000Y-81083000D01*
X81933000Y-81083000D01*
X81933000Y-81063000D01*
X82187000Y-81063000D01*
X82187000Y-81083000D01*
X83445000Y-81083000D01*
X83445000Y-80333000D01*
X83290972Y-79812651D01*
X82949540Y-79390855D01*
X82472684Y-79131827D01*
X82401185Y-79117682D01*
X82187002Y-79240343D01*
X82187002Y-79075000D01*
X82125868Y-79075000D01*
X84600434Y-76600434D01*
X84695202Y-76458603D01*
X84781439Y-76329541D01*
X84830148Y-76084667D01*
X84915607Y-76212566D01*
G36*
X68425000Y-66355868D02*
X68425000Y-67085942D01*
X68335057Y-67123106D01*
X68009836Y-67447759D01*
X67687363Y-67124722D01*
X67086648Y-66875284D01*
X66436205Y-66874716D01*
X65835057Y-67123106D01*
X65418248Y-67539187D01*
X65412532Y-67537073D01*
X64439605Y-68510000D01*
X65412532Y-69482927D01*
X65418722Y-69480639D01*
X65832637Y-69895278D01*
X65925000Y-69933630D01*
X65925000Y-70260000D01*
X65988561Y-70579541D01*
X66112560Y-70765119D01*
X66112560Y-70960000D01*
X66156838Y-71195317D01*
X66295910Y-71411441D01*
X66508110Y-71556431D01*
X66760000Y-71607440D01*
X67260000Y-71607440D01*
X67495317Y-71563162D01*
X67675000Y-71447539D01*
X67675000Y-74260000D01*
X67738561Y-74579541D01*
X67836044Y-74725434D01*
X67919566Y-74850434D01*
X73617465Y-80548333D01*
X73716883Y-80788943D01*
X73979673Y-81052192D01*
X74323201Y-81194838D01*
X74695167Y-81195162D01*
X75033953Y-81055179D01*
X73164132Y-82925000D01*
X69667284Y-82925000D01*
X69802192Y-82790327D01*
X69944838Y-82446799D01*
X69945162Y-82074833D01*
X69803117Y-81731057D01*
X69540327Y-81467808D01*
X69298090Y-81367222D01*
X69264663Y-81333795D01*
X69924716Y-81333795D01*
X70173106Y-81934943D01*
X70632637Y-82395278D01*
X71233352Y-82644716D01*
X71883795Y-82645284D01*
X72484943Y-82396894D01*
X72945278Y-81937363D01*
X73194716Y-81336648D01*
X73195284Y-80686205D01*
X72946894Y-80085057D01*
X72487363Y-79624722D01*
X71886648Y-79375284D01*
X71236205Y-79374716D01*
X70635057Y-79623106D01*
X70174722Y-80082637D01*
X69925284Y-80683352D01*
X69924716Y-81333795D01*
X69264663Y-81333795D01*
X62595000Y-74664132D01*
X62595000Y-69662532D01*
X63287073Y-69662532D01*
X63385736Y-69929387D01*
X63995461Y-70155908D01*
X64645460Y-70131856D01*
X65134264Y-69929387D01*
X65232927Y-69662532D01*
X64260000Y-68689605D01*
X63287073Y-69662532D01*
X62595000Y-69662532D01*
X62595000Y-68245461D01*
X62614092Y-68245461D01*
X62638144Y-68895460D01*
X62840613Y-69384264D01*
X63107468Y-69482927D01*
X64080395Y-68510000D01*
X63107468Y-67537073D01*
X62840613Y-67635736D01*
X62614092Y-68245461D01*
X62595000Y-68245461D01*
X62595000Y-67357468D01*
X63287073Y-67357468D01*
X64260000Y-68330395D01*
X65232927Y-67357468D01*
X65134264Y-67090613D01*
X64524539Y-66864092D01*
X63874540Y-66888144D01*
X63385736Y-67090613D01*
X63287073Y-67357468D01*
X62595000Y-67357468D01*
X62595000Y-67105868D01*
X63355868Y-66345000D01*
X68414132Y-66345000D01*
X68425000Y-66355868D01*
X68425000Y-66355868D01*
G37*
X68425000Y-66355868D02*
X68425000Y-67085942D01*
X68335057Y-67123106D01*
X68009836Y-67447759D01*
X67687363Y-67124722D01*
X67086648Y-66875284D01*
X66436205Y-66874716D01*
X65835057Y-67123106D01*
X65418248Y-67539187D01*
X65412532Y-67537073D01*
X64439605Y-68510000D01*
X65412532Y-69482927D01*
X65418722Y-69480639D01*
X65832637Y-69895278D01*
X65925000Y-69933630D01*
X65925000Y-70260000D01*
X65988561Y-70579541D01*
X66112560Y-70765119D01*
X66112560Y-70960000D01*
X66156838Y-71195317D01*
X66295910Y-71411441D01*
X66508110Y-71556431D01*
X66760000Y-71607440D01*
X67260000Y-71607440D01*
X67495317Y-71563162D01*
X67675000Y-71447539D01*
X67675000Y-74260000D01*
X67738561Y-74579541D01*
X67836044Y-74725434D01*
X67919566Y-74850434D01*
X73617465Y-80548333D01*
X73716883Y-80788943D01*
X73979673Y-81052192D01*
X74323201Y-81194838D01*
X74695167Y-81195162D01*
X75033953Y-81055179D01*
X73164132Y-82925000D01*
X69667284Y-82925000D01*
X69802192Y-82790327D01*
X69944838Y-82446799D01*
X69945162Y-82074833D01*
X69803117Y-81731057D01*
X69540327Y-81467808D01*
X69298090Y-81367222D01*
X69264663Y-81333795D01*
X69924716Y-81333795D01*
X70173106Y-81934943D01*
X70632637Y-82395278D01*
X71233352Y-82644716D01*
X71883795Y-82645284D01*
X72484943Y-82396894D01*
X72945278Y-81937363D01*
X73194716Y-81336648D01*
X73195284Y-80686205D01*
X72946894Y-80085057D01*
X72487363Y-79624722D01*
X71886648Y-79375284D01*
X71236205Y-79374716D01*
X70635057Y-79623106D01*
X70174722Y-80082637D01*
X69925284Y-80683352D01*
X69924716Y-81333795D01*
X69264663Y-81333795D01*
X62595000Y-74664132D01*
X62595000Y-69662532D01*
X63287073Y-69662532D01*
X63385736Y-69929387D01*
X63995461Y-70155908D01*
X64645460Y-70131856D01*
X65134264Y-69929387D01*
X65232927Y-69662532D01*
X64260000Y-68689605D01*
X63287073Y-69662532D01*
X62595000Y-69662532D01*
X62595000Y-68245461D01*
X62614092Y-68245461D01*
X62638144Y-68895460D01*
X62840613Y-69384264D01*
X63107468Y-69482927D01*
X64080395Y-68510000D01*
X63107468Y-67537073D01*
X62840613Y-67635736D01*
X62614092Y-68245461D01*
X62595000Y-68245461D01*
X62595000Y-67357468D01*
X63287073Y-67357468D01*
X64260000Y-68330395D01*
X65232927Y-67357468D01*
X65134264Y-67090613D01*
X64524539Y-66864092D01*
X63874540Y-66888144D01*
X63385736Y-67090613D01*
X63287073Y-67357468D01*
X62595000Y-67357468D01*
X62595000Y-67105868D01*
X63355868Y-66345000D01*
X68414132Y-66345000D01*
X68425000Y-66355868D01*
G36*
X77175000Y-72385000D02*
X77238561Y-72704541D01*
X77396197Y-72940460D01*
X77419566Y-72975434D01*
X77910940Y-73466808D01*
X77846298Y-73510000D01*
X77794566Y-73544566D01*
X77142281Y-74196851D01*
X77053117Y-73981057D01*
X76790327Y-73717808D01*
X76548090Y-73617222D01*
X76475434Y-73544566D01*
X76423702Y-73510000D01*
X76204541Y-73363561D01*
X76157440Y-73354192D01*
X76157440Y-73160000D01*
X76113162Y-72924683D01*
X75974090Y-72708559D01*
X75832437Y-72611772D01*
X75931431Y-72466890D01*
X75982440Y-72215000D01*
X75982440Y-71615000D01*
X75938162Y-71379683D01*
X75879822Y-71289020D01*
X75970000Y-71071310D01*
X75970000Y-70930750D01*
X75811250Y-70772000D01*
X74687000Y-70772000D01*
X74687000Y-70792000D01*
X74433000Y-70792000D01*
X74433000Y-70772000D01*
X73430070Y-70772000D01*
X73260000Y-70737560D01*
X72260000Y-70737560D01*
X72024683Y-70781838D01*
X71808559Y-70920910D01*
X71762031Y-70989006D01*
X71619698Y-70846673D01*
X71386309Y-70750000D01*
X71045750Y-70750000D01*
X70887000Y-70908750D01*
X70887000Y-71883000D01*
X70907000Y-71883000D01*
X70907000Y-72137000D01*
X70887000Y-72137000D01*
X70887000Y-73111250D01*
X71045750Y-73270000D01*
X71386309Y-73270000D01*
X71619698Y-73173327D01*
X71760936Y-73032090D01*
X71795910Y-73086441D01*
X72008110Y-73231431D01*
X72260000Y-73282440D01*
X73260000Y-73282440D01*
X73362560Y-73263142D01*
X73362560Y-75110000D01*
X73406838Y-75345317D01*
X73512482Y-75509493D01*
X73471673Y-75550302D01*
X73375000Y-75783691D01*
X73375000Y-76599250D01*
X73533750Y-76758000D01*
X74633000Y-76758000D01*
X74633000Y-76738000D01*
X74887000Y-76738000D01*
X74887000Y-76758000D01*
X75986250Y-76758000D01*
X76145000Y-76599250D01*
X76145000Y-75783691D01*
X76048327Y-75550302D01*
X76006366Y-75508340D01*
X76054937Y-75437254D01*
X76073201Y-75444838D01*
X76445167Y-75445162D01*
X76675000Y-75350197D01*
X76675000Y-75582766D01*
X76575162Y-75823201D01*
X76574838Y-76195167D01*
X76716883Y-76538943D01*
X76979673Y-76802192D01*
X77323201Y-76944838D01*
X77695167Y-76945162D01*
X78038943Y-76803117D01*
X78302192Y-76540327D01*
X78375000Y-76364987D01*
X78375000Y-76599250D01*
X78533750Y-76758000D01*
X79633000Y-76758000D01*
X79633000Y-76738000D01*
X79887000Y-76738000D01*
X79887000Y-76758000D01*
X80986250Y-76758000D01*
X81145000Y-76599250D01*
X81145000Y-75783691D01*
X81048327Y-75550302D01*
X81006366Y-75508340D01*
X81106431Y-75361890D01*
X81157440Y-75110000D01*
X81157440Y-73160000D01*
X81113162Y-72924683D01*
X81022861Y-72784351D01*
X81186441Y-72679090D01*
X81331431Y-72466890D01*
X81365885Y-72296753D01*
X82669566Y-73600434D01*
X82940459Y-73781439D01*
X83260000Y-73845000D01*
X83994132Y-73845000D01*
X83419566Y-74419566D01*
X83238561Y-74690459D01*
X83175000Y-75010000D01*
X83175000Y-75664132D01*
X81145000Y-77694132D01*
X81145000Y-77170750D01*
X80986250Y-77012000D01*
X79887000Y-77012000D01*
X79887000Y-77032000D01*
X79633000Y-77032000D01*
X79633000Y-77012000D01*
X78533750Y-77012000D01*
X78375000Y-77170750D01*
X78375000Y-77986309D01*
X78471673Y-78219698D01*
X78650301Y-78398327D01*
X78714695Y-78425000D01*
X78010000Y-78425000D01*
X77690459Y-78488561D01*
X77419566Y-78669566D01*
X75304597Y-80784535D01*
X75444838Y-80446799D01*
X75445162Y-80074833D01*
X75303117Y-79731057D01*
X75040327Y-79467808D01*
X74798090Y-79367222D01*
X73925868Y-78495000D01*
X74474250Y-78495000D01*
X74633000Y-78336250D01*
X74633000Y-77012000D01*
X74887000Y-77012000D01*
X74887000Y-78336250D01*
X75045750Y-78495000D01*
X75636310Y-78495000D01*
X75869699Y-78398327D01*
X76048327Y-78219698D01*
X76145000Y-77986309D01*
X76145000Y-77170750D01*
X75986250Y-77012000D01*
X74887000Y-77012000D01*
X74633000Y-77012000D01*
X73533750Y-77012000D01*
X73375000Y-77170750D01*
X73375000Y-77944132D01*
X69345000Y-73914132D01*
X69345000Y-72295750D01*
X69625000Y-72295750D01*
X69625000Y-72761310D01*
X69721673Y-72994699D01*
X69900302Y-73173327D01*
X70133691Y-73270000D01*
X70474250Y-73270000D01*
X70633000Y-73111250D01*
X70633000Y-72137000D01*
X69783750Y-72137000D01*
X69625000Y-72295750D01*
X69345000Y-72295750D01*
X69345000Y-71345000D01*
X69510000Y-71345000D01*
X69625000Y-71322125D01*
X69625000Y-71724250D01*
X69783750Y-71883000D01*
X70633000Y-71883000D01*
X70633000Y-70908750D01*
X70474250Y-70750000D01*
X70450868Y-70750000D01*
X71600434Y-69600434D01*
X71614395Y-69579540D01*
X71662560Y-69507456D01*
X71662560Y-69510000D01*
X71706838Y-69745317D01*
X71845910Y-69961441D01*
X72058110Y-70106431D01*
X72310000Y-70157440D01*
X73175371Y-70157440D01*
X73150000Y-70218690D01*
X73150000Y-70359250D01*
X73308750Y-70518000D01*
X74433000Y-70518000D01*
X74433000Y-70498000D01*
X74687000Y-70498000D01*
X74687000Y-70518000D01*
X75811250Y-70518000D01*
X75970000Y-70359250D01*
X75970000Y-70218690D01*
X75966400Y-70210000D01*
X76145000Y-70210000D01*
X76220579Y-70194966D01*
X76445167Y-70195162D01*
X76788943Y-70053117D01*
X77052192Y-69790327D01*
X77175000Y-69494574D01*
X77175000Y-72385000D01*
X77175000Y-72385000D01*
G37*
X77175000Y-72385000D02*
X77238561Y-72704541D01*
X77396197Y-72940460D01*
X77419566Y-72975434D01*
X77910940Y-73466808D01*
X77846298Y-73510000D01*
X77794566Y-73544566D01*
X77142281Y-74196851D01*
X77053117Y-73981057D01*
X76790327Y-73717808D01*
X76548090Y-73617222D01*
X76475434Y-73544566D01*
X76423702Y-73510000D01*
X76204541Y-73363561D01*
X76157440Y-73354192D01*
X76157440Y-73160000D01*
X76113162Y-72924683D01*
X75974090Y-72708559D01*
X75832437Y-72611772D01*
X75931431Y-72466890D01*
X75982440Y-72215000D01*
X75982440Y-71615000D01*
X75938162Y-71379683D01*
X75879822Y-71289020D01*
X75970000Y-71071310D01*
X75970000Y-70930750D01*
X75811250Y-70772000D01*
X74687000Y-70772000D01*
X74687000Y-70792000D01*
X74433000Y-70792000D01*
X74433000Y-70772000D01*
X73430070Y-70772000D01*
X73260000Y-70737560D01*
X72260000Y-70737560D01*
X72024683Y-70781838D01*
X71808559Y-70920910D01*
X71762031Y-70989006D01*
X71619698Y-70846673D01*
X71386309Y-70750000D01*
X71045750Y-70750000D01*
X70887000Y-70908750D01*
X70887000Y-71883000D01*
X70907000Y-71883000D01*
X70907000Y-72137000D01*
X70887000Y-72137000D01*
X70887000Y-73111250D01*
X71045750Y-73270000D01*
X71386309Y-73270000D01*
X71619698Y-73173327D01*
X71760936Y-73032090D01*
X71795910Y-73086441D01*
X72008110Y-73231431D01*
X72260000Y-73282440D01*
X73260000Y-73282440D01*
X73362560Y-73263142D01*
X73362560Y-75110000D01*
X73406838Y-75345317D01*
X73512482Y-75509493D01*
X73471673Y-75550302D01*
X73375000Y-75783691D01*
X73375000Y-76599250D01*
X73533750Y-76758000D01*
X74633000Y-76758000D01*
X74633000Y-76738000D01*
X74887000Y-76738000D01*
X74887000Y-76758000D01*
X75986250Y-76758000D01*
X76145000Y-76599250D01*
X76145000Y-75783691D01*
X76048327Y-75550302D01*
X76006366Y-75508340D01*
X76054937Y-75437254D01*
X76073201Y-75444838D01*
X76445167Y-75445162D01*
X76675000Y-75350197D01*
X76675000Y-75582766D01*
X76575162Y-75823201D01*
X76574838Y-76195167D01*
X76716883Y-76538943D01*
X76979673Y-76802192D01*
X77323201Y-76944838D01*
X77695167Y-76945162D01*
X78038943Y-76803117D01*
X78302192Y-76540327D01*
X78375000Y-76364987D01*
X78375000Y-76599250D01*
X78533750Y-76758000D01*
X79633000Y-76758000D01*
X79633000Y-76738000D01*
X79887000Y-76738000D01*
X79887000Y-76758000D01*
X80986250Y-76758000D01*
X81145000Y-76599250D01*
X81145000Y-75783691D01*
X81048327Y-75550302D01*
X81006366Y-75508340D01*
X81106431Y-75361890D01*
X81157440Y-75110000D01*
X81157440Y-73160000D01*
X81113162Y-72924683D01*
X81022861Y-72784351D01*
X81186441Y-72679090D01*
X81331431Y-72466890D01*
X81365885Y-72296753D01*
X82669566Y-73600434D01*
X82940459Y-73781439D01*
X83260000Y-73845000D01*
X83994132Y-73845000D01*
X83419566Y-74419566D01*
X83238561Y-74690459D01*
X83175000Y-75010000D01*
X83175000Y-75664132D01*
X81145000Y-77694132D01*
X81145000Y-77170750D01*
X80986250Y-77012000D01*
X79887000Y-77012000D01*
X79887000Y-77032000D01*
X79633000Y-77032000D01*
X79633000Y-77012000D01*
X78533750Y-77012000D01*
X78375000Y-77170750D01*
X78375000Y-77986309D01*
X78471673Y-78219698D01*
X78650301Y-78398327D01*
X78714695Y-78425000D01*
X78010000Y-78425000D01*
X77690459Y-78488561D01*
X77419566Y-78669566D01*
X75304597Y-80784535D01*
X75444838Y-80446799D01*
X75445162Y-80074833D01*
X75303117Y-79731057D01*
X75040327Y-79467808D01*
X74798090Y-79367222D01*
X73925868Y-78495000D01*
X74474250Y-78495000D01*
X74633000Y-78336250D01*
X74633000Y-77012000D01*
X74887000Y-77012000D01*
X74887000Y-78336250D01*
X75045750Y-78495000D01*
X75636310Y-78495000D01*
X75869699Y-78398327D01*
X76048327Y-78219698D01*
X76145000Y-77986309D01*
X76145000Y-77170750D01*
X75986250Y-77012000D01*
X74887000Y-77012000D01*
X74633000Y-77012000D01*
X73533750Y-77012000D01*
X73375000Y-77170750D01*
X73375000Y-77944132D01*
X69345000Y-73914132D01*
X69345000Y-72295750D01*
X69625000Y-72295750D01*
X69625000Y-72761310D01*
X69721673Y-72994699D01*
X69900302Y-73173327D01*
X70133691Y-73270000D01*
X70474250Y-73270000D01*
X70633000Y-73111250D01*
X70633000Y-72137000D01*
X69783750Y-72137000D01*
X69625000Y-72295750D01*
X69345000Y-72295750D01*
X69345000Y-71345000D01*
X69510000Y-71345000D01*
X69625000Y-71322125D01*
X69625000Y-71724250D01*
X69783750Y-71883000D01*
X70633000Y-71883000D01*
X70633000Y-70908750D01*
X70474250Y-70750000D01*
X70450868Y-70750000D01*
X71600434Y-69600434D01*
X71614395Y-69579540D01*
X71662560Y-69507456D01*
X71662560Y-69510000D01*
X71706838Y-69745317D01*
X71845910Y-69961441D01*
X72058110Y-70106431D01*
X72310000Y-70157440D01*
X73175371Y-70157440D01*
X73150000Y-70218690D01*
X73150000Y-70359250D01*
X73308750Y-70518000D01*
X74433000Y-70518000D01*
X74433000Y-70498000D01*
X74687000Y-70498000D01*
X74687000Y-70518000D01*
X75811250Y-70518000D01*
X75970000Y-70359250D01*
X75970000Y-70218690D01*
X75966400Y-70210000D01*
X76145000Y-70210000D01*
X76220579Y-70194966D01*
X76445167Y-70195162D01*
X76788943Y-70053117D01*
X77052192Y-69790327D01*
X77175000Y-69494574D01*
X77175000Y-72385000D01*
G36*
X85073566Y-60600434D02*
X85148392Y-60650431D01*
X85156838Y-60695317D01*
X85295910Y-60911441D01*
X85508110Y-61056431D01*
X85760000Y-61107440D01*
X86260000Y-61107440D01*
X86495317Y-61063162D01*
X86711441Y-60924090D01*
X86759134Y-60854289D01*
X86795910Y-60911441D01*
X87008110Y-61056431D01*
X87260000Y-61107440D01*
X87760000Y-61107440D01*
X87995317Y-61063162D01*
X88211441Y-60924090D01*
X88265481Y-60845000D01*
X88794077Y-60845000D01*
X88775000Y-60940907D01*
X88775000Y-60999093D01*
X88888039Y-61567378D01*
X89209946Y-62049147D01*
X89211179Y-62049971D01*
X89174683Y-62056838D01*
X88958559Y-62195910D01*
X88813569Y-62408110D01*
X88762560Y-62660000D01*
X88762560Y-63826572D01*
X88669566Y-63919566D01*
X88488561Y-64190459D01*
X88425000Y-64510000D01*
X88425000Y-72919920D01*
X88196799Y-72825162D01*
X87824833Y-72824838D01*
X87582422Y-72925000D01*
X85445075Y-72925000D01*
X85445162Y-72824833D01*
X85408797Y-72736822D01*
X85425302Y-72753327D01*
X85658691Y-72850000D01*
X86274250Y-72850000D01*
X86433000Y-72691250D01*
X86433000Y-72042000D01*
X86687000Y-72042000D01*
X86687000Y-72691250D01*
X86845750Y-72850000D01*
X87461309Y-72850000D01*
X87694698Y-72753327D01*
X87873327Y-72574699D01*
X87970000Y-72341310D01*
X87970000Y-72200750D01*
X87811250Y-72042000D01*
X86687000Y-72042000D01*
X86433000Y-72042000D01*
X85308750Y-72042000D01*
X85150000Y-72200750D01*
X85150000Y-72327673D01*
X85040327Y-72217808D01*
X84696799Y-72075162D01*
X84324833Y-72074838D01*
X84082422Y-72175000D01*
X83605868Y-72175000D01*
X82595000Y-71164132D01*
X82595000Y-70844983D01*
X82758110Y-70956431D01*
X83010000Y-71007440D01*
X84510000Y-71007440D01*
X84745317Y-70963162D01*
X84961441Y-70824090D01*
X85106431Y-70611890D01*
X85137560Y-70458170D01*
X85137560Y-70945000D01*
X85181838Y-71180317D01*
X85240178Y-71270980D01*
X85150000Y-71488690D01*
X85150000Y-71629250D01*
X85308750Y-71788000D01*
X86433000Y-71788000D01*
X86433000Y-71768000D01*
X86687000Y-71768000D01*
X86687000Y-71788000D01*
X87811250Y-71788000D01*
X87970000Y-71629250D01*
X87970000Y-71488690D01*
X87880194Y-71271878D01*
X87931431Y-71196890D01*
X87982440Y-70945000D01*
X87982440Y-70345000D01*
X87938162Y-70109683D01*
X87874322Y-70010472D01*
X87931431Y-69926890D01*
X87982440Y-69675000D01*
X87982440Y-69075000D01*
X87938162Y-68839683D01*
X87874322Y-68740472D01*
X87931431Y-68656890D01*
X87982440Y-68405000D01*
X87982440Y-67805000D01*
X87938162Y-67569683D01*
X87799090Y-67353559D01*
X87586890Y-67208569D01*
X87335000Y-67157560D01*
X85785000Y-67157560D01*
X85549683Y-67201838D01*
X85333559Y-67340910D01*
X85188569Y-67553110D01*
X85137560Y-67805000D01*
X85137560Y-68304347D01*
X85113162Y-68174683D01*
X85007518Y-68010507D01*
X85048327Y-67969698D01*
X85145000Y-67736309D01*
X85145000Y-66920750D01*
X84986250Y-66762000D01*
X83887000Y-66762000D01*
X83887000Y-66782000D01*
X83633000Y-66782000D01*
X83633000Y-66762000D01*
X82533750Y-66762000D01*
X82375000Y-66920750D01*
X82375000Y-67736309D01*
X82471673Y-67969698D01*
X82513634Y-68011660D01*
X82413569Y-68158110D01*
X82362560Y-68410000D01*
X82362560Y-68540167D01*
X82290327Y-68467808D01*
X81946799Y-68325162D01*
X81574833Y-68324838D01*
X81382440Y-68404333D01*
X81382440Y-67805000D01*
X81338162Y-67569683D01*
X81199090Y-67353559D01*
X80986890Y-67208569D01*
X80795000Y-67169710D01*
X80795000Y-66752000D01*
X80731439Y-66432459D01*
X80550434Y-66161566D01*
X79922559Y-65533691D01*
X82375000Y-65533691D01*
X82375000Y-66349250D01*
X82533750Y-66508000D01*
X83633000Y-66508000D01*
X83633000Y-65183750D01*
X83887000Y-65183750D01*
X83887000Y-66508000D01*
X84986250Y-66508000D01*
X85145000Y-66349250D01*
X85145000Y-65533691D01*
X85048327Y-65300302D01*
X84869699Y-65121673D01*
X84636310Y-65025000D01*
X84045750Y-65025000D01*
X83887000Y-65183750D01*
X83633000Y-65183750D01*
X83474250Y-65025000D01*
X82883690Y-65025000D01*
X82650301Y-65121673D01*
X82471673Y-65300302D01*
X82375000Y-65533691D01*
X79922559Y-65533691D01*
X79808434Y-65419566D01*
X79696838Y-65345000D01*
X79537541Y-65238561D01*
X79373755Y-65205982D01*
X79363162Y-65149683D01*
X79224090Y-64933559D01*
X79011890Y-64788569D01*
X78760000Y-64737560D01*
X77760000Y-64737560D01*
X77524683Y-64781838D01*
X77308559Y-64920910D01*
X77262031Y-64989006D01*
X77119698Y-64846673D01*
X76886309Y-64750000D01*
X76545750Y-64750000D01*
X76387000Y-64908750D01*
X76387000Y-65883000D01*
X76407000Y-65883000D01*
X76407000Y-66137000D01*
X76387000Y-66137000D01*
X76387000Y-67111250D01*
X76545750Y-67270000D01*
X76886309Y-67270000D01*
X77119698Y-67173327D01*
X77260936Y-67032090D01*
X77295910Y-67086441D01*
X77508110Y-67231431D01*
X77760000Y-67282440D01*
X78602460Y-67282440D01*
X78345459Y-67333561D01*
X78074566Y-67514566D01*
X77419566Y-68169566D01*
X77238561Y-68440459D01*
X77175000Y-68760000D01*
X77175000Y-69026037D01*
X77053117Y-68731057D01*
X76790327Y-68467808D01*
X76446799Y-68325162D01*
X76074833Y-68324838D01*
X75982440Y-68363014D01*
X75982440Y-67805000D01*
X75938162Y-67569683D01*
X75799090Y-67353559D01*
X75676797Y-67270000D01*
X75974250Y-67270000D01*
X76133000Y-67111250D01*
X76133000Y-66137000D01*
X76113000Y-66137000D01*
X76113000Y-65883000D01*
X76133000Y-65883000D01*
X76133000Y-64908750D01*
X75974250Y-64750000D01*
X75950868Y-64750000D01*
X76355868Y-64345000D01*
X79762560Y-64345000D01*
X79762560Y-64360000D01*
X79806838Y-64595317D01*
X79945910Y-64811441D01*
X80158110Y-64956431D01*
X80410000Y-65007440D01*
X82110000Y-65007440D01*
X82345317Y-64963162D01*
X82561441Y-64824090D01*
X82706431Y-64611890D01*
X82757440Y-64360000D01*
X82757440Y-62660000D01*
X82713162Y-62424683D01*
X82574090Y-62208559D01*
X82361890Y-62063569D01*
X82305546Y-62052159D01*
X82310054Y-62049147D01*
X82631961Y-61567378D01*
X82745000Y-60999093D01*
X82745000Y-60940907D01*
X82631961Y-60372622D01*
X82310054Y-59890853D01*
X81828285Y-59568946D01*
X81260000Y-59455907D01*
X80982061Y-59511193D01*
X80890434Y-59419566D01*
X80776494Y-59343434D01*
X80644144Y-59255000D01*
X83728132Y-59255000D01*
X85073566Y-60600434D01*
X85073566Y-60600434D01*
G37*
X85073566Y-60600434D02*
X85148392Y-60650431D01*
X85156838Y-60695317D01*
X85295910Y-60911441D01*
X85508110Y-61056431D01*
X85760000Y-61107440D01*
X86260000Y-61107440D01*
X86495317Y-61063162D01*
X86711441Y-60924090D01*
X86759134Y-60854289D01*
X86795910Y-60911441D01*
X87008110Y-61056431D01*
X87260000Y-61107440D01*
X87760000Y-61107440D01*
X87995317Y-61063162D01*
X88211441Y-60924090D01*
X88265481Y-60845000D01*
X88794077Y-60845000D01*
X88775000Y-60940907D01*
X88775000Y-60999093D01*
X88888039Y-61567378D01*
X89209946Y-62049147D01*
X89211179Y-62049971D01*
X89174683Y-62056838D01*
X88958559Y-62195910D01*
X88813569Y-62408110D01*
X88762560Y-62660000D01*
X88762560Y-63826572D01*
X88669566Y-63919566D01*
X88488561Y-64190459D01*
X88425000Y-64510000D01*
X88425000Y-72919920D01*
X88196799Y-72825162D01*
X87824833Y-72824838D01*
X87582422Y-72925000D01*
X85445075Y-72925000D01*
X85445162Y-72824833D01*
X85408797Y-72736822D01*
X85425302Y-72753327D01*
X85658691Y-72850000D01*
X86274250Y-72850000D01*
X86433000Y-72691250D01*
X86433000Y-72042000D01*
X86687000Y-72042000D01*
X86687000Y-72691250D01*
X86845750Y-72850000D01*
X87461309Y-72850000D01*
X87694698Y-72753327D01*
X87873327Y-72574699D01*
X87970000Y-72341310D01*
X87970000Y-72200750D01*
X87811250Y-72042000D01*
X86687000Y-72042000D01*
X86433000Y-72042000D01*
X85308750Y-72042000D01*
X85150000Y-72200750D01*
X85150000Y-72327673D01*
X85040327Y-72217808D01*
X84696799Y-72075162D01*
X84324833Y-72074838D01*
X84082422Y-72175000D01*
X83605868Y-72175000D01*
X82595000Y-71164132D01*
X82595000Y-70844983D01*
X82758110Y-70956431D01*
X83010000Y-71007440D01*
X84510000Y-71007440D01*
X84745317Y-70963162D01*
X84961441Y-70824090D01*
X85106431Y-70611890D01*
X85137560Y-70458170D01*
X85137560Y-70945000D01*
X85181838Y-71180317D01*
X85240178Y-71270980D01*
X85150000Y-71488690D01*
X85150000Y-71629250D01*
X85308750Y-71788000D01*
X86433000Y-71788000D01*
X86433000Y-71768000D01*
X86687000Y-71768000D01*
X86687000Y-71788000D01*
X87811250Y-71788000D01*
X87970000Y-71629250D01*
X87970000Y-71488690D01*
X87880194Y-71271878D01*
X87931431Y-71196890D01*
X87982440Y-70945000D01*
X87982440Y-70345000D01*
X87938162Y-70109683D01*
X87874322Y-70010472D01*
X87931431Y-69926890D01*
X87982440Y-69675000D01*
X87982440Y-69075000D01*
X87938162Y-68839683D01*
X87874322Y-68740472D01*
X87931431Y-68656890D01*
X87982440Y-68405000D01*
X87982440Y-67805000D01*
X87938162Y-67569683D01*
X87799090Y-67353559D01*
X87586890Y-67208569D01*
X87335000Y-67157560D01*
X85785000Y-67157560D01*
X85549683Y-67201838D01*
X85333559Y-67340910D01*
X85188569Y-67553110D01*
X85137560Y-67805000D01*
X85137560Y-68304347D01*
X85113162Y-68174683D01*
X85007518Y-68010507D01*
X85048327Y-67969698D01*
X85145000Y-67736309D01*
X85145000Y-66920750D01*
X84986250Y-66762000D01*
X83887000Y-66762000D01*
X83887000Y-66782000D01*
X83633000Y-66782000D01*
X83633000Y-66762000D01*
X82533750Y-66762000D01*
X82375000Y-66920750D01*
X82375000Y-67736309D01*
X82471673Y-67969698D01*
X82513634Y-68011660D01*
X82413569Y-68158110D01*
X82362560Y-68410000D01*
X82362560Y-68540167D01*
X82290327Y-68467808D01*
X81946799Y-68325162D01*
X81574833Y-68324838D01*
X81382440Y-68404333D01*
X81382440Y-67805000D01*
X81338162Y-67569683D01*
X81199090Y-67353559D01*
X80986890Y-67208569D01*
X80795000Y-67169710D01*
X80795000Y-66752000D01*
X80731439Y-66432459D01*
X80550434Y-66161566D01*
X79922559Y-65533691D01*
X82375000Y-65533691D01*
X82375000Y-66349250D01*
X82533750Y-66508000D01*
X83633000Y-66508000D01*
X83633000Y-65183750D01*
X83887000Y-65183750D01*
X83887000Y-66508000D01*
X84986250Y-66508000D01*
X85145000Y-66349250D01*
X85145000Y-65533691D01*
X85048327Y-65300302D01*
X84869699Y-65121673D01*
X84636310Y-65025000D01*
X84045750Y-65025000D01*
X83887000Y-65183750D01*
X83633000Y-65183750D01*
X83474250Y-65025000D01*
X82883690Y-65025000D01*
X82650301Y-65121673D01*
X82471673Y-65300302D01*
X82375000Y-65533691D01*
X79922559Y-65533691D01*
X79808434Y-65419566D01*
X79696838Y-65345000D01*
X79537541Y-65238561D01*
X79373755Y-65205982D01*
X79363162Y-65149683D01*
X79224090Y-64933559D01*
X79011890Y-64788569D01*
X78760000Y-64737560D01*
X77760000Y-64737560D01*
X77524683Y-64781838D01*
X77308559Y-64920910D01*
X77262031Y-64989006D01*
X77119698Y-64846673D01*
X76886309Y-64750000D01*
X76545750Y-64750000D01*
X76387000Y-64908750D01*
X76387000Y-65883000D01*
X76407000Y-65883000D01*
X76407000Y-66137000D01*
X76387000Y-66137000D01*
X76387000Y-67111250D01*
X76545750Y-67270000D01*
X76886309Y-67270000D01*
X77119698Y-67173327D01*
X77260936Y-67032090D01*
X77295910Y-67086441D01*
X77508110Y-67231431D01*
X77760000Y-67282440D01*
X78602460Y-67282440D01*
X78345459Y-67333561D01*
X78074566Y-67514566D01*
X77419566Y-68169566D01*
X77238561Y-68440459D01*
X77175000Y-68760000D01*
X77175000Y-69026037D01*
X77053117Y-68731057D01*
X76790327Y-68467808D01*
X76446799Y-68325162D01*
X76074833Y-68324838D01*
X75982440Y-68363014D01*
X75982440Y-67805000D01*
X75938162Y-67569683D01*
X75799090Y-67353559D01*
X75676797Y-67270000D01*
X75974250Y-67270000D01*
X76133000Y-67111250D01*
X76133000Y-66137000D01*
X76113000Y-66137000D01*
X76113000Y-65883000D01*
X76133000Y-65883000D01*
X76133000Y-64908750D01*
X75974250Y-64750000D01*
X75950868Y-64750000D01*
X76355868Y-64345000D01*
X79762560Y-64345000D01*
X79762560Y-64360000D01*
X79806838Y-64595317D01*
X79945910Y-64811441D01*
X80158110Y-64956431D01*
X80410000Y-65007440D01*
X82110000Y-65007440D01*
X82345317Y-64963162D01*
X82561441Y-64824090D01*
X82706431Y-64611890D01*
X82757440Y-64360000D01*
X82757440Y-62660000D01*
X82713162Y-62424683D01*
X82574090Y-62208559D01*
X82361890Y-62063569D01*
X82305546Y-62052159D01*
X82310054Y-62049147D01*
X82631961Y-61567378D01*
X82745000Y-60999093D01*
X82745000Y-60940907D01*
X82631961Y-60372622D01*
X82310054Y-59890853D01*
X81828285Y-59568946D01*
X81260000Y-59455907D01*
X80982061Y-59511193D01*
X80890434Y-59419566D01*
X80776494Y-59343434D01*
X80644144Y-59255000D01*
X83728132Y-59255000D01*
X85073566Y-60600434D01*
M02*
